<svg width="96" height="26" viewBox="0 0 96 26" fill="none" xmlns="http://www.w3.org/2000/svg">
<path d="M82.2732 21.541V4.45898H89.5402C93.3625 4.45898 95.8635 6.86556 95.8635 10.4518C95.8635 14.1089 93.2917 16.3975 89.3986 16.3975H86.7561V21.541H82.2732ZM86.7561 12.9056H88.5021C90.2008 12.9056 91.1682 11.9619 91.1682 10.4518C91.1682 8.96542 90.2008 8.04526 88.5021 8.04526H86.7561V12.9056Z" fill="#121212"/>
<path d="M68.1992 21.541V4.45898H80.3974V8.09245H72.6821V11.1833H79.7604V14.8167H72.6821V17.9075H80.3738V21.541H68.1992Z" fill="#121212"/>
<path d="M47.3687 8.09245V4.45898H62.0914V8.09245H56.9479V21.541H52.5122V8.09245H47.3687Z" fill="#121212"/>
<path d="M46.5771 21.541H41.4336L39.362 17.97L41.7969 13.8505L46.5771 21.541Z" fill="#121212"/>
<path d="M41.7415 12.2096L39.3325 7.99453L41.3628 4.45898H46.3884L41.7415 12.2096Z" fill="#121212"/>
<path d="M16.5267 21.541V4.45898H28.7249V8.09245H21.0096V11.1833V14.8167V17.9075H28.7013V21.541H16.5267Z" fill="#121212"/>
<path d="M40.1468 13.0767L35.146 21.541H30.2007L35.4622 13L30.3658 4.45898H35.2227L40.1468 13.0767Z" fill="#005386"/>
<path d="M40.1468 13.0767L35.146 21.541H30.2007L35.4622 13L30.3658 4.45898H35.2227L40.1468 13.0767Z" fill="#005386"/>
<path d="M21.0107 11.1833H36.5452V14.8167H21.0107V11.1833Z" fill="#005386"/>
<path d="M14.6992 4.45898V21.541H10.9477L4.60087 12.3158H4.4829V21.541H0V4.45898H3.82226L10.0747 13.637H10.2163V4.45898H14.6992Z" fill="#121212"/>
</svg>
