<svg width="56" height="56" viewBox="0 0 56 56" fill="none" xmlns="http://www.w3.org/2000/svg">
<path d="M32.3749 49C32.3749 49.2321 32.2827 49.4546 32.1186 49.6187C31.9545 49.7828 31.7319 49.875 31.4999 49.875H24.4999C24.2678 49.875 24.0452 49.7828 23.8812 49.6187C23.7171 49.4546 23.6249 49.2321 23.6249 49C23.6249 48.768 23.7171 48.5454 23.8812 48.3813C24.0452 48.2172 24.2678 48.125 24.4999 48.125H31.4999C31.7319 48.125 31.9545 48.2172 32.1186 48.3813C32.2827 48.5454 32.3749 48.768 32.3749 49ZM27.9999 23.625C28.346 23.625 28.6843 23.5224 28.9721 23.3301C29.2599 23.1378 29.4842 22.8645 29.6167 22.5447C29.7491 22.2249 29.7838 21.8731 29.7162 21.5336C29.6487 21.1941 29.482 20.8823 29.2373 20.6376C28.9926 20.3928 28.6807 20.2262 28.3413 20.1586C28.0018 20.0911 27.6499 20.1258 27.3302 20.2582C27.0104 20.3907 26.7371 20.615 26.5448 20.9028C26.3525 21.1906 26.2499 21.5289 26.2499 21.875C26.2499 22.3391 26.4342 22.7843 26.7624 23.1125C27.0906 23.4406 27.5357 23.625 27.9999 23.625ZM48.0636 33.9063L45.3577 46.0688C45.2629 46.5044 45.0578 46.9083 44.7621 47.242C44.4664 47.5756 44.09 47.8277 43.6689 47.9741C43.3878 48.073 43.092 48.124 42.7939 48.125C42.2034 48.1246 41.6305 47.9241 41.1686 47.5563L34.9671 42.875H21.0327L14.8333 47.5563C14.3714 47.9241 13.7985 48.1246 13.208 48.125C12.9099 48.124 12.6142 48.073 12.333 47.9741C11.9119 47.8277 11.5355 47.5756 11.2398 47.242C10.9441 46.9083 10.739 46.5044 10.6442 46.0688L7.93612 33.9063C7.84938 33.5146 7.85356 33.1082 7.94837 32.7184C8.04317 32.3285 8.22606 31.9656 8.483 31.6575L14.9033 23.951C15.6252 12.285 24.0536 4.9897 26.3921 3.18283C26.8522 2.82629 27.4178 2.63281 27.9999 2.63281C28.582 2.63281 29.1476 2.82629 29.6077 3.18283C31.9461 4.9897 40.3746 12.285 41.0964 23.951L47.5167 31.6575C47.7737 31.9656 47.9566 32.3285 48.0514 32.7184C48.1462 33.1082 48.1504 33.5146 48.0636 33.9063ZM21.2427 41.125H34.7571C46.8277 20.2322 31.7186 7.01095 28.538 4.55876C28.3842 4.43885 28.1949 4.37373 27.9999 4.37373C27.8049 4.37373 27.6155 4.43885 27.4617 4.55876C24.2811 7.01095 9.17206 20.2322 21.2427 41.125ZM19.5977 41.766C16.4324 36.2163 15.0783 31.1763 14.8749 26.7006L9.82612 32.7688C9.74049 32.8716 9.6796 32.9927 9.64813 33.1228C9.61665 33.2529 9.61543 33.3885 9.64456 33.5191L12.3483 45.6881C12.3803 45.8335 12.4489 45.9683 12.5475 46.0798C12.6461 46.1913 12.7715 46.2758 12.9119 46.3253C13.0523 46.3748 13.203 46.3876 13.3497 46.3627C13.4965 46.3377 13.6344 46.2757 13.7505 46.1825L13.7702 46.1672L19.5977 41.766ZM46.1736 32.7688L41.1249 26.7006C40.9302 31.1763 39.5761 36.2163 36.4108 41.766L42.2383 46.1672L42.258 46.1825C42.3741 46.2757 42.512 46.3377 42.6588 46.3627C42.8055 46.3876 42.9562 46.3748 43.0966 46.3253C43.237 46.2758 43.3624 46.1913 43.461 46.0798C43.5596 45.9683 43.6282 45.8335 43.6602 45.6881L46.3639 33.5191C46.3919 33.3878 46.3893 33.2518 46.3563 33.1217C46.3233 32.9916 46.2608 32.8709 46.1736 32.7688Z" fill="black"/>
<path d="M19.5977 41.766C16.4324 36.2163 15.0783 31.1763 14.8749 26.7006L9.82612 32.7688C9.74049 32.8716 9.6796 32.9927 9.64813 33.1228C9.61665 33.2529 9.61543 33.3885 9.64456 33.5191L12.3483 45.6881C12.3803 45.8335 12.4489 45.9683 12.5475 46.0798C12.6461 46.1913 12.7715 46.2758 12.9119 46.3253C13.0523 46.3748 13.203 46.3876 13.3497 46.3627C13.4965 46.3377 13.6344 46.2757 13.7505 46.1825L13.7702 46.1672L19.5977 41.766Z" fill="#005386"/>
<path d="M46.1736 32.7688L41.1249 26.7006C40.9302 31.1763 39.5761 36.2163 36.4108 41.766L42.2383 46.1672L42.258 46.1825C42.3741 46.2757 42.512 46.3377 42.6588 46.3627C42.8055 46.3876 42.9562 46.3748 43.0966 46.3253C43.237 46.2758 43.3624 46.1913 43.461 46.0798C43.5596 45.9683 43.6282 45.8335 43.6602 45.6881L46.3639 33.5191C46.3919 33.3878 46.3893 33.2518 46.3563 33.1217C46.3233 32.9916 46.2608 32.8709 46.1736 32.7688Z" fill="#005386"/>
</svg>
