<svg width="24" height="24" viewBox="0 0 24 24" fill="none" xmlns="http://www.w3.org/2000/svg">
<path fill-rule="evenodd" clip-rule="evenodd" d="M19.2679 7.00233C19.2196 7.00018 19.1533 6.99995 19.0217 6.99995H4.97731C4.8457 6.99995 4.77945 7.00018 4.73134 7.00233L4.7272 7.00253L4.72436 7.00601C4.69385 7.04357 4.65409 7.09686 4.57579 7.20257C4.31283 7.55757 4.15077 7.77757 4.04652 7.94344C4.03805 7.95693 4.03045 7.96932 4.02366 7.98064C4.03654 7.98189 4.05069 7.98312 4.06619 7.98431C4.26123 7.99925 4.53399 7.99995 4.97508 7.99995H6.50497C6.52609 7.99994 6.54728 7.99994 6.56851 7.99995C6.57912 7.99995 6.58973 7.99995 6.60036 7.99995L17.4323 7.99995C17.4536 7.99994 17.4748 7.99994 17.496 7.99995H19.0232C19.4643 7.99995 19.7373 7.99925 19.9327 7.98431C19.9486 7.98309 19.963 7.98182 19.9762 7.98054C19.9694 7.9692 19.9618 7.9568 19.9533 7.9433C19.8489 7.77726 19.6867 7.55713 19.4238 7.20211C19.3461 7.09722 19.3062 7.04401 19.2761 7.00705C19.2748 7.00545 19.2724 7.00255 19.2724 7.00255L19.2679 7.00233ZM19.991 9.98476C20.0232 9.9829 20.0546 9.98082 20.0852 9.97848C20.3615 9.95735 20.7299 9.90816 21.0631 9.70294C21.7058 9.30704 22.0718 8.58218 22.0073 7.82901C21.9739 7.43908 21.7941 7.11372 21.6465 6.87888C21.4963 6.63998 21.2871 6.35758 21.0526 6.04104L21.0309 6.01165C21.0216 5.9991 21.0121 5.98625 21.0024 5.97314C20.8876 5.81742 20.7461 5.62553 20.5619 5.47042C20.3231 5.26928 20.0399 5.12644 19.7356 5.05414C19.5024 4.99872 19.2637 4.99935 19.0733 4.99986C19.0557 4.9999 19.0385 4.99995 19.0217 4.99995H4.97731C4.96054 4.99995 4.94332 4.9999 4.92569 4.99986C4.73525 4.99935 4.49689 4.99872 4.26369 5.05414C3.95949 5.12642 3.67627 5.26922 3.43737 5.47042C3.25401 5.62483 3.11224 5.81729 2.99933 5.97057C2.98887 5.98477 2.97865 5.99864 2.96868 6.01211C2.96164 6.02161 2.95463 6.03107 2.94764 6.04051C2.71282 6.35748 2.50342 6.64014 2.35315 6.87926C2.2055 7.11421 2.02607 7.43934 1.99268 7.82906C1.92826 8.58102 2.29249 9.3064 2.93624 9.70294C3.26921 9.90804 3.63715 9.95732 3.91351 9.97847C3.94441 9.98084 3.97616 9.98295 4.00872 9.98482C3.99972 10.164 3.99974 10.3639 3.99977 10.5682C3.99977 10.5788 3.99977 10.5894 3.99977 10.6L3.99977 15.8386C3.99975 16.3657 3.99974 16.8205 4.03034 17.1951C4.06264 17.5905 4.13395 17.9837 4.32675 18.3621C4.61424 18.9263 5.07284 19.3854 5.63758 19.6732C6.01577 19.8659 6.40883 19.9371 6.80373 19.9694C7.17792 20 7.63207 20 8.15816 19.9999H15.8411C16.3671 20 16.8211 20 17.1951 19.9694C17.59 19.9371 17.9827 19.8658 18.3608 19.6732C18.9241 19.3861 19.3848 18.9277 19.673 18.3621C19.8657 17.984 19.9369 17.5912 19.9692 17.1963C19.9998 16.8223 19.9998 16.3682 19.9998 15.8422L19.9998 10.5593C19.9998 10.3587 19.9998 10.1618 19.991 9.98476ZM17.9886 10.0114C17.9845 10.011 17.98 10.0106 17.9754 10.0102C17.859 10.0007 17.6969 9.99995 17.4004 9.99995H6.60036C6.30386 9.99995 6.14137 10.0007 6.02456 10.0103C6.01986 10.0106 6.01541 10.011 6.01122 10.0114C6.01083 10.0156 6.01045 10.0199 6.01008 10.0245C6.00055 10.1412 5.99977 10.3035 5.99977 10.6V15.8C5.99977 16.3766 6.00055 16.7489 6.0237 17.0323C6.0459 17.304 6.08358 17.4047 6.10876 17.4541C6.20477 17.6425 6.35765 17.7954 6.54556 17.8912C6.59477 17.9162 6.69531 17.9539 6.96663 17.976C7.24957 17.9992 7.62123 17.9999 8.19668 17.9999H15.8025C16.378 17.9999 16.7494 17.9992 17.0321 17.9761C17.3031 17.9539 17.4035 17.9163 17.4528 17.8912C17.6421 17.7947 17.7957 17.6411 17.891 17.4541C17.9161 17.4048 17.9537 17.3043 17.9759 17.0333C17.999 16.7506 17.9998 16.3791 17.9998 15.8037V10.591C17.9998 10.2975 17.999 10.1372 17.9896 10.0221C17.9893 10.0183 17.989 10.0148 17.9886 10.0114ZM8.99977 13.9999C8.99977 13.4477 9.44749 12.9999 9.99977 12.9999H13.9998C14.5521 12.9999 14.9998 13.4477 14.9998 13.9999C14.9998 14.5522 14.5521 14.9999 13.9998 14.9999H9.99977C9.44749 14.9999 8.99977 14.5522 8.99977 13.9999Z" fill="#121212"/>
</svg>
