<svg width="24" height="24" viewBox="0 0 24 24" fill="none" xmlns="http://www.w3.org/2000/svg">
<path fill-rule="evenodd" clip-rule="evenodd" d="M11.4531 2.3404C11.9237 1.88573 12.6542 1.88701 13.125 2.34137L13.126 2.3404C14.8134 3.9474 17.037 4.83063 19.3701 4.83063C19.6662 4.83077 19.9835 4.93428 20.2295 5.18024C20.4755 5.42626 20.5789 5.74352 20.5791 6.03962V15.2437C20.5791 15.406 20.5365 15.5504 20.5205 15.605C20.4962 15.688 20.4653 15.7773 20.4297 15.8668C20.3578 16.0473 20.2553 16.2664 20.124 16.5113C19.8608 17.0023 19.465 17.6235 18.9199 18.2711C17.8308 19.5649 16.1204 20.9931 13.6611 21.6685L13.6621 21.6695C13.6158 21.6827 13.3313 21.7668 13.0928 21.8336C12.9672 21.8687 12.8337 21.9052 12.7188 21.9332C12.6618 21.947 12.6007 21.9613 12.5439 21.9722C12.5081 21.9792 12.4026 21.9996 12.2891 21.9996C12.1758 21.9995 12.0711 21.9792 12.0352 21.9722C11.9784 21.9613 11.9172 21.947 11.8604 21.9332C11.7453 21.9051 11.611 21.8687 11.4854 21.8336C11.2494 21.7675 10.9696 21.684 10.9189 21.6695C8.42835 20.9616 6.71713 19.5238 5.63379 18.23C5.09255 17.5836 4.70224 16.9666 4.44434 16.483C4.31584 16.242 4.21711 16.0276 4.14746 15.8531C4.11302 15.7668 4.08118 15.682 4.05762 15.6031C4.04407 15.5577 4.00001 15.4092 4 15.2437V6.03962C4.00015 5.74349 4.10358 5.42627 4.34961 5.18024C4.59567 4.93423 4.91285 4.83075 5.20898 4.83063L5.64551 4.82087C7.81813 4.71777 9.87125 3.8469 11.4531 2.3404ZM12.1328 15.1881C11.6483 15.2155 11.2203 15.3103 10.999 15.3795L10.9834 15.3843L10.9678 15.3882C9.60478 15.762 8.46566 16.6695 7.83887 17.899C8.71349 18.7082 9.88856 19.4757 11.4189 19.9107L11.9785 20.0728C12.0954 20.1055 12.2046 20.1342 12.2891 20.1549C12.3736 20.1342 12.4835 20.1056 12.6006 20.0728C12.8511 20.0027 13.0586 19.9395 13.1592 19.9107L13.1689 19.9078L13.542 19.7974C14.8568 19.3731 15.8959 18.684 16.6953 17.9517C16.0515 16.6907 14.9008 15.7641 13.5488 15.3873L13.4961 15.3726L13.4453 15.3511C13.0938 15.2062 12.6258 15.1601 12.1328 15.1881ZM12.2891 4.04547C10.4747 5.60116 8.21262 6.50608 5.8291 6.6402V15.1275C5.83397 15.1407 5.83847 15.1572 5.8457 15.1754C5.88691 15.2786 5.95669 15.4325 6.05859 15.6236C6.1837 15.8581 6.35533 16.1391 6.57227 16.4478C7.34402 15.2714 8.47201 14.3741 9.78125 13.8609C9.03906 13.1915 8.57239 12.2222 8.57227 11.1441C8.57227 9.12391 10.2102 7.48592 12.2305 7.4859C14.2507 7.4859 15.8887 9.12389 15.8887 11.1441C15.8885 12.2153 15.4273 13.1783 14.6934 13.8472C16.0273 14.3674 17.1797 15.294 17.9688 16.5084C18.1983 16.1865 18.381 15.8927 18.5127 15.647C18.6169 15.4526 18.6882 15.2961 18.7305 15.19C18.7391 15.1683 18.7446 15.1492 18.75 15.1343V6.6402C16.3664 6.50607 14.1035 5.60124 12.2891 4.04547ZM12.2305 9.31501C11.2204 9.31503 10.4014 10.134 10.4014 11.1441C10.4016 12.154 11.2205 12.9722 12.2305 12.9722C13.2404 12.9722 14.0593 12.154 14.0596 11.1441C14.0596 10.134 13.2406 9.31501 12.2305 9.31501Z" fill="#121212"/>
</svg>
