<svg width="24" height="24" viewBox="0 0 24 24" fill="none" xmlns="http://www.w3.org/2000/svg">
<path d="M13.9434 3.00193C14.3802 2.97713 14.7828 3.23877 14.9365 3.64841L17.6934 11H21C21.5523 11 22 11.4477 22 12C22 12.5523 21.5523 13 21 13H17C16.5833 13 16.2099 12.7417 16.0635 12.3515L14.1904 7.35739L10.9697 20.2422C10.8636 20.6668 10.4937 20.9731 10.0566 20.998C9.61978 21.0228 9.21725 20.7612 9.06348 20.3515L6.30664 13H3C2.44772 13 2 12.5523 2 12C2 11.4477 2.44772 11 3 11H7C7.41673 11 7.79008 11.2583 7.93652 11.6484L9.80859 16.6416L13.0303 3.75779L13.082 3.60447C13.2299 3.26088 13.5609 3.02371 13.9434 3.00193Z" fill="#121212"/>
</svg>
