<svg width="24" height="24" viewBox="0 0 24 24" fill="none" xmlns="http://www.w3.org/2000/svg">
<path fill-rule="evenodd" clip-rule="evenodd" d="M18.1475 5.27751C16.4878 3.61778 13.7968 3.61778 12.137 5.27751L5.24275 12.1718C4.85223 12.5623 4.21906 12.5623 3.82854 12.1718C3.43801 11.7813 3.43801 11.1481 3.82854 10.7576L10.7228 3.8633C13.1636 1.42252 17.1209 1.42252 19.5617 3.8633C22.0026 6.30414 22.0022 10.2616 19.5615 12.7023L11.6065 20.6573C9.84909 22.4147 7.00022 22.4144 5.24294 20.6571C3.4857 18.8998 3.48512 16.0508 5.2426 14.2933L13.1976 6.3384C14.2715 5.26445 16.0133 5.26445 17.0872 6.3384C18.1615 7.41269 18.1603 9.15363 17.0867 10.2272L10.1925 17.1215C9.80193 17.512 9.16877 17.512 8.77824 17.1215C8.38772 16.731 8.38772 16.0978 8.77824 15.7073L15.6725 8.813C15.9658 8.51975 15.9656 8.04514 15.673 7.75261C15.3801 7.45972 14.9047 7.45972 14.6118 7.75261L6.65681 15.7076C5.68063 16.6837 5.68071 18.2664 6.65715 19.2429C7.63353 20.2192 9.21607 20.2193 10.1923 19.2431L18.1473 11.2881C19.807 9.62831 19.8072 6.93718 18.1475 5.27751Z" fill="#121212"/>
</svg>
