<svg width="24" height="24" viewBox="0 0 24 24" fill="none" xmlns="http://www.w3.org/2000/svg">
<path fill-rule="evenodd" clip-rule="evenodd" d="M6.83021 1.35724C7.18522 1.78031 7.13003 2.41107 6.70696 2.76607L3.64278 5.33722C3.21971 5.69222 2.58895 5.63704 2.23395 5.21396C1.87895 4.79089 1.93413 4.16013 2.35721 3.80513L5.42138 1.23398C5.84446 0.878977 6.47521 0.934161 6.83021 1.35724ZM17.1734 1.35724C17.5284 0.934161 18.1592 0.878977 18.5822 1.23398L21.6464 3.80513C22.0695 4.16013 22.1247 4.79089 21.7697 5.21396C21.4147 5.63704 20.7839 5.69222 20.3608 5.33722L17.2967 2.76607C16.8736 2.41107 16.8184 1.78031 17.1734 1.35724ZM12 5.00002C8.134 5.00002 4.99999 8.13403 4.99999 12C4.99999 15.866 8.134 19 12 19C15.866 19 19 15.866 19 12C19 8.13403 15.866 5.00002 12 5.00002ZM2.99999 12C2.99999 7.02946 7.02943 3.00002 12 3.00002C16.9706 3.00002 21 7.02946 21 12C21 16.9706 16.9706 21 12 21C7.02943 21 2.99999 16.9706 2.99999 12ZM12 6.00002C12.5523 6.00002 13 6.44774 13 7.00002V11H17C17.5523 11 18 11.4477 18 12C18 12.5523 17.5523 13 17 13H12C11.4477 13 11 12.5523 11 12V7.00002C11 6.44774 11.4477 6.00002 12 6.00002Z" fill="#121212"/>
</svg>
