<svg width="24" height="24" viewBox="0 0 24 24" fill="none" xmlns="http://www.w3.org/2000/svg">
<path d="M20.705 12.2197L20.7623 12.1679C21.0568 11.9279 21.4911 11.9452 21.7656 12.2197C22.0401 12.4942 22.0574 12.9284 21.8174 13.223L21.7656 13.2803L13.2803 21.7656C12.9874 22.0585 12.5126 22.0585 12.2197 21.7656C11.9268 21.4727 11.9268 20.9979 12.2197 20.705L20.705 12.2197Z" fill="#121212"/>
<path d="M21.4623 17.4623L21.5196 17.4105C21.8142 17.1706 22.2485 17.1878 22.523 17.4623C22.7974 17.7368 22.8147 18.1711 22.5748 18.4657L22.523 18.523L18.2803 22.7656C17.9874 23.0585 17.5126 23.0585 17.2197 22.7656C16.9268 22.4727 16.9268 21.9979 17.2197 21.705L21.4623 17.4623Z" fill="#121212"/>
</svg>
