<svg width="24" height="24" viewBox="0 0 24 24" fill="none" xmlns="http://www.w3.org/2000/svg">
<path fill-rule="evenodd" clip-rule="evenodd" d="M7.16168 3H8.83878C9.36589 2.99998 9.82048 2.99997 10.1949 3.03058C10.5902 3.06289 10.9831 3.13424 11.3614 3.32698C11.9248 3.61405 12.3851 4.07224 12.6732 4.63781C12.8659 5.016 12.9372 5.40906 12.9695 5.80397C13 6.17815 13 6.6323 13 7.15839V8.10821C13.1934 7.98818 13.4013 7.88659 13.6339 7.81648C14.1985 7.64627 14.8011 7.64627 15.3658 7.81648C15.7414 7.9297 16.0527 8.12501 16.3431 8.34763C16.6173 8.55784 16.9261 8.83535 17.2822 9.15521L19.607 11.2438C19.6282 11.2628 19.6492 11.2817 19.67 11.3004C19.9974 11.594 20.2843 11.8513 20.4972 12.1711C20.6836 12.4513 20.8213 12.7604 20.905 13.086C21.0008 13.4583 21.0004 13.844 21 14.2843C21 14.312 21 14.34 21 14.3682V19H22C22.5523 19 23 19.4477 23 20C23 20.5523 22.5523 21 22 21H2C1.44772 21 1 20.5523 1 20C1 19.4477 1.44772 19 2 19H3L3 7.16168C2.99998 6.63451 2.99997 6.17965 3.03057 5.80499C3.06286 5.40962 3.13416 5.01625 3.32698 4.63781C3.6146 4.07332 4.07332 3.6146 4.63781 3.32698C5.01624 3.13416 5.40962 3.06286 5.80498 3.03057C6.17965 2.99997 6.6345 2.99998 7.16168 3ZM5 19H8V14.3682C8 14.338 7.99997 14.3081 7.99994 14.2785C7.99951 13.8419 7.99912 13.4569 8.0945 13.0859C8.17829 12.76 8.31622 12.451 8.50247 12.1711C8.71472 11.8522 9.00201 11.5946 9.3271 11.3031C9.34898 11.2835 9.37102 11.2638 9.39322 11.2438L11 9.80029V7.19691C11 6.62146 10.9992 6.2498 10.9761 5.96686C10.9539 5.69554 10.9163 5.59501 10.8912 5.54579C10.7959 5.35871 10.6426 5.20542 10.4534 5.109C10.4038 5.08375 10.3032 5.04611 10.0319 5.02393C9.74881 5.00078 9.37677 5 8.8002 5H7.2002C6.62365 5 6.25126 5.00078 5.9678 5.02393C5.69595 5.04614 5.59517 5.08383 5.54579 5.109C5.35763 5.20487 5.20487 5.35763 5.10899 5.54579C5.08383 5.59517 5.04613 5.69595 5.02393 5.9678C5.00078 6.25126 5 6.62365 5 7.2002V19ZM10 19H19V14.3682C19 13.7929 18.9923 13.6783 18.968 13.584C18.9401 13.4752 18.8942 13.3724 18.8322 13.2792C18.7783 13.1982 18.6984 13.1161 18.2704 12.7316L15.9704 10.6653C15.5809 10.3154 15.3306 10.0916 15.1263 9.93491C14.9318 9.7858 14.8403 9.74697 14.7885 9.73138C14.6003 9.67464 14.3993 9.67464 14.2111 9.73138C14.1596 9.74689 14.0684 9.78557 13.8742 9.9345C13.6701 10.091 13.4204 10.3144 13.0314 10.6639L10.7298 12.7316C10.3013 13.1166 10.2211 13.1986 10.1675 13.2792C10.1052 13.3727 10.0594 13.4756 10.0315 13.584C10.0074 13.6779 10 13.7914 10 14.3682V19Z" fill="#121212"/>
</svg>
