<svg width="24" height="24" viewBox="0 0 24 24" fill="none" xmlns="http://www.w3.org/2000/svg">
<path fill-rule="evenodd" clip-rule="evenodd" d="M9.16168 3H14.8388C15.3659 2.99998 15.8205 2.99997 16.1949 3.03058C16.5902 3.06289 16.9831 3.13424 17.3614 3.32698C17.9248 3.61405 18.3851 4.07224 18.6732 4.63781C18.8659 5.016 18.9372 5.40906 18.9695 5.80397C19 6.17815 19 6.6323 19 7.15839V16.72C19 17.371 19 17.9084 18.9724 18.3334C18.9448 18.7569 18.8851 19.1931 18.6938 19.5834C18.1263 20.7414 16.8824 21.4065 15.6045 21.2365C15.174 21.1792 14.7779 20.9873 14.4099 20.7752C14.0388 20.5614 13.5887 20.2614 13.043 19.8976L13.0226 19.884C12.5267 19.5534 12.4221 19.4925 12.3328 19.4609C12.1171 19.3847 11.8818 19.3847 11.6662 19.4609C11.5773 19.4923 11.4735 19.5527 10.9795 19.882L10.948 19.903C10.4063 20.2642 9.95909 20.5623 9.59014 20.775C9.22242 20.9871 8.82636 21.1793 8.39556 21.2367C7.11752 21.4067 5.87372 20.7413 5.30618 19.5834C5.11491 19.1932 5.05517 18.757 5.02763 18.3334C4.99999 17.9085 4.99999 17.3711 5 16.72L5 7.16168C4.99998 6.63451 4.99997 6.17965 5.03057 5.80499C5.06286 5.40962 5.13416 5.01625 5.32698 4.63781C5.6146 4.07332 6.07332 3.6146 6.63781 3.32698C7.01625 3.13416 7.40962 3.06286 7.80499 3.03057C8.17965 2.99997 8.63451 2.99998 9.16168 3ZM7.9678 5.02393C7.69595 5.04614 7.59517 5.08383 7.54579 5.109C7.35763 5.20487 7.20487 5.35763 7.109 5.54579C7.08383 5.59517 7.04614 5.69595 7.02393 5.9678C7.00078 6.25126 7 6.62365 7 7.2002V16.6854C7 17.3798 7.00051 17.8515 7.02341 18.2036C7.04689 18.5646 7.08921 18.6769 7.10206 18.7032C7.29118 19.089 7.70563 19.3108 8.13178 19.2541C8.16072 19.2503 8.27764 19.2232 8.59108 19.0425C8.89679 18.8662 9.28964 18.6049 9.8674 18.2197L9.87012 18.2179C9.89643 18.2004 9.92249 18.1829 9.94833 18.1657C10.319 17.918 10.6438 17.701 10.9997 17.5752C11.6466 17.3466 12.3524 17.3466 12.9993 17.5752C13.3556 17.7012 13.6813 17.9188 14.0535 18.1674C14.0794 18.1848 14.1056 18.2022 14.132 18.2199C14.7096 18.6049 15.1026 18.8661 15.4083 19.0423C15.7218 19.2229 15.8391 19.2501 15.8683 19.254C16.2945 19.3107 16.7089 19.0889 16.898 18.7032C16.9108 18.677 16.9531 18.5647 16.9766 18.2036C16.9995 17.8514 17 17.3796 17 16.6854V7.19691C17 6.62146 16.9992 6.2498 16.9761 5.96686C16.9539 5.69554 16.9163 5.59501 16.8912 5.54579C16.7959 5.35871 16.6427 5.20542 16.4534 5.109C16.4039 5.08375 16.3032 5.04611 16.0319 5.02393C15.7488 5.00078 15.3768 5 14.8002 5H9.2002C8.62365 5 8.25126 5.00078 7.9678 5.02393Z" fill="#121212"/>
</svg>
