<svg width="24" height="24" viewBox="0 0 24 24" fill="none" xmlns="http://www.w3.org/2000/svg">
<path fill-rule="evenodd" clip-rule="evenodd" d="M4.59961 4.00001L4.5677 4C4.31534 3.99997 4.0696 3.99994 3.86149 4.01695C3.63286 4.03564 3.36326 4.07973 3.09191 4.21799C2.71559 4.40974 2.40974 4.71559 2.21799 5.09191C2.07966 5.3634 2.03562 5.63323 2.01695 5.86179L2 6.56822L2.00001 6.6001L2 15.432C1.99997 15.6844 1.99994 15.9301 2.01695 16.1382C2.03565 16.3668 2.07975 16.6364 2.21799 16.9077C2.40919 17.2829 2.71451 17.5898 3.09191 17.7821C3.36311 17.9203 3.63254 17.9644 3.86096 17.9831C4.06884 18.0001 4.31424 18 4.56608 18L7.43073 18C8.4322 18 8.72447 18.0102 8.97511 18.0863C9.22781 18.163 9.46263 18.2885 9.66485 18.4547C9.86586 18.6199 10.0353 18.8558 10.5865 19.6825L11.168 20.5546C11.3535 20.8328 11.6657 20.9998 12.0001 20.9998C12.3344 20.9998 12.6466 20.8327 12.8321 20.5545L13.4071 19.6919C13.9624 18.859 14.1335 18.6211 14.3359 18.4547C14.5392 18.2876 14.7726 18.1626 15.024 18.0863C15.2746 18.0102 15.5678 18 16.5693 18L19.4339 18C19.6858 18 19.9312 18.0001 20.1391 17.9831C20.3675 17.9644 20.6371 17.9203 20.9083 17.7821C21.287 17.5892 21.5911 17.2817 21.7816 16.9077C21.9197 16.6368 21.964 16.3676 21.9828 16.1388C22.0001 15.9294 22 15.6823 22 15.4283V6.57199C22 6.31793 22.0001 6.0707 21.9828 5.86123C21.964 5.63247 21.9198 5.36299 21.7816 5.09191C21.5902 4.71617 21.2849 4.41003 20.908 4.21799C20.6365 4.07967 20.3667 4.03562 20.1381 4.01695C19.9299 3.99994 19.6841 3.99997 19.4317 4L16.7585 4C15.9535 3.99999 15.2891 3.99998 14.7479 4.0442C14.1858 4.09012 13.6691 4.18868 13.1837 4.43598C12.7319 4.66619 12.331 4.9787 11.9999 5.35439C11.6685 4.97863 11.2675 4.66615 10.8158 4.43598C10.3304 4.18868 9.81365 4.09012 9.25153 4.0442C8.71029 3.99998 8.04588 3.99999 7.2409 4L4.59961 4.00001ZM11 9.79981C11 8.94328 10.9992 8.36108 10.9624 7.91112C10.9265 7.47287 10.8616 7.24867 10.7818 7.09218C10.5901 6.71576 10.284 6.40969 9.90779 6.21799C9.75141 6.13831 9.52717 6.07338 9.08868 6.03756C8.63854 6.00078 8.05619 6.00001 7.19961 6.00001H4.59961C4.5048 6.00001 4.42372 6.00008 4.35348 6.0005C4.20405 6.0014 4.10367 6.00383 4.02442 6.01031L4.01145 6.01143L4.01031 6.02461C4.00078 6.14126 4.00001 6.30359 4.00001 6.6001V15.4001C4.00001 15.6966 4.00078 15.8588 4.0103 15.9752L4.01147 15.9886L4.02397 15.9897C4.1402 15.9992 4.30198 16 4.59797 16H7.43073L7.56259 16C8.37327 15.9995 8.98495 15.9991 9.55628 16.1726C10.0583 16.3251 10.5276 16.575 10.9348 16.9096C10.9568 16.9277 10.9785 16.9461 11 16.9648V9.79981ZM13 9.79981V16.9654C13.0217 16.9465 13.0437 16.9279 13.066 16.9096C13.4721 16.5758 13.9394 16.3255 14.4428 16.1726C15.0142 15.9991 15.6268 15.9995 16.4374 16L16.5693 16H19.402C19.698 16 19.8599 15.9992 19.9762 15.9897L19.9883 15.9887L19.9896 15.9747C19.9991 15.8584 20 15.6963 20 15.4001V6.6001C20 6.30394 19.9991 6.14159 19.9896 6.02517L19.9883 6.01144L19.9753 6.01031C19.8586 6.00078 19.6963 6.00001 19.3998 6.00001H16.7998C15.9432 6.00001 15.3609 6.00078 14.9108 6.03756C14.4723 6.07338 14.2481 6.13831 14.0917 6.21799C13.7157 6.40956 13.4099 6.71551 13.218 7.09218C13.1383 7.24861 13.0734 7.47276 13.0376 7.91104C13.0008 8.36103 13 8.94322 13 9.79981Z" fill="#121212"/>
</svg>
