<svg width="24" height="24" viewBox="0 0 24 24" fill="none" xmlns="http://www.w3.org/2000/svg">
<path d="M14.8389 3C15.3659 2.99998 15.8209 2.99967 16.1953 3.03028C16.5905 3.06261 16.9832 3.13448 17.3613 3.32715C17.9246 3.61418 18.3847 4.07225 18.6729 4.6377C18.8655 5.01581 18.9374 5.40888 18.9697 5.80371C19.0003 6.17785 19 6.63219 19 7.1582V16.7197C19 17.3705 19.0003 17.9081 18.9727 18.333C18.9451 18.7565 18.8846 19.1928 18.6934 19.583C18.1258 20.741 16.8824 21.4064 15.6045 21.2363C15.1741 21.1791 14.7781 20.9874 14.4102 20.7754C14.039 20.5616 13.5887 20.2613 13.043 19.8975L13.0225 19.8838C12.5271 19.5536 12.4223 19.4925 12.333 19.4609C12.1174 19.3847 11.8816 19.3847 11.666 19.4609C11.5771 19.4924 11.4731 19.5528 10.9795 19.8818L10.9482 19.9033C10.4065 20.2645 9.95879 20.5626 9.58985 20.7754C9.22223 20.9873 8.82616 21.179 8.39551 21.2363C7.11747 21.4064 5.87418 20.7409 5.30664 19.583C5.11542 19.1928 5.05489 18.7565 5.02735 18.333C4.99974 17.9081 4.99999 17.3706 5 16.7197V7.16211C4.99998 6.63494 4.99967 6.17935 5.03028 5.80469C5.06258 5.40941 5.13437 5.01605 5.32715 4.6377C5.61475 4.07333 6.07333 3.61475 6.6377 3.32715C7.01605 3.13437 7.40941 3.06258 7.80469 3.03028C8.17935 2.99967 8.63494 2.99998 9.16211 3H14.8389Z" fill="#121212"/>
</svg>
