<svg width="24" height="24" viewBox="0 0 24 24" fill="none" xmlns="http://www.w3.org/2000/svg">
<path fill-rule="evenodd" clip-rule="evenodd" d="M11.4999 2C10.9477 2 10.4999 2.44772 10.4999 3V3.95029C7.65959 4.44229 5.48022 6.92875 5.48022 9.91052V12.0368C5.48022 12.9632 5.16444 13.8684 4.57496 14.5842L3.64865 15.721C3.16444 16.3105 3.05917 17.1316 3.39601 17.8263C3.73286 18.521 4.40654 18.9632 5.18549 18.9632H8.2609C8.5673 20.5288 9.82378 21.6936 11.338 21.6936C12.8553 21.6936 14.1077 20.5137 14.4146 18.9632H17.9013C18.6802 18.9632 19.3539 18.521 19.6908 17.8263C19.9855 17.1316 19.9013 16.3316 19.4171 15.721L18.4697 14.5842C17.8802 13.8684 17.5644 12.9632 17.5644 12.0368V9.91052C17.5644 6.9131 15.3621 4.4162 12.4999 3.94271V3C12.4999 2.44772 12.0522 2 11.4999 2ZM15.5644 12.0368C15.5644 13.4141 16.0334 14.7719 16.9258 15.8556L17.8487 16.9632H5.21642L6.12249 15.8512C7.01258 14.7682 7.48022 13.4122 7.48022 12.0368V9.91052C7.48022 7.89989 8.97199 6.21356 10.9045 5.91052H12.1402C14.0727 6.21356 15.5644 7.89989 15.5644 9.91052V12.0368ZM12.4888 18.9632H10.184C10.4134 19.4017 10.8423 19.6936 11.338 19.6936C11.8289 19.6936 12.2578 19.3987 12.4888 18.9632Z" fill="#121212"/>
</svg>
