<svg width="24" height="24" viewBox="0 0 24 24" fill="none" xmlns="http://www.w3.org/2000/svg">
<path fill-rule="evenodd" clip-rule="evenodd" d="M12.3675 2.0127C14.8059 2.13711 17.1201 3.16098 18.8548 4.89551C20.5902 6.63107 21.614 8.946 21.7376 11.3857L21.7503 11.875C21.7503 13.8279 21.1711 15.7375 20.0862 17.3613C19.0012 18.985 17.4569 20.2507 15.6526 20.998C13.8486 21.745 11.8626 21.9405 9.94756 21.5596C8.03248 21.1784 6.2726 20.2381 4.89189 18.8574C3.5112 17.4766 2.57078 15.717 2.18975 13.8018C1.80881 11.8866 2.00418 9.90082 2.75127 8.09668C3.4986 6.29245 4.76532 4.7491 6.38896 3.66406C8.01169 2.57994 9.91989 2.00077 11.8714 2L12.3675 2.0127ZM13.8997 9.60254C10.5474 9.62192 7.27866 10.6239 4.49639 12.4766L3.94658 12.8584C3.8712 12.9136 3.83204 13.0068 3.846 13.0986C4.10988 14.8097 4.91282 16.3938 6.13701 17.6182C7.36117 18.8421 8.94481 19.6442 10.6556 19.9082L10.7249 19.9092C10.7923 19.9005 10.8541 19.864 10.8948 19.8086L10.8958 19.8076C12.9924 16.9108 14.1311 13.4304 14.1517 9.85449C14.152 9.78768 14.1252 9.72378 14.0784 9.67676L14.0394 9.64453C13.9985 9.61761 13.9495 9.60228 13.8997 9.60254ZM15.9935 11.3652C15.9218 11.3848 15.8592 11.4355 15.8284 11.5068C15.8248 11.5152 15.8216 11.5243 15.8196 11.5332L15.8128 11.5635C15.8114 11.5695 15.8105 11.5759 15.8099 11.582C15.5407 14.3642 14.6563 17.0516 13.2229 19.4512C13.1981 19.4855 13.1799 19.5273 13.1751 19.5732V19.6221C13.1884 19.7495 13.2971 19.8461 13.4241 19.8467H13.43C13.4425 19.8466 13.4536 19.8436 13.4622 19.8418C13.4658 19.8413 13.4703 19.8424 13.4739 19.8418C15.5708 19.419 17.4182 18.1876 18.6155 16.415C18.6578 16.3523 18.6703 16.2719 18.6468 16.1982C18.1032 14.5049 17.2979 12.9065 16.262 11.4609L16.2083 11.4062C16.168 11.3763 16.1196 11.3586 16.0696 11.3564L15.9935 11.3652ZM17.8704 10.0557C17.7955 10.0617 17.7253 10.1013 17.6819 10.166C17.6247 10.2523 17.626 10.366 17.6858 10.4502C18.3426 11.3684 18.9165 12.3441 19.3997 13.3643C19.4459 13.461 19.5505 13.5188 19.6585 13.5049C19.7676 13.4901 19.8524 13.4056 19.8714 13.3008C19.9346 12.9479 19.9753 12.5913 19.9915 12.2334V12.2295L19.9993 11.8779V11.875C19.9986 11.6053 19.9853 11.335 19.9583 11.0664L19.9261 10.7988L19.9075 10.7314C19.8797 10.6685 19.8268 10.6188 19.762 10.5957C19.1677 10.3837 18.561 10.2045 17.9466 10.0605L17.8704 10.0557ZM7.43877 5.09863L7.40557 5.10742L7.36357 5.12402L7.33428 5.13965C5.6738 6.26104 4.48835 7.95261 3.99736 9.88574L3.9085 10.2764C3.88953 10.372 3.92772 10.4718 4.0081 10.5293C4.08981 10.587 4.19818 10.5893 4.28154 10.54L4.73564 10.2764C7.02211 8.99234 9.55342 8.19731 12.1673 7.94434C12.2706 7.93435 12.3567 7.861 12.3841 7.76074C12.4109 7.66099 12.3746 7.55337 12.2894 7.49219C11.0245 6.58576 9.64205 5.85649 8.18193 5.32422L7.55107 5.1084L7.49639 5.09668C7.47767 5.09505 7.45793 5.09585 7.43877 5.09863ZM15.639 4.67773C15.5526 4.63285 15.4462 4.64109 15.3685 4.70215L15.3675 4.70312C15.292 4.76371 15.2561 4.86483 15.2806 4.96094L15.2815 4.96191C15.5191 5.873 15.6881 6.80113 15.7874 7.7373C15.7999 7.85461 15.8939 7.94712 16.0101 7.95996L16.7103 8.04688C17.409 8.14764 18.1021 8.28865 18.7854 8.4668C18.8819 8.49153 18.9837 8.45546 19.0442 8.37988L19.0452 8.37891C19.1061 8.30129 19.1152 8.19533 19.0696 8.1084C18.2997 6.64448 17.1029 5.44766 15.639 4.67773ZM12.639 3.78711C11.9089 3.71658 11.1713 3.74708 10.4485 3.87793C10.3708 3.89241 10.3028 3.94311 10.2679 4.01367L10.2444 4.09082C10.2302 4.19944 10.2893 4.30251 10.3851 4.34863C11.4051 4.83176 12.381 5.40679 13.2991 6.06348C13.3835 6.12379 13.4971 6.12531 13.5833 6.06836C13.6696 6.01053 13.7125 5.90421 13.6888 5.80273C13.5807 5.34172 13.4525 4.88559 13.306 4.43555L13.1536 3.9873L13.1224 3.92773C13.1094 3.90906 13.0941 3.89096 13.0755 3.87598L13.0384 3.85449L12.9886 3.83398C12.976 3.82884 12.962 3.82483 12.9485 3.82324L12.6419 3.78711H12.639Z" fill="#121212"/>
</svg>
