<svg width="24" height="24" viewBox="0 0 24 24" fill="none" xmlns="http://www.w3.org/2000/svg">
<path d="M12.1914 2.41211C12.4462 2.06182 12.8977 1.91488 13.3096 2.04883C13.7213 2.18285 14 2.56695 14 3V9H19C19.3761 9 19.7209 9.21077 19.8916 9.5459C20.0623 9.88103 20.0297 10.2837 19.8086 10.5879L11.8086 21.5879C11.5538 21.9382 11.1023 22.0851 10.6904 21.9512C10.2787 21.8172 10 21.4331 10 21V15H5C4.6239 15 4.27908 14.7892 4.1084 14.4541C3.93774 14.119 3.97025 13.7163 4.1914 13.4121L12.1914 2.41211ZM6.96387 13H11C11.5523 13 12 13.4477 12 14V17.9248L17.0361 11H13C12.4477 11 12 10.5523 12 10V6.07422L6.96387 13Z" fill="#121212"/>
</svg>
