<svg width="24" height="24" viewBox="0 0 24 24" fill="none" xmlns="http://www.w3.org/2000/svg">
<path fill-rule="evenodd" clip-rule="evenodd" d="M7.28668 2H10.9638C11.4909 1.99998 11.9455 1.99997 12.3199 2.03058C12.7152 2.06289 13.1081 2.13424 13.4864 2.32698C14.0498 2.61405 14.5101 3.07224 14.7982 3.63781C14.9909 4.016 15.0622 4.40906 15.0945 4.80397C15.125 5.17815 15.125 5.6323 15.125 6.15839V8.17272C15.4025 8.07899 15.6825 8.04045 15.9624 8.02135C16.2756 7.99998 16.6541 7.99999 17.0928 8H17.1567C17.5954 7.99999 17.974 7.99998 18.2874 8.02135C18.6172 8.04385 18.9473 8.09333 19.2733 8.22836C20.0089 8.53307 20.5923 9.11763 20.8965 9.85218C21.0315 10.178 21.0811 10.5078 21.1036 10.8376C21.125 11.1512 21.125 11.5301 21.125 11.9695V19H22.125C22.6773 19 23.125 19.4477 23.125 20C23.125 20.5523 22.6773 21 22.125 21H2.125C1.57272 21 1.125 20.5523 1.125 20C1.125 19.4477 1.57272 19 2.125 19H3.125L3.125 6.16168C3.12498 5.63451 3.12497 5.17965 3.15557 4.80499C3.18786 4.40962 3.25916 4.01625 3.45198 3.63781C3.7396 3.07332 4.19832 2.6146 4.76281 2.32698C5.14124 2.13416 5.53462 2.06286 5.92998 2.03057C6.30465 1.99997 6.7595 1.99998 7.28668 2ZM5.125 19H13.125V11.968C13.125 11.9498 13.125 11.9316 13.125 11.9135V6.19691C13.125 5.62146 13.1242 5.2498 13.1011 4.96686C13.0789 4.69554 13.0413 4.59501 13.0162 4.54579C12.9209 4.35871 12.7676 4.20542 12.5784 4.109C12.5288 4.08375 12.4282 4.04611 12.1569 4.02393C11.8738 4.00078 11.5018 4 10.9252 4H7.3252C6.74865 4 6.37626 4.00078 6.0928 4.02393C5.82095 4.04614 5.72017 4.08383 5.67079 4.109C5.48263 4.20487 5.32987 4.35763 5.23399 4.54579C5.20883 4.59517 5.17113 4.69595 5.14893 4.9678C5.12578 5.25126 5.125 5.62365 5.125 6.2002V19ZM15.125 12V19H19.125V12C19.125 11.5204 19.1244 11.2109 19.1082 10.974C19.0927 10.7461 19.0661 10.6593 19.0488 10.6175C18.9471 10.372 18.7524 10.1774 18.5079 10.0761C18.4664 10.0589 18.3795 10.0323 18.1513 10.0167C17.9141 10.0005 17.6044 10 17.1247 10C16.6451 10 16.3355 10.0005 16.0985 10.0167C15.8705 10.0323 15.7837 10.0589 15.7421 10.0761C15.4975 10.1774 15.3028 10.3721 15.2011 10.6175C15.1839 10.6592 15.1573 10.746 15.1417 10.9739C15.1255 11.2108 15.125 11.5204 15.125 12ZM6.125 7C6.125 6.44772 6.57272 6 7.125 6H11.125C11.6773 6 12.125 6.44772 12.125 7C12.125 7.55229 11.6773 8 11.125 8H7.125C6.57272 8 6.125 7.55229 6.125 7ZM6.125 10C6.125 9.44772 6.57272 9 7.125 9H11.125C11.6773 9 12.125 9.44772 12.125 10C12.125 10.5523 11.6773 11 11.125 11H7.125C6.57272 11 6.125 10.5523 6.125 10Z" fill="#121212"/>
</svg>
