<svg width="24" height="24" viewBox="0 0 24 24" fill="none" xmlns="http://www.w3.org/2000/svg">
<path fill-rule="evenodd" clip-rule="evenodd" d="M18.3757 4.01031C18.259 4.00078 18.0966 4.00001 17.8001 4.00001H8.6001C8.02356 4.00001 7.65116 4.00078 7.3677 4.02393C7.09585 4.04614 6.99508 4.08384 6.94569 4.109C6.75753 4.20487 6.60477 4.35763 6.5089 4.54579C6.48373 4.59518 6.44604 4.69595 6.42383 4.9678C6.40068 5.25126 6.3999 5.62366 6.3999 6.2002V17.2491C6.7847 17.0886 7.20695 17 7.6499 17H17.8019C18.0979 17 18.2599 16.9992 18.3764 16.9897C18.3805 16.9894 18.3845 16.989 18.3882 16.9887C18.3886 16.9843 18.3891 16.9796 18.3895 16.9747C18.399 16.8584 18.3999 16.6963 18.3999 16.4001V4.6001C18.3999 4.30394 18.399 4.14159 18.3895 4.02517C18.3891 4.02031 18.3887 4.01572 18.3882 4.0114C18.3843 4.01103 18.3801 4.01067 18.3757 4.01031ZM17.3999 19H7.6499C7.04516 19 6.54073 19.4294 6.42491 20H16.8019C17.0979 20 17.2599 19.9992 17.3764 19.9897C17.3805 19.9894 17.3845 19.989 17.3882 19.9887C17.3886 19.9843 17.3891 19.9796 17.3895 19.9747C17.399 19.8584 17.3999 19.6962 17.3999 19.4V19ZM4.43567 19.7662C4.41236 19.6815 4.3999 19.5923 4.3999 19.5002L4.3999 6.16168C4.39989 5.63451 4.39987 5.17965 4.43047 4.80499C4.46276 4.40962 4.53406 4.01625 4.72688 3.63781C5.0145 3.07333 5.47322 2.61461 6.03771 2.32699C6.41615 2.13416 6.80952 2.06287 7.20489 2.03057C7.57955 1.99997 8.03441 1.99999 8.56158 2L17.832 2C18.0844 1.99997 18.3302 1.99994 18.5385 2.01695C18.767 2.03561 19.0369 2.07964 19.3085 2.21799C19.6866 2.41066 19.9907 2.71741 20.1815 3.09191C20.3197 3.36299 20.3639 3.63247 20.3827 3.86123C20.4 4.0707 20.3999 4.31793 20.3999 4.57199V16.4283C20.3999 16.6823 20.4 16.9294 20.3827 17.1388C20.3639 17.3676 20.3196 17.6368 20.1815 17.9077C20.007 18.2503 19.7369 18.5381 19.3999 18.7326L19.3999 19.4282C19.3999 19.6822 19.4 19.9293 19.3827 20.1387C19.3639 20.3675 19.3196 20.6368 19.1815 20.9078C18.9914 21.281 18.6881 21.5888 18.3087 21.7821C18.0373 21.9204 17.7675 21.9644 17.5392 21.9831C17.3312 22.0001 17.0857 22 16.8338 22L6.1499 22C5.18341 22 4.3999 21.2165 4.3999 20.25C4.3999 20.0856 4.41211 19.924 4.43567 19.7662Z" fill="#121212"/>
</svg>
