<svg width="24" height="24" viewBox="0 0 24 24" fill="none" xmlns="http://www.w3.org/2000/svg">
<path fill-rule="evenodd" clip-rule="evenodd" d="M5.79289 6.29289C6.18342 5.90237 6.81658 5.90237 7.20711 6.29289L11.5 10.5858L15.7929 6.29289C16.1835 5.90237 16.8166 5.90237 17.2071 6.29289C17.5977 6.68342 17.5977 7.31658 17.2071 7.70711L12.9142 12L17.2071 16.2929C17.5976 16.6834 17.5976 17.3165 17.2071 17.7071C16.8165 18.0976 16.1834 18.0976 15.7929 17.7071L11.5 13.4142L7.20711 17.7071C6.81658 18.0977 6.18342 18.0977 5.79289 17.7071C5.40237 17.3166 5.40237 16.6835 5.79289 16.2929L10.0858 12L5.79289 7.70711C5.40237 7.31658 5.40237 6.68342 5.79289 6.29289Z" fill="#121212"/>
</svg>
