<svg width="24" height="24" viewBox="0 0 24 24" fill="none" xmlns="http://www.w3.org/2000/svg">
<path fill-rule="evenodd" clip-rule="evenodd" d="M8 2C8.55229 2 9 2.44772 9 3V4H15V3C15 2.44772 15.4477 2 16 2C16.5523 2 17 2.44772 17 3V4.00003C17.4591 4.00031 17.8592 4.00313 18.1949 4.03057C18.5902 4.06289 18.9831 4.13424 19.3614 4.32698C19.9248 4.61405 20.3851 5.07224 20.6732 5.63781C20.8659 6.016 20.9372 6.40906 20.9695 6.80396C21 7.17815 21 7.6323 21 8.15839V17.8421C21 18.3682 21 18.8221 20.9695 19.1962C20.9372 19.591 20.8659 19.9838 20.6732 20.3619C20.3854 20.9269 19.9254 21.3859 19.3614 21.6732C18.9833 21.8659 18.5905 21.9372 18.1957 21.9695C17.8217 22 17.3677 22 16.8416 22H7.15839C6.6323 22 6.17815 22 5.80397 21.9695C5.40906 21.9372 5.016 21.8659 4.63781 21.6732C4.07276 21.3853 3.61431 20.9258 3.32698 20.3619C3.13421 19.9835 3.06288 19.5904 3.03057 19.1951C2.99997 18.8206 2.99998 18.3659 3 17.8388V8.16168C2.99998 7.6345 2.99997 7.17965 3.03057 6.80498C3.06286 6.40962 3.13416 6.01624 3.32698 5.63781C3.6146 5.07332 4.07332 4.6146 4.63781 4.32698C5.01625 4.13416 5.40962 4.06286 5.80499 4.03057C6.14079 4.00314 6.54102 4.00031 7 4.00003V3C7 2.44772 7.44772 2 8 2ZM5.9678 6.02393C5.69595 6.04613 5.59517 6.08383 5.54579 6.10899C5.35763 6.20487 5.20487 6.35763 5.109 6.54579C5.08383 6.59517 5.04614 6.69595 5.02393 6.9678C5.00358 7.21702 5.00052 7.53498 5.00007 8H18.9999C18.9995 7.53429 18.9965 7.21614 18.9761 6.96686C18.9539 6.69554 18.9163 6.595 18.8912 6.54579C18.7959 6.35871 18.6427 6.20542 18.4534 6.10899C18.4039 6.08374 18.3032 6.0461 18.0319 6.02392C17.7488 6.00078 17.3768 6 16.8002 6H7.2002C6.62365 6 6.25126 6.00078 5.9678 6.02393ZM19 10H5V17.8002C5 18.3768 5.00078 18.7489 5.02393 19.0322C5.04612 19.3037 5.08378 19.4044 5.109 19.4539C5.20516 19.6426 5.35819 19.7956 5.54579 19.8912C5.595 19.9163 5.69554 19.9539 5.96686 19.9761C6.2498 19.9992 6.62146 20 7.19691 20H16.8031C17.3786 20 17.75 19.9992 18.0327 19.9761C18.3036 19.9539 18.4041 19.9164 18.4534 19.8912C18.6421 19.7951 18.7956 19.6415 18.8912 19.4539C18.9164 19.4046 18.954 19.3041 18.9761 19.0332C18.9992 18.7505 19 18.379 19 17.8036V10Z" fill="#121212"/>
<path d="M10.9689 18.5701C11.0016 17.9938 11.0539 17.4645 11.1258 16.9821C11.2042 16.4936 11.312 16.03 11.4493 15.5915C11.5866 15.1531 11.7696 14.7209 11.9983 14.2949C12.2271 13.8689 12.5114 13.4273 12.8513 12.9701H9.714V11.5701H14.714V12.5942C14.2957 13.0703 13.9591 13.5244 13.7042 13.9566C13.4558 14.3889 13.2663 14.8305 13.1356 15.2815C13.0049 15.7262 12.9101 16.2148 12.8513 16.7473C12.799 17.2797 12.7565 17.8873 12.7238 18.5701H10.9689Z" fill="#121212"/>
</svg>
