<svg width="24" height="24" viewBox="0 0 24 24" fill="none" xmlns="http://www.w3.org/2000/svg">
<path d="M13 16C13 15.6363 12.9591 15.2814 12.8857 14.9404C12.5934 14.9777 12.2979 15 12 15C10.1435 15 8.36256 14.2629 7.0498 12.9502C6.60106 12.5014 6.22189 11.9965 5.91406 11.4541C4.19859 12.2447 3 13.9904 3 16C3 18.7577 5.24228 21 8 21H8.00195C9.2313 21.0028 10.418 20.5462 11.3281 19.7197L11.3369 19.7119C12.3592 18.8059 13 17.4753 13 16ZM15 16C15 17.6285 14.4388 19.134 13.4971 20.3232C14.2505 20.7643 15.1128 21.002 15.998 21H16C18.7577 21 21 18.7577 21 16C21 13.9901 19.8009 12.2445 18.085 11.4541C17.7772 11.9964 17.3988 12.5016 16.9502 12.9502C16.3299 13.5705 15.6033 14.059 14.8154 14.4053C14.9349 14.9183 15 15.453 15 16ZM17 8C17 6.67392 16.4728 5.40253 15.5352 4.46484C14.5975 3.52716 13.3261 3 12 3C10.6739 3 9.40253 3.52716 8.46484 4.46484C7.52716 5.40253 7 6.67392 7 8L7.00586 8.24805C7.06719 9.48382 7.58579 10.6561 8.46484 11.5352C9.40253 12.4728 10.6739 13 12 13C13.3261 13 14.5975 12.4728 15.5352 11.5352C16.4728 10.5975 17 9.32608 17 8ZM19 8C19 8.5401 18.9353 9.07323 18.8145 9.59082C21.2738 10.6742 23 13.1417 23 16C23 19.862 19.8628 22.9985 16.001 22.999L16.002 23C14.5623 23.0032 13.166 22.5567 12 21.7363C10.8345 22.5563 9.43894 23.0018 8 22.999V23L7.99902 22.999L7.99805 23V22.999C4.13666 22.998 1 19.8616 1 16C1 13.1421 2.72564 10.6744 5.18457 9.59082C5.08969 9.18436 5.02968 8.7683 5.00879 8.34668L5 8C5 6.14348 5.73705 4.36256 7.0498 3.0498C8.36256 1.73705 10.1435 1 12 1C13.8565 1 15.6374 1.73705 16.9502 3.0498C18.263 4.36256 19 6.14349 19 8Z" fill="#121212"/>
</svg>
