<svg width="24" height="24" viewBox="0 0 24 24" fill="none" xmlns="http://www.w3.org/2000/svg">
<path fill-rule="evenodd" clip-rule="evenodd" d="M5.0259 8.07885C6.39648 5.64592 9.00491 4 12 4C15.7488 4 18.8946 6.57775 19.7629 10.0578C22.1622 10.4251 24 12.498 24 15C24 17.7614 21.7614 20 19 20L6 20.0001C2.68623 20.0001 0 17.3135 0 13.9999C0 11.0177 2.17535 8.54471 5.0259 8.07885ZM12 6C9.60445 6 7.53513 7.40388 6.57294 9.43836C6.41768 9.76665 6.09664 9.98496 5.73426 10.0087C3.64955 10.1451 2 11.8804 2 13.9999C2 16.209 3.79092 18.0001 6 18.0001L19 18C20.6569 18 22 16.6569 22 15C22 13.3431 20.6569 12 19 12C18.9824 12 18.9651 12.0002 18.947 12.0005C18.4429 12.0092 18.0111 11.6413 17.9398 11.1421C17.5242 8.23521 15.0221 6 12 6ZM15.7071 10.2929C16.0976 10.6834 16.0976 11.3166 15.7071 11.7071L11.7071 15.7071C11.3166 16.0976 10.6834 16.0976 10.2929 15.7071L8.29289 13.7071C7.90237 13.3166 7.90237 12.6834 8.29289 12.2929C8.68342 11.9024 9.31658 11.9024 9.70711 12.2929L11 13.5858L14.2929 10.2929C14.6834 9.90237 15.3166 9.90237 15.7071 10.2929Z" fill="#121212"/>
</svg>
