<svg width="24" height="24" viewBox="0 0 24 24" fill="none" xmlns="http://www.w3.org/2000/svg">
<path fill-rule="evenodd" clip-rule="evenodd" d="M8 1C8.55229 1 9 1.44772 9 2V3H15V2C15 1.44772 15.4477 1 16 1C16.5523 1 17 1.44772 17 2V3.00003C17.4591 3.00031 17.8592 3.00313 18.1949 3.03057C18.5902 3.06289 18.9831 3.13424 19.3614 3.32698C19.9248 3.61405 20.3851 4.07224 20.6732 4.63781C20.8659 5.016 20.9372 5.40906 20.9695 5.80396C21 6.17815 21 6.6323 21 7.15839V16.8421C21 17.3682 21 17.8221 20.9695 18.1962C20.9372 18.591 20.8659 18.9838 20.6732 19.3619C20.3854 19.9269 19.9254 20.3859 19.3614 20.6732C18.9833 20.8659 18.5905 20.9372 18.1957 20.9695C17.8217 21 17.3677 21 16.8416 21H7.15839C6.6323 21 6.17815 21 5.80397 20.9695C5.40906 20.9372 5.016 20.8659 4.63781 20.6732C4.07276 20.3853 3.61431 19.9258 3.32698 19.3619C3.13421 18.9835 3.06288 18.5904 3.03057 18.1951C2.99997 17.8206 2.99998 17.3659 3 16.8388V7.16168C2.99998 6.6345 2.99997 6.17965 3.03057 5.80498C3.06286 5.40962 3.13416 5.01624 3.32698 4.63781C3.6146 4.07332 4.07332 3.6146 4.63781 3.32698C5.01625 3.13416 5.40962 3.06286 5.80499 3.03057C6.14079 3.00314 6.54102 3.00031 7 3.00003V2C7 1.44772 7.44772 1 8 1ZM5.9678 5.02393C5.69595 5.04613 5.59517 5.08383 5.54579 5.10899C5.35763 5.20487 5.20487 5.35763 5.109 5.54579C5.08383 5.59517 5.04614 5.69595 5.02393 5.9678C5.00358 6.21702 5.00052 6.53498 5.00007 7H18.9999C18.9995 6.53429 18.9965 6.21614 18.9761 5.96686C18.9539 5.69554 18.9163 5.595 18.8912 5.54579C18.7959 5.35871 18.6427 5.20542 18.4534 5.10899C18.4039 5.08374 18.3032 5.0461 18.0319 5.02392C17.7488 5.00078 17.3768 5 16.8002 5H7.2002C6.62365 5 6.25126 5.00078 5.9678 5.02393ZM19 9H5V16.8002C5 17.3768 5.00078 17.7489 5.02393 18.0322C5.04612 18.3037 5.08378 18.4044 5.109 18.4539C5.20516 18.6426 5.35819 18.7956 5.54579 18.8912C5.595 18.9163 5.69554 18.9539 5.96686 18.9761C6.2498 18.9992 6.62146 19 7.19691 19H16.8031C17.3786 19 17.75 18.9992 18.0327 18.9761C18.3036 18.9539 18.4041 18.9164 18.4534 18.8912C18.6421 18.7951 18.7956 18.6415 18.8912 18.4539C18.9164 18.4046 18.954 18.3041 18.9761 18.0332C18.9992 17.7505 19 17.379 19 16.8036V9ZM7 12C7 11.4477 7.44772 11 8 11H8.002C8.27127 11 8.52916 11.1086 8.71732 11.3012C8.90548 11.4938 9.00802 11.7542 9.00173 12.0234L9.00168 12.0254C8.99548 12.2906 8.88414 12.5425 8.69215 12.7256C8.50016 12.9087 8.24327 13.0081 7.97804 13.0017L7.97608 13.0017C7.43327 12.9887 7 12.5449 7 12.002V12ZM11 12C11 11.4477 11.4477 11 12 11H12.002C12.2713 11 12.5292 11.1086 12.7173 11.3012C12.9055 11.4938 13.008 11.7542 13.0017 12.0234L13.0017 12.0254C12.9955 12.2906 12.8841 12.5425 12.6921 12.7256C12.5002 12.9087 12.2433 13.0081 11.978 13.0017L11.9761 13.0017C11.4333 12.9887 11 12.5449 11 12.002V12ZM15 12C15 11.4477 15.4477 11 16 11H16.002C16.5542 11 17.002 11.4477 17.002 12V12.002C17.002 12.2714 16.8933 12.5293 16.7006 12.7175C16.5078 12.9057 16.2473 13.0082 15.978 13.0017L15.9761 13.0017C15.4333 12.9887 15 12.5449 15 12.002V12ZM7 16C7 15.4477 7.44772 15 8 15H8.002C8.27127 15 8.52916 15.1086 8.71732 15.3012C8.90548 15.4938 9.00802 15.7542 9.00173 16.0234L9.00168 16.0254C8.99548 16.2906 8.88414 16.5425 8.69215 16.7256C8.50016 16.9087 8.24327 17.0081 7.97804 17.0017L7.97608 17.0017C7.43327 16.9887 7 16.5449 7 16.002V16ZM11 16C11 15.4477 11.4477 15 12 15H12.002C12.2713 15 12.5292 15.1086 12.7173 15.3012C12.9055 15.4938 13.008 15.7542 13.0017 16.0234L13.0017 16.0254C12.9955 16.2906 12.8841 16.5425 12.6921 16.7256C12.5002 16.9087 12.2433 17.0081 11.978 17.0017L11.9761 17.0017C11.4333 16.9887 11 16.5449 11 16.002V16ZM15 16C15 15.4477 15.4477 15 16 15H16.002C16.2713 15 16.5292 15.1086 16.7173 15.3012C16.9055 15.4938 17.008 15.7542 17.0017 16.0234L17.0017 16.0254C16.9955 16.2906 16.8841 16.5425 16.6921 16.7256C16.5002 16.9087 16.2433 17.0081 15.978 17.0017L15.9761 17.0017C15.4333 16.9887 15 16.5449 15 16.002V16Z" fill="#121212"/>
</svg>
