<svg width="24" height="24" viewBox="0 0 24 24" fill="none" xmlns="http://www.w3.org/2000/svg">
<path d="M16.4004 3.01416C16.8585 3.01425 17.3005 3.17163 17.6543 3.45654L17.7998 3.58545L17.8076 3.59326L17.8066 3.59424L20.4141 6.19971C20.7805 6.57357 20.9863 7.07659 20.9863 7.6001C20.9863 8.12357 20.7805 8.62665 20.4141 9.00049L17.4141 11.9995L17.707 12.2925C18.0976 12.683 18.0976 13.317 17.707 13.7075C17.3166 14.0977 16.6834 14.0977 16.293 13.7075L16 13.4146L8.70703 20.7075C8.51952 20.8949 8.26511 21.0005 8 21.0005H4C3.44787 21.0005 3.00025 20.5526 3 20.0005V16.0005L3.00488 15.9009C3.02767 15.6721 3.12895 15.4565 3.29297 15.2925L10.585 7.99951L10.293 7.70752C9.90244 7.317 9.90244 6.683 10.293 6.29248C10.6834 5.90229 11.3166 5.90229 11.707 6.29248L12 6.58545L14.9932 3.59326L15 3.58545C15.3738 3.21913 15.877 3.01416 16.4004 3.01416ZM5 16.4146V19.0005H7.58496L14.585 11.9995L12 9.41455L5 16.4146ZM13.4141 7.99951L16 10.5854L18.9854 7.6001L16.3994 5.01416L13.4141 7.99951Z" fill="#121212"/>
</svg>
