<svg width="24" height="24" viewBox="0 0 24 24" fill="none" xmlns="http://www.w3.org/2000/svg">
<path fill-rule="evenodd" clip-rule="evenodd" d="M8 2C8.55229 2 9 2.44772 9 3V4H15V3C15 2.44772 15.4477 2 16 2C16.5523 2 17 2.44772 17 3V4.00003C17.4591 4.00031 17.8592 4.00313 18.1949 4.03057C18.5902 4.06289 18.9831 4.13424 19.3614 4.32698C19.9248 4.61405 20.3851 5.07224 20.6732 5.63781C20.8659 6.016 20.9372 6.40906 20.9695 6.80396C21 7.17815 21 7.6323 21 8.15839V17.8421C21 18.3682 21 18.8221 20.9695 19.1962C20.9372 19.591 20.8659 19.9838 20.6732 20.3619C20.3854 20.9269 19.9254 21.3859 19.3614 21.6732C18.9833 21.8659 18.5905 21.9372 18.1957 21.9695C17.8217 22 17.3677 22 16.8416 22H7.15839C6.6323 22 6.17815 22 5.80397 21.9695C5.40906 21.9372 5.016 21.8659 4.63781 21.6732C4.07276 21.3853 3.61431 20.9258 3.32698 20.3619C3.13421 19.9835 3.06288 19.5904 3.03057 19.1951C2.99997 18.8206 2.99998 18.3659 3 17.8388V8.16168C2.99998 7.6345 2.99997 7.17965 3.03057 6.80498C3.06286 6.40962 3.13416 6.01624 3.32698 5.63781C3.6146 5.07332 4.07332 4.6146 4.63781 4.32698C5.01625 4.13416 5.40962 4.06286 5.80499 4.03057C6.14079 4.00314 6.54102 4.00031 7 4.00003V3C7 2.44772 7.44772 2 8 2ZM5.9678 6.02393C5.69595 6.04613 5.59517 6.08383 5.54579 6.10899C5.35763 6.20487 5.20487 6.35763 5.109 6.54579C5.08383 6.59517 5.04614 6.69595 5.02393 6.9678C5.00358 7.21702 5.00052 7.53498 5.00007 8H18.9999C18.9995 7.53429 18.9965 7.21614 18.9761 6.96686C18.9539 6.69554 18.9163 6.595 18.8912 6.54579C18.7959 6.35871 18.6427 6.20542 18.4534 6.10899C18.4039 6.08374 18.3032 6.0461 18.0319 6.02392C17.7488 6.00078 17.3768 6 16.8002 6H7.2002C6.62365 6 6.25126 6.00078 5.9678 6.02393ZM19 10H5V17.8002C5 18.3768 5.00078 18.7489 5.02393 19.0322C5.04612 19.3037 5.08378 19.4044 5.109 19.4539C5.20516 19.6426 5.35819 19.7956 5.54579 19.8912C5.595 19.9163 5.69554 19.9539 5.96686 19.9761C6.2498 19.9992 6.62146 20 7.19691 20H16.8031C17.3786 20 17.75 19.9992 18.0327 19.9761C18.3036 19.9539 18.4041 19.9164 18.4534 19.8912C18.6421 19.7951 18.7956 19.6415 18.8912 19.4539C18.9164 19.4046 18.954 19.3041 18.9761 19.0332C18.9992 18.7505 19 18.379 19 17.8036V10Z" fill="#121212"/>
<path d="M14.8358 18.5C14.3643 18.5 13.9472 18.367 13.5845 18.101C13.2278 17.8351 12.9467 17.4391 12.7412 16.9132C12.5417 16.3873 12.442 15.7375 12.442 14.9637C12.442 14.19 12.5417 13.5462 12.7412 13.0324C12.9467 12.5186 13.2278 12.1347 13.5845 11.8808C13.9472 11.6269 14.3643 11.5 14.8358 11.5C15.3133 11.5 15.7304 11.63 16.0871 11.8899C16.4437 12.1438 16.7218 12.5276 16.9213 13.0415C17.1208 13.5492 17.2205 14.19 17.2205 14.9637C17.2205 15.7375 17.1208 16.3873 16.9213 16.9132C16.7218 17.4391 16.4437 17.8351 16.0871 18.101C15.7304 18.367 15.3133 18.5 14.8358 18.5ZM14.8358 17.2487C14.999 17.2487 15.1441 17.1883 15.271 17.0674C15.404 16.9404 15.5068 16.7137 15.5793 16.3873C15.6579 16.0548 15.6972 15.5803 15.6972 14.9637C15.6972 14.3472 15.6579 13.8787 15.5793 13.5583C15.5068 13.2379 15.404 13.0203 15.271 12.9054C15.1441 12.7906 14.999 12.7332 14.8358 12.7332C14.6786 12.7332 14.5335 12.7906 14.4005 12.9054C14.2676 13.0203 14.1618 13.2379 14.0832 13.5583C14.0046 13.8787 13.9653 14.3472 13.9653 14.9637C13.9653 15.5803 14.0046 16.0548 14.0832 16.3873C14.1618 16.7137 14.2676 16.9404 14.4005 17.0674C14.5335 17.1883 14.6786 17.2487 14.8358 17.2487Z" fill="#121212"/>
<path d="M9.31218 18.5C8.95553 18.5 8.63213 18.4607 8.34197 18.3821C8.05786 18.3035 7.80397 18.1947 7.58031 18.0557C7.35665 17.9106 7.16321 17.7444 7 17.557L7.74353 16.5415C7.94905 16.7288 8.16969 16.886 8.40544 17.013C8.64119 17.1339 8.88904 17.1943 9.14897 17.1943C9.36054 17.1943 9.54189 17.1671 9.69301 17.1127C9.85018 17.0522 9.97107 16.9646 10.0557 16.8497C10.1403 16.7349 10.1826 16.5928 10.1826 16.4236C10.1826 16.2301 10.1373 16.0639 10.0466 15.9249C9.95596 15.7858 9.7867 15.6801 9.53886 15.6075C9.29102 15.535 8.93135 15.4987 8.45985 15.4987V14.3562C8.84672 14.3562 9.14897 14.3199 9.36658 14.2474C9.5842 14.1749 9.73834 14.0721 9.82902 13.9391C9.92574 13.8061 9.9741 13.652 9.9741 13.4767C9.9741 13.247 9.9076 13.0717 9.77461 12.9508C9.64163 12.8238 9.45121 12.7604 9.20337 12.7604C8.97971 12.7604 8.77418 12.8087 8.58679 12.9054C8.3994 13.0022 8.20294 13.1412 7.99741 13.3225L7.18135 12.3342C7.49568 12.0682 7.82211 11.8627 8.16062 11.7176C8.50518 11.5725 8.87695 11.5 9.27591 11.5C9.74137 11.5 10.1464 11.5725 10.4909 11.7176C10.8415 11.8566 11.1105 12.0652 11.2979 12.3433C11.4914 12.6153 11.5881 12.9538 11.5881 13.3588C11.5881 13.6913 11.4974 13.9875 11.3161 14.2474C11.1347 14.5013 10.8657 14.7008 10.5091 14.8459V14.8912C10.7569 14.9637 10.9776 15.0756 11.171 15.2267C11.3705 15.3718 11.5246 15.5531 11.6334 15.7707C11.7483 15.9883 11.8057 16.2422 11.8057 16.5324C11.8057 16.9495 11.6909 17.3061 11.4611 17.6023C11.2314 17.8925 10.9262 18.1161 10.5453 18.2733C10.1706 18.4244 9.7595 18.5 9.31218 18.5Z" fill="#121212"/>
</svg>
