<svg width="24" height="24" viewBox="0 0 24 24" fill="none" xmlns="http://www.w3.org/2000/svg">
<path fill-rule="evenodd" clip-rule="evenodd" d="M4.29289 4.29289C4.68342 3.90237 5.31658 3.90237 5.70711 4.29289L21.7071 20.2929C22.0976 20.6834 22.0976 21.3166 21.7071 21.7071C21.3166 22.0976 20.6834 22.0976 20.2929 21.7071L18.5858 20H6C2.68629 20 0 17.3137 0 14C0 11.018 2.17487 8.54463 5.02556 8.07877C5.21996 7.73388 5.43918 7.4051 5.68054 7.09476L4.29289 5.70711C3.90237 5.31658 3.90237 4.68342 4.29289 4.29289ZM7.10947 8.52369C6.90451 8.8111 6.72444 9.11703 6.5725 9.43828C6.41724 9.76657 6.0962 9.98489 5.73382 10.0086C3.64929 10.145 2 11.8803 2 14C2 16.2091 3.79086 18 6 18H16.5858L7.10947 8.52369ZM12 6C11.4026 6 10.8274 6.08699 10.2852 6.24833C9.75591 6.40587 9.19909 6.10447 9.04155 5.57513C8.88401 5.04579 9.18541 4.48896 9.71475 4.33143C10.4401 4.11557 11.2074 4 12 4C15.7488 4 18.8941 6.57771 19.7623 10.0576C22.1625 10.4243 23.9995 12.4978 23.9995 15C23.9995 16.1808 23.5897 17.2692 22.9033 18.1255C22.5579 18.5564 21.9285 18.6257 21.4976 18.2802C21.0667 17.9348 20.9974 17.3054 21.3428 16.8745C21.7543 16.3612 21.9995 15.7111 21.9995 15C21.9995 13.3427 20.6574 12 19.001 12C18.983 12 18.9642 12.0002 18.9465 12.0005C18.4424 12.0092 18.0106 11.6413 17.9393 11.1421C17.5237 8.23512 15.022 6 12 6Z" fill="#121212"/>
</svg>
