<svg width="24" height="24" viewBox="0 0 24 24" fill="none" xmlns="http://www.w3.org/2000/svg">
<path fill-rule="evenodd" clip-rule="evenodd" d="M10.7676 3H13.6314C13.8838 2.99997 14.1297 2.99994 14.338 3.01694C14.5665 3.0356 14.8365 3.07961 15.1081 3.21799C15.4854 3.41024 15.7903 3.71658 15.9816 4.09191C16.1197 4.36299 16.164 4.63247 16.1828 4.86123C16.2 5.0707 16.2 5.31793 16.2 5.57199L16.2 7.00001L19.6318 7C19.8842 6.99997 20.1302 6.99994 20.3385 7.01694C20.567 7.03559 20.8371 7.07958 21.1087 7.21799C21.4873 7.41087 21.791 7.71783 21.9816 8.09191C22.1197 8.36299 22.164 8.63247 22.1828 8.86123C22.2 9.0707 22.2 9.31793 22.2 9.57199V20.0001C22.2 20.2653 22.0946 20.5197 21.9071 20.7072C21.7195 20.8948 21.4652 21.0001 21.1999 21.0001L3.19996 21C2.64767 21 2.19996 20.5523 2.19996 20L2.19995 12.5682C2.19992 12.3158 2.19989 12.07 2.2169 11.8618C2.23557 11.6332 2.27962 11.3634 2.41794 11.0919C2.60969 10.7156 2.91554 10.4097 3.29186 10.218C3.56321 10.0797 3.83281 10.0356 4.06144 10.017C4.26955 9.99994 4.51528 9.99997 4.76764 10C4.77827 10 4.78891 10 4.79957 10H8.19996V5.6001C8.19996 5.58946 8.19995 5.57884 8.19995 5.56822C8.19992 5.31582 8.19989 5.06999 8.2169 4.86179C8.23557 4.63323 8.27962 4.3634 8.41794 4.09191C8.60969 3.71559 8.91554 3.40974 9.29186 3.21799C9.56321 3.07973 9.83281 3.03564 10.0614 3.01695C10.2695 2.99994 10.5153 2.99997 10.7676 3ZM8.19996 12H4.79957C4.50303 12 4.34087 12.0008 4.22437 12.0103C4.21981 12.0107 4.21549 12.0111 4.21141 12.0114C4.21102 12.0156 4.21064 12.02 4.21026 12.0246C4.20073 12.1413 4.19996 12.3036 4.19996 12.6001V19H8.19996V12ZM10.2 19H14.2V5.6001C14.2 5.30394 14.1991 5.14159 14.1895 5.02517C14.1891 5.02033 14.1887 5.01575 14.1883 5.01144C14.1842 5.01106 14.1799 5.01069 14.1753 5.01031C14.0585 5.00078 13.8961 5.00001 13.5996 5.00001H10.7996C10.503 5.00001 10.3409 5.00078 10.2244 5.01031C10.2198 5.01068 10.2155 5.01105 10.2114 5.01143C10.211 5.01558 10.2106 5.01997 10.2103 5.02461C10.2007 5.14126 10.2 5.30359 10.2 5.6001V19ZM16.2 19L20.2 19.0001V9.6001C20.2 9.30394 20.1991 9.14159 20.1895 9.02517C20.1891 9.02031 20.1887 9.01572 20.1883 9.01139C20.1843 9.01103 20.1802 9.01067 20.1758 9.01032C20.059 9.00078 19.8964 9.00001 19.6 9.00001H16.2V19Z" fill="#121212"/>
</svg>
