<svg width="24" height="24" viewBox="0 0 24 24" fill="none" xmlns="http://www.w3.org/2000/svg">
<path d="M20 9.66699C20 9.44814 19.9568 9.23149 19.873 9.0293C19.7893 8.82705 19.6665 8.64308 19.5117 8.48828C19.3569 8.33349 19.173 8.21073 18.9707 8.12695C18.7685 8.04323 18.5519 8 18.333 8H9.66699C9.22488 8 8.8009 8.17566 8.48828 8.48828C8.17566 8.8009 8 9.22488 8 9.66699V18.333C8 18.5519 8.04323 18.7685 8.12695 18.9707C8.21073 19.173 8.33349 19.3569 8.48828 19.5117C8.64308 19.6665 8.82705 19.7893 9.0293 19.873C9.23149 19.9568 9.44814 20 9.66699 20H18.333C18.5519 20 18.7685 19.9568 18.9707 19.873C19.173 19.7893 19.3569 19.6665 19.5117 19.5117C19.6665 19.3569 19.7893 19.173 19.873 18.9707C19.9568 18.7685 20 18.5519 20 18.333V9.66699ZM2 5C2 3.34772 3.34772 2 5 2H15C15.5623 2 16.0628 2.14977 16.4902 2.45996C16.896 2.75447 17.1695 3.14597 17.374 3.51367C17.6424 3.99627 17.4688 4.60555 16.9863 4.87402C16.5037 5.1424 15.8945 4.96884 15.626 4.48633C15.4886 4.23925 15.3866 4.13082 15.3154 4.0791C15.2659 4.04314 15.1876 4 15 4H5C4.45228 4 4 4.45228 4 5V14.999L4.00879 15.1309C4.02624 15.2611 4.06913 15.3876 4.13574 15.502C4.22456 15.6543 4.35256 15.78 4.50586 15.8672C4.98605 16.14 5.15466 16.7513 4.88184 17.2314C4.60896 17.7115 3.99771 17.8792 3.51758 17.6064C3.05722 17.3448 2.67476 16.9653 2.4082 16.5078C2.14166 16.0502 2.00051 15.5305 2 15.001V5ZM16.293 11.293C16.6835 10.9024 17.3165 10.9024 17.707 11.293C18.0976 11.6835 18.0976 12.3165 17.707 12.707L13.707 16.707C13.3165 17.0976 12.6835 17.0976 12.293 16.707L10.293 14.707C9.90244 14.3165 9.90244 13.6835 10.293 13.293C10.6835 12.9024 11.3165 12.9024 11.707 13.293L13 14.5859L16.293 11.293ZM22 18.333C22 18.8146 21.905 19.2914 21.7207 19.7363C21.5364 20.1812 21.2663 20.5853 20.9258 20.9258C20.5853 21.2663 20.1812 21.5364 19.7363 21.7207C19.2914 21.905 18.8146 22 18.333 22H9.66699C9.18544 22 8.70857 21.905 8.26367 21.7207C7.8188 21.5364 7.41471 21.2663 7.07422 20.9258C6.73373 20.5853 6.46358 20.1812 6.2793 19.7363C6.09501 19.2914 6 18.8146 6 18.333V9.66699C6 8.69445 6.38652 7.76191 7.07422 7.07422C7.76191 6.38652 8.69445 6 9.66699 6H18.333C18.8146 6 19.2914 6.09501 19.7363 6.2793C20.1812 6.46358 20.5853 6.73373 20.9258 7.07422C21.2663 7.41471 21.5364 7.8188 21.7207 8.26367C21.905 8.70857 22 9.18544 22 9.66699V18.333Z" fill="#121212"/>
</svg>
