<svg width="24" height="24" viewBox="0 0 24 24" fill="none" xmlns="http://www.w3.org/2000/svg">
<path fill-rule="evenodd" clip-rule="evenodd" d="M11.5 4C7.08172 4 3.5 7.58172 3.5 12C3.5 16.4183 7.08172 20 11.5 20C15.9183 20 19.5 16.4183 19.5 12C19.5 7.58172 15.9183 4 11.5 4ZM1.5 12C1.5 6.47715 5.97715 2 11.5 2C17.0228 2 21.5 6.47715 21.5 12C21.5 17.5228 17.0228 22 11.5 22C5.97715 22 1.5 17.5228 1.5 12ZM16.2071 7.29289C16.5019 7.58765 16.5829 8.03432 16.4104 8.4138L13.9104 13.9138C13.8103 14.1339 13.6339 14.3103 13.4138 14.4104L7.9138 16.9104C7.53432 17.0829 7.08765 17.0019 6.79289 16.7071C6.49814 16.4124 6.41714 15.9657 6.58963 15.5862L9.08963 10.0862C9.18968 9.86609 9.36609 9.68968 9.5862 9.58963L15.0862 7.08963C15.4657 6.91714 15.9124 6.99814 16.2071 7.29289ZM10.7552 11.2552L9.51384 13.9862L12.2448 12.7448L13.4862 10.0138L10.7552 11.2552Z" fill="#121212"/>
</svg>
