<svg width="24" height="24" viewBox="0 0 24 24" fill="none" xmlns="http://www.w3.org/2000/svg">
<path fill-rule="evenodd" clip-rule="evenodd" d="M6.16167 3H17.8388C18.3659 2.99998 18.8205 2.99997 19.1949 3.03058C19.5902 3.06289 19.9831 3.13424 20.3614 3.32698C20.9248 3.61405 21.3851 4.07224 21.6732 4.63781C21.8659 5.016 21.9372 5.40906 21.9695 5.80397C22 6.17815 22 6.6323 22 7.15839V14.8421C22 15.3682 22 15.8222 21.9695 16.1962C21.9372 16.591 21.8659 16.9838 21.6732 17.3619C21.3857 17.9262 20.9266 18.3855 20.362 18.6732C19.9838 18.8659 19.5909 18.9372 19.196 18.9695C18.8218 19 18.3677 19 17.8416 19H9.12207C8.6661 19 8.57738 19.0047 8.50085 19.0204C8.41145 19.0388 8.32585 19.0688 8.24663 19.1093C8.179 19.1438 8.10812 19.1945 7.75948 19.4734L7.74375 19.4858L7.74046 19.4883L6.18975 20.7289C5.8034 21.038 5.46125 21.3117 5.17104 21.5036C4.88772 21.6909 4.48662 21.9189 4.00205 21.9195C3.39286 21.9201 2.81682 21.6431 2.43691 21.1672C2.13466 20.7885 2.06214 20.333 2.03141 19.9947C1.99995 19.6484 1.99997 19.2104 2 18.7157L2 7.16168C1.99998 6.63451 1.99997 6.17965 2.03057 5.80499C2.06286 5.40962 2.13416 5.01625 2.32698 4.63781C2.6146 4.07332 3.07332 3.6146 3.63781 3.32698C4.01624 3.13416 4.40962 3.06286 4.80498 3.03057C5.17965 2.99997 5.6345 2.99998 6.16167 3ZM4.9678 5.02393C4.69595 5.04614 4.59517 5.08383 4.54579 5.109C4.35762 5.20487 4.20487 5.35763 4.10899 5.54579C4.08383 5.59517 4.04613 5.69595 4.02393 5.9678C4.00078 6.25126 4 6.62365 4 7.2002V18.6712C4 19.224 4.00099 19.5693 4.02321 19.8138C4.02476 19.8309 4.02636 19.8466 4.02799 19.8611C4.04035 19.8533 4.05369 19.8447 4.06804 19.8352C4.27294 19.6998 4.54327 19.4848 4.97491 19.1395L6.49888 17.9203L6.51459 17.908L6.51781 17.9055C6.5333 17.8931 6.54868 17.8808 6.56396 17.8685C6.82855 17.6565 7.06493 17.4671 7.33673 17.3282C7.57846 17.2047 7.8351 17.1154 8.09876 17.0613C8.39992 16.9994 8.70494 16.9997 9.05158 17C9.07489 17 9.09838 17 9.12207 17H17.8031C18.3785 17 18.7502 16.9992 19.033 16.9761C19.3043 16.9539 19.4048 16.9163 19.454 16.8912C19.642 16.7954 19.7953 16.6422 19.8912 16.4539C19.9164 16.4046 19.9539 16.3041 19.9761 16.0332C19.9992 15.7505 20 15.379 20 14.8036V7.19691C20 6.62146 19.9992 6.2498 19.9761 5.96686C19.9539 5.69554 19.9163 5.59501 19.8912 5.54579C19.7959 5.35871 19.6427 5.20542 19.4534 5.109C19.4039 5.08375 19.3032 5.04611 19.0319 5.02393C18.7488 5.00078 18.3768 5 17.8002 5H6.20019C5.62365 5 5.25125 5.00078 4.9678 5.02393ZM7 11C7 10.4477 7.44771 10 8 10H8.002C8.27127 10 8.52915 10.1086 8.71732 10.3012C8.90548 10.4938 9.00802 10.7542 9.00173 11.0234L9.00168 11.0254C8.99548 11.2906 8.88413 11.5425 8.69215 11.7256C8.50016 11.9087 8.24327 12.0081 7.97803 12.0017L7.97608 12.0017C7.43327 11.9887 7 11.5449 7 11.002V11ZM11 11C11 10.4477 11.4477 10 12 10H12.002C12.2713 10 12.5292 10.1086 12.7173 10.3012C12.9055 10.4938 13.008 10.7542 13.0017 11.0234L13.0017 11.0254C12.9955 11.2906 12.8841 11.5425 12.6921 11.7256C12.5002 11.9087 12.2433 12.0081 11.978 12.0017L11.9761 12.0017C11.4333 11.9887 11 11.5449 11 11.002V11ZM15 11C15 10.4477 15.4477 10 16 10H16.002C16.2713 10 16.5292 10.1086 16.7173 10.3012C16.9055 10.4938 17.008 10.7542 17.0017 11.0234L17.0017 11.0254C16.9955 11.2906 16.8841 11.5425 16.6921 11.7256C16.5002 11.9087 16.2433 12.0081 15.978 12.0017L15.9761 12.0017C15.4333 11.9887 15 11.5449 15 11.002V11Z" fill="#121212"/>
</svg>
