<svg width="24" height="24" viewBox="0 0 24 24" fill="none" xmlns="http://www.w3.org/2000/svg">
<path fill-rule="evenodd" clip-rule="evenodd" d="M12.3759 4.01032C12.259 4.00078 12.0965 4.00001 11.8 4.00001H5.40002V8.00001H12.4V4.6001C12.4 4.30394 12.3992 4.14159 12.3896 4.02517C12.3892 4.02031 12.3888 4.01572 12.3884 4.0114C12.3844 4.01103 12.3803 4.01067 12.3759 4.01032ZM14.4 8.00001L14.4 4.57199C14.4 4.31793 14.4001 4.0707 14.3828 3.86123C14.364 3.63247 14.3198 3.36299 14.1817 3.09191C13.9911 2.71783 13.6873 2.41087 13.3088 2.21799C13.0371 2.07958 12.767 2.03559 12.5386 2.01694C12.3302 1.99994 12.0843 1.99997 11.8319 2L4.40002 2.00001C3.84774 2.00001 3.40002 2.44772 3.40002 3.00001V21C3.40002 21.5523 3.84774 22 4.40002 22L14.8339 22C15.0858 22 15.3313 22.0001 15.5393 21.9831C15.7676 21.9644 16.0374 21.9204 16.3088 21.7821C16.6882 21.5888 16.9915 21.281 17.1817 20.9078C17.3197 20.6368 17.364 20.3675 17.3828 20.1387C17.4001 19.9293 17.4001 19.6822 17.4 19.4282L17.4 16L18.8339 16C19.0858 16 19.3313 16.0001 19.5393 15.9831C19.7676 15.9644 20.0374 15.9204 20.3088 15.7821C20.6884 15.5887 20.9916 15.2807 21.1817 14.9077C21.3197 14.6368 21.364 14.3676 21.3828 14.1388C21.4001 13.9294 21.4 13.6823 21.4 13.4283V10.572C21.4 10.3179 21.4001 10.0707 21.3828 9.86123C21.364 9.63247 21.3198 9.36299 21.1817 9.09191C20.9911 8.71783 20.6873 8.41087 20.3088 8.21799C20.0371 8.07958 19.767 8.03559 19.5386 8.01694C19.3302 7.99994 19.0843 7.99997 18.8319 8L14.4 8.00001ZM15.4 16H5.40002V20H14.8021C15.098 20 15.26 19.9992 15.3765 19.9897C15.3806 19.9894 15.3846 19.989 15.3883 19.9887C15.3888 19.9843 15.3892 19.9796 15.3896 19.9747C15.3991 19.8584 15.4 19.6962 15.4 19.4V16ZM5.40002 14H18.8021C19.098 14 19.26 13.9992 19.3765 13.9897C19.3806 13.9894 19.3846 13.989 19.3883 13.9887C19.3888 13.9843 19.3892 13.9796 19.3896 13.9747C19.3991 13.8584 19.4 13.6963 19.4 13.4001V10.6001C19.4 10.3039 19.3992 10.1416 19.3896 10.0252C19.3892 10.0203 19.3888 10.0157 19.3884 10.0114C19.3844 10.011 19.3803 10.0107 19.3759 10.0103C19.259 10.0008 19.0965 10 18.8 10H5.40002V14Z" fill="#121212"/>
</svg>
