<svg width="24" height="24" viewBox="0 0 24 24" fill="none" xmlns="http://www.w3.org/2000/svg">
<path d="M8 11.5996C8.37876 11.5996 8.70822 11.8106 8.87793 12.1211C9.18903 12.2906 9.40039 12.6208 9.40039 13C9.40039 13.5522 8.9525 13.9998 8.40039 14H8C7.44772 14 7 13.5523 7 13V12.5996C7.00021 12.0475 7.44785 11.5996 8 11.5996ZM12.4004 12C12.9525 12.0002 13.4004 12.4478 13.4004 13C13.4004 13.5522 12.9525 13.9998 12.4004 14H11.5996C11.0475 13.9998 10.5996 13.5522 10.5996 13C10.5996 12.4478 11.0475 12.0002 11.5996 12H12.4004ZM16 12C16.5523 12 17 12.4477 17 13C17 13.5523 16.5523 14 16 14H15.5996C15.0475 13.9998 14.5996 13.5522 14.5996 13C14.5996 12.4478 15.0475 12.0002 15.5996 12H16ZM7 9.40039V8.59961C7.00021 8.0475 7.44785 7.59961 8 7.59961C8.55215 7.59961 8.99979 8.0475 9 8.59961V9.40039C8.99979 9.9525 8.55215 10.4004 8 10.4004C7.44785 10.4004 7.00021 9.9525 7 9.40039ZM7 5.40039V5C7 4.44772 7.44772 4 8 4C8.55228 4 9 4.44772 9 5V5.40039C8.99979 5.9525 8.55215 6.40039 8 6.40039C7.44785 6.40039 7.00021 5.9525 7 5.40039Z" fill="#374151"/>
</svg>
