<svg width="24" height="24" viewBox="0 0 24 24" fill="none" xmlns="http://www.w3.org/2000/svg">
<path d="M19.0699 4.93013C17.1817 3.04195 14.6696 2 12 2C9.32962 2 6.81845 3.03896 4.93013 4.93013C3.04195 6.81832 2 9.3304 2 12C2 14.1114 2.67777 16.1894 3.9166 17.8889L3.46205 21.8366C3.42553 22.1583 3.56351 22.4779 3.82325 22.6707C3.98153 22.7904 4.17431 22.8502 4.36606 22.8502C4.48781 22.8502 4.61058 22.8269 4.72725 22.7752L8.2205 21.2614C9.41775 21.7524 10.688 22.002 12 22.002C14.6725 22.002 17.1816 20.9631 19.0699 19.0719C20.958 17.1837 22 14.6716 22 12.002C22 9.33163 20.961 6.82046 19.0699 4.93215L19.0699 4.93013ZM17.7844 17.7873C16.2391 19.3325 14.1846 20.1818 11.9971 20.1818C10.81 20.1818 9.6645 19.9322 8.5971 19.4442C8.36374 19.3376 8.09284 19.3346 7.85642 19.4361L5.44572 20.4801L5.76229 17.7346C5.7907 17.4952 5.72069 17.2568 5.57256 17.067C4.42198 15.6121 3.81424 13.8587 3.81424 11.999C3.81424 9.81145 4.6665 7.75792 6.20874 6.21168C7.75399 4.66643 9.80849 3.81718 11.996 3.81718C14.1836 3.81718 16.2371 4.66945 17.7833 6.21168C19.3286 7.75693 20.1778 9.81143 20.1778 11.999C20.1778 14.1865 19.3255 16.24 17.7833 17.7862L17.7844 17.7873Z" fill="#121212"/>
<path d="M12 7.99998C12.5523 7.99998 13 8.4477 13 8.99998V11H15C15.5523 11 16 11.4477 16 12C16 12.5523 15.5523 13 15 13H13V15C13 15.5523 12.5523 16 12 16C11.4477 16 11 15.5523 11 15V13H9C8.44772 13 8 12.5523 8 12C8 11.4477 8.44772 11 9 11H11V8.99998C11 8.4477 11.4477 7.99998 12 7.99998Z" fill="#121212"/>
</svg>
