<svg width="24" height="24" viewBox="0 0 24 24" fill="none" xmlns="http://www.w3.org/2000/svg">
<path fill-rule="evenodd" clip-rule="evenodd" d="M7.5617 3H17.2388C17.7659 2.99998 18.2206 2.99997 18.5951 3.03057C18.9905 3.06288 19.3836 3.13421 19.7619 3.32698C20.3258 3.61431 20.7854 4.07276 21.0733 4.63781C21.2661 5.01619 21.3374 5.40941 21.3697 5.80475C21.4003 6.17932 21.4003 6.63407 21.4002 7.16121V16.8383C21.4003 17.3655 21.4003 17.8202 21.3697 18.1948C21.3374 18.5902 21.2661 18.9834 21.0733 19.3618C20.7857 19.9262 20.3265 20.3856 19.7619 20.6732C19.3838 20.8659 18.9911 20.9372 18.5962 20.9695C18.2222 21 17.7682 21 17.2421 21H7.55842C7.03233 21 6.57817 21 6.20399 20.9695C5.80908 20.9372 5.41602 20.8659 5.03783 20.6732C4.47278 20.3853 4.01434 19.9258 3.72701 19.3619C3.53423 18.9835 3.4629 18.5904 3.4306 18.1951C3.39999 17.8206 3.40001 17.3659 3.40003 16.8388V7.16168C3.40001 6.63451 3.39999 6.17965 3.43059 5.80499C3.46289 5.40962 3.53418 5.01625 3.72701 4.63781C4.01463 4.07332 4.47335 3.6146 5.03783 3.32698C5.41627 3.13416 5.80964 3.06286 6.20501 3.03057C6.57967 2.99997 7.03453 2.99998 7.5617 3ZM6.36782 5.02393C6.09597 5.04614 5.9952 5.08383 5.94581 5.109C5.75765 5.20487 5.60489 5.35763 5.50902 5.54579C5.48386 5.59517 5.44616 5.69595 5.42396 5.9678C5.4008 6.25126 5.40003 6.62365 5.40003 7.2002V16.8002C5.40003 17.3768 5.4008 17.7489 5.42395 18.0322C5.44614 18.3037 5.48381 18.4044 5.50902 18.4539C5.60518 18.6426 5.75821 18.7956 5.94581 18.8912C5.99503 18.9163 6.09557 18.9539 6.36689 18.9761C6.64982 18.9992 7.02149 19 7.59693 19H17.2036C17.7791 19 18.1505 18.9992 18.4332 18.9761C18.7042 18.954 18.8046 18.9164 18.8539 18.8912C19.042 18.7954 19.1953 18.6421 19.2912 18.4538C19.3164 18.4044 19.3541 18.3036 19.3763 18.032C19.3995 17.7486 19.4002 17.3764 19.4002 16.7998V7.19978C19.4002 6.62323 19.3995 6.25095 19.3763 5.96762C19.3541 5.69595 19.3164 5.59523 19.2912 5.54579C19.1957 5.35819 19.0426 5.20516 18.8539 5.109C18.8044 5.08378 18.7038 5.04612 18.4322 5.02393C18.149 5.00078 17.7768 5 17.2002 5H7.60022C7.02368 5 6.65128 5.00078 6.36782 5.02393ZM8.69292 8.2929C9.08344 7.90237 9.71661 7.90237 10.1071 8.2929L12.4 10.5857L14.6928 8.2929C15.0833 7.90237 15.7165 7.90237 16.107 8.2929C16.4975 8.68342 16.4975 9.31658 16.107 9.70711L13.8142 11.9999L16.107 14.2928C16.4975 14.6833 16.4975 15.3165 16.107 15.707C15.7165 16.0975 15.0833 16.0975 14.6928 15.707L12.4 13.4142L10.1071 15.707C9.71661 16.0975 9.08344 16.0975 8.69292 15.707C8.3024 15.3165 8.3024 14.6833 8.69292 14.2928L10.9857 11.9999L8.69292 9.70711C8.3024 9.31658 8.3024 8.68342 8.69292 8.2929Z" fill="#121212"/>
</svg>
