<svg width="24" height="24" viewBox="0 0 24 24" fill="none" xmlns="http://www.w3.org/2000/svg">
<path fill-rule="evenodd" clip-rule="evenodd" d="M8 1C8.55229 1 9 1.44772 9 2V3H15V2C15 1.44772 15.4477 1 16 1C16.5523 1 17 1.44772 17 2V3.00003C17.4591 3.00031 17.8593 3.00313 18.1951 3.03057C18.5904 3.06288 18.9835 3.13421 19.3619 3.32698C19.9258 3.61431 20.3853 4.07275 20.6732 4.63781C20.8659 5.016 20.9372 5.40906 20.9695 5.80396C21 6.17815 21 6.6323 21 7.15839V16.8421C21 17.3682 21 17.8221 20.9695 18.1962C20.9372 18.591 20.8659 18.9838 20.6732 19.3619C20.3856 19.9264 19.9264 20.3856 19.3619 20.6732C18.9838 20.8659 18.591 20.9372 18.1962 20.9695C17.8222 21 17.3682 21 16.8421 21H7.15839C6.6323 21 6.17815 21 5.80397 20.9695C5.40906 20.9372 5.016 20.8659 4.63781 20.6732C4.07276 20.3853 3.61431 19.9258 3.32698 19.3619C3.13421 18.9835 3.06288 18.5904 3.03057 18.1951C2.99997 17.8206 2.99998 17.3659 3 16.8388V7.16168C2.99998 6.6345 2.99997 6.17965 3.03057 5.80498C3.06286 5.40962 3.13416 5.01624 3.32698 4.63781C3.6146 4.07332 4.07332 3.6146 4.63781 3.32698C5.01625 3.13416 5.40962 3.06286 5.80499 3.03057C6.14079 3.00314 6.54102 3.00031 7 3.00003V2C7 1.44772 7.44772 1 8 1ZM5.9678 5.02393C5.69595 5.04613 5.59517 5.08383 5.54579 5.10899C5.35763 5.20487 5.20487 5.35763 5.109 5.54579C5.08383 5.59517 5.04614 5.69595 5.02393 5.9678C5.00358 6.21702 5.00052 6.53498 5.00007 7H18.9999C18.9995 6.53429 18.9965 6.21614 18.9761 5.96686C18.9539 5.69554 18.9163 5.595 18.8912 5.54579C18.7956 5.35819 18.6426 5.20515 18.4539 5.10899C18.4044 5.08378 18.3037 5.04612 18.0322 5.02393C17.7489 5.00078 17.3768 5 16.8002 5H7.2002C6.62365 5 6.25126 5.00078 5.9678 5.02393ZM19 9H5V16.8002C5 17.3768 5.00078 17.7489 5.02393 18.0322C5.04612 18.3037 5.08378 18.4044 5.109 18.4539C5.20516 18.6426 5.35819 18.7956 5.54579 18.8912C5.595 18.9163 5.69554 18.9539 5.96686 18.9761C6.2498 18.9992 6.62146 19 7.19691 19H16.8036C17.379 19 17.7505 18.9992 18.0332 18.9761C18.3041 18.9539 18.4046 18.9164 18.4539 18.8912C18.6421 18.7953 18.7953 18.6421 18.8912 18.4539C18.9164 18.4046 18.954 18.3041 18.9761 18.0332C18.9992 17.7505 19 17.379 19 16.8036V9ZM12 10.5C12.5523 10.5 13 10.9477 13 11.5V13H14.5C15.0523 13 15.5 13.4477 15.5 14C15.5 14.5523 15.0523 15 14.5 15H13V16.5C13 17.0523 12.5523 17.5 12 17.5C11.4477 17.5 11 17.0523 11 16.5V15H9.5C8.94772 15 8.5 14.5523 8.5 14C8.5 13.4477 8.94772 13 9.5 13H11V11.5C11 10.9477 11.4477 10.5 12 10.5Z" fill="#121212"/>
</svg>
