<svg width="24" height="24" viewBox="0 0 24 24" fill="none" xmlns="http://www.w3.org/2000/svg">
<path d="M2.59998 3C3.15226 3 3.59998 3.44772 3.59998 4V13.8652L5.81319 12.0208L5.81951 12.0157L5.84099 11.9978C6.16852 11.7248 6.45284 11.4879 6.70302 11.3072C6.96785 11.116 7.24953 10.9461 7.58354 10.8418C8.25486 10.6323 8.97777 10.6655 9.62671 10.9347C9.95018 11.0689 10.2155 11.2638 10.4624 11.4785C10.6955 11.6814 10.9578 11.9437 11.2601 12.2461L11.2893 12.2752C11.626 12.6119 11.8427 12.8278 12.0202 12.982C12.1899 13.1294 12.27 13.1716 12.3134 13.1892C12.5328 13.2786 12.7785 13.2868 13.0058 13.2114C13.0511 13.1964 13.1346 13.1593 13.3148 13.0227C13.5032 12.88 13.7353 12.6778 14.0958 12.3624L19.9414 7.24742C20.3571 6.88374 20.9888 6.92586 21.3525 7.3415C21.7162 7.75713 21.6741 8.3889 21.2585 8.75258L15.3923 13.8855C15.0613 14.1751 14.775 14.4257 14.5226 14.6169C14.2569 14.8182 13.9736 14.9976 13.6355 15.1097C12.9585 15.3343 12.2219 15.3115 11.5589 15.0414C11.2294 14.9072 10.9593 14.7096 10.7087 14.4919C10.4717 14.2861 10.2052 14.0196 9.89809 13.7125L9.86863 13.683C9.5371 13.3515 9.32399 13.1391 9.14948 12.9873C8.98282 12.8423 8.90383 12.8001 8.86035 12.7821C8.64361 12.6922 8.40283 12.6812 8.1795 12.751C8.13485 12.7649 8.05259 12.7996 7.87387 12.9287C7.68676 13.0638 7.4559 13.2554 7.09675 13.5547L7.09043 13.5599L3.59998 16.4686V17.8C3.59998 18.3766 3.60076 18.7487 3.6239 19.0319C3.64609 19.3034 3.68375 19.4041 3.70897 19.4536C3.80529 19.6426 3.95848 19.7958 4.14577 19.8912C4.19498 19.9163 4.29552 19.9539 4.56684 19.9761C4.84978 19.9992 5.22144 20 5.79689 20H20.6002C21.1525 20 21.6002 20.4477 21.6002 21C21.6002 21.5523 21.1525 22 20.6002 22H5.75837C5.23228 22 4.77813 22 4.40394 21.9695C4.00904 21.9372 3.61597 21.8659 3.23778 21.6732C2.67242 21.3852 2.21413 20.9252 1.92696 20.3616C1.73419 19.9833 1.66286 19.5902 1.63055 19.1949C1.59994 18.8204 1.59996 18.3657 1.59998 17.8386V4C1.59998 3.44772 2.04769 3 2.59998 3Z" fill="#121212"/>
</svg>
