<svg width="24" height="24" viewBox="0 0 24 24" fill="none" xmlns="http://www.w3.org/2000/svg">
<path fill-rule="evenodd" clip-rule="evenodd" d="M6.16167 3H17.8388C18.3659 2.99998 18.8206 2.99997 19.1951 3.03057C19.5904 3.06288 19.9835 3.13421 20.3619 3.32698C20.9258 3.61431 21.3853 4.07276 21.6732 4.63781C21.8659 5.016 21.9372 5.40906 21.9695 5.80397C22 6.17815 22 6.6323 22 7.15839V14.8421C22 15.3682 22 15.8222 21.9695 16.1962C21.9372 16.591 21.8659 16.9838 21.6732 17.3619C21.3857 17.9262 20.9266 18.3855 20.362 18.6732C19.9839 18.8659 19.5911 18.9372 19.1962 18.9695C18.8222 19 18.3682 19 17.8421 19H9.12256C8.66643 19 8.57685 19.0047 8.50036 19.0204C8.41156 19.0386 8.32639 19.0685 8.24663 19.1093C8.17787 19.1444 8.10577 19.196 7.75378 19.4776L7.74827 19.4821L6.18975 20.7289C5.8034 21.038 5.46125 21.3117 5.17104 21.5036C4.88772 21.6909 4.48662 21.9189 4.00205 21.9195C3.39286 21.9201 2.81682 21.6431 2.43691 21.1672C2.13466 20.7885 2.06214 20.333 2.03141 19.9947C1.99995 19.6484 1.99997 19.2104 2 18.7157L2 7.16168C1.99998 6.63451 1.99997 6.17965 2.03057 5.80499C2.06286 5.40962 2.13416 5.01625 2.32698 4.63781C2.6146 4.07332 3.07332 3.6146 3.63781 3.32698C4.01624 3.13416 4.40962 3.06286 4.80498 3.03057C5.17965 2.99997 5.6345 2.99998 6.16167 3ZM4.9678 5.02393C4.69595 5.04614 4.59517 5.08383 4.54579 5.109C4.35762 5.20487 4.20487 5.35763 4.10899 5.54579C4.08383 5.59517 4.04613 5.69595 4.02393 5.9678C4.00078 6.25126 4 6.62365 4 7.2002V18.6712C4 19.224 4.00099 19.5693 4.02321 19.8138C4.02476 19.8309 4.02636 19.8466 4.02799 19.8611C4.04035 19.8533 4.05369 19.8447 4.06804 19.8352C4.27294 19.6998 4.54327 19.4848 4.97491 19.1395L6.49514 17.9233L6.50252 17.9173C6.52089 17.9026 6.53912 17.8881 6.5572 17.8736C6.82565 17.6585 7.06362 17.4678 7.33673 17.3282C7.57793 17.205 7.83402 17.1155 8.09827 17.0613C8.39945 16.9994 8.70541 16.9997 9.05201 17C9.07534 17 9.09885 17 9.12256 17H17.8036C18.379 17 18.7505 16.9992 19.0333 16.9761C19.3043 16.9539 19.4047 16.9163 19.454 16.8912C19.642 16.7954 19.7953 16.6422 19.8912 16.4539C19.9164 16.4046 19.9539 16.3041 19.9761 16.0332C19.9992 15.7505 20 15.379 20 14.8036V7.19691C20 6.62146 19.9992 6.2498 19.9761 5.96686C19.9539 5.69554 19.9163 5.59501 19.8912 5.54579C19.7956 5.35819 19.6426 5.20516 19.4539 5.109C19.4044 5.08378 19.3037 5.04612 19.0322 5.02393C18.7489 5.00078 18.3768 5 17.8002 5H6.20019C5.62365 5 5.25125 5.00078 4.9678 5.02393ZM12 7C12.5523 7 13 7.44772 13 8V10H15C15.5523 10 16 10.4477 16 11C16 11.5523 15.5523 12 15 12H13V14C13 14.5523 12.5523 15 12 15C11.4477 15 11 14.5523 11 14V12H9C8.44771 12 8 11.5523 8 11C8 10.4477 8.44771 10 9 10H11V8C11 7.44772 11.4477 7 12 7Z" fill="#121212"/>
</svg>
