<svg width="24" height="24" viewBox="0 0 24 24" fill="none" xmlns="http://www.w3.org/2000/svg">
<path d="M12 2C14.2878 2 16.4007 2.3119 17.9766 2.84375C18.7594 3.10795 19.4651 3.44426 19.9951 3.86719C20.5153 4.28223 21 4.89503 21 5.7002V18.2998C21 19.08 20.5396 19.687 20.0225 20.1084C19.4973 20.5362 18.7892 20.882 17.9766 21.1562C16.3449 21.7069 14.1959 22 12 22C9.80409 22 7.65507 21.7069 6.02344 21.1562C5.21082 20.882 4.50267 20.5362 3.97754 20.1084C3.46041 19.687 3 19.08 3 18.2998V5.7002L3.00586 5.55176C3.06088 4.81931 3.51715 4.25637 4.00488 3.86719C4.53493 3.44426 5.24063 3.10795 6.02344 2.84375C7.5993 2.3119 9.71224 2 12 2ZM19 14.4414C18.6844 14.5944 18.3414 14.7333 17.9766 14.8564C16.3449 15.4071 14.1959 15.7002 12 15.7002C9.80409 15.7002 7.65507 15.4071 6.02344 14.8564C5.65863 14.7333 5.31559 14.5944 5 14.4414V18.2852C5.00707 18.307 5.04778 18.4007 5.24023 18.5576C5.51158 18.7787 5.97549 19.0297 6.66309 19.2617C8.03202 19.7237 9.95252 20 12 20C14.0475 20 15.968 19.7237 17.3369 19.2617C18.0245 19.0297 18.4884 18.7787 18.7598 18.5576C18.9522 18.4007 18.9929 18.307 19 18.2852V14.4414ZM19 8.14258C18.6816 8.2966 18.3375 8.43483 17.9766 8.55664C16.4007 9.08848 14.2877 9.40039 12 9.40039C9.71227 9.40039 7.59929 9.08848 6.02344 8.55664C5.6625 8.43483 5.31843 8.2966 5 8.14258V11.9854C5.00723 12.0076 5.04822 12.1013 5.24023 12.2578C5.51158 12.4789 5.97549 12.7299 6.66309 12.9619C8.03202 13.4239 9.95255 13.7002 12 13.7002C14.0475 13.7002 15.968 13.4239 17.3369 12.9619C18.0245 12.7299 18.4884 12.4789 18.7598 12.2578C18.9518 12.1013 18.9928 12.0076 19 11.9854V8.14258ZM12 4C9.86956 4 7.98265 4.29295 6.66309 4.73828C5.99822 4.96267 5.53153 5.20758 5.25195 5.43066C5.0764 5.57079 5.02224 5.66257 5.00586 5.69922C5.02149 5.73498 5.07411 5.8278 5.25195 5.96973C5.53153 6.19281 5.99822 6.43772 6.66309 6.66211C7.98265 7.10741 9.86963 7.40039 12 7.40039C14.1304 7.40039 16.0174 7.10741 17.3369 6.66211C18.0018 6.43772 18.4685 6.19281 18.748 5.96973C18.9253 5.82828 18.9773 5.73524 18.9932 5.69922C18.9766 5.66233 18.923 5.57032 18.748 5.43066C18.4685 5.20758 18.0018 4.96267 17.3369 4.73828C16.0173 4.29295 14.1304 4 12 4Z" fill="#121212"/>
</svg>
