<svg width="24" height="24" viewBox="0 0 24 24" fill="none" xmlns="http://www.w3.org/2000/svg">
<path d="M4 5C4 4.20435 4.3163 3.44152 4.87891 2.87891C5.44152 2.3163 6.20435 2 7 2H13C13.5523 2 14 2.44772 14 3C14 3.55228 13.5523 4 13 4H7C6.73478 4 6.4805 4.10543 6.29297 4.29297C6.10543 4.4805 6 4.73478 6 5V20H16V13.5C16 12.9477 16.4477 12.5 17 12.5C17.5523 12.5 18 12.9477 18 13.5V20H21C21.5523 20 22 20.4477 22 21C22 21.5523 21.5523 22 21 22H3C2.44772 22 2 21.5523 2 21C2 20.4477 2.44772 20 3 20H4V5ZM12 12.0098V12C12 11.4477 12.4477 11 13 11C13.5523 11 14 11.4477 14 12V12.0098C14 12.5621 13.5523 13.0098 13 13.0098C12.4477 13.0098 12 12.5621 12 12.0098ZM16.293 3.29297C16.6835 2.90244 17.3165 2.90244 17.707 3.29297C18.0976 3.68349 18.0976 4.31651 17.707 4.70703L16.4141 6H21C21.5523 6 22 6.44772 22 7C22 7.55228 21.5523 8 21 8H16.4141L17.707 9.29297C18.0976 9.68349 18.0976 10.3165 17.707 10.707C17.3165 11.0976 16.6835 11.0976 16.293 10.707L13.293 7.70703C12.9024 7.31651 12.9024 6.68349 13.293 6.29297L16.293 3.29297Z" fill="#121212"/>
</svg>
