<svg width="24" height="24" viewBox="0 0 24 24" fill="none" xmlns="http://www.w3.org/2000/svg">
<path fill-rule="evenodd" clip-rule="evenodd" d="M4.125 9C4.125 7.89543 5.02043 7 6.125 7C7.22957 7 8.125 7.89543 8.125 9C8.125 10.1046 7.22957 11 6.125 11C5.02043 11 4.125 10.1046 4.125 9ZM10.125 9C10.125 7.89543 11.0204 7 12.125 7C13.2296 7 14.125 7.89543 14.125 9C14.125 10.1046 13.2296 11 12.125 11C11.0204 11 10.125 10.1046 10.125 9ZM16.125 9C16.125 7.89543 17.0204 7 18.125 7C19.2296 7 20.125 7.89543 20.125 9C20.125 10.1046 19.2296 11 18.125 11C17.0204 11 16.125 10.1046 16.125 9ZM4.125 15C4.125 13.8954 5.02043 13 6.125 13C7.22957 13 8.125 13.8954 8.125 15C8.125 16.1046 7.22957 17 6.125 17C5.02043 17 4.125 16.1046 4.125 15ZM10.125 15C10.125 13.8954 11.0204 13 12.125 13C13.2296 13 14.125 13.8954 14.125 15C14.125 16.1046 13.2296 17 12.125 17C11.0204 17 10.125 16.1046 10.125 15ZM16.125 15C16.125 13.8954 17.0204 13 18.125 13C19.2296 13 20.125 13.8954 20.125 15C20.125 16.1046 19.2296 17 18.125 17C17.0204 17 16.125 16.1046 16.125 15Z" fill="#121212"/>
</svg>
