<svg width="24" height="24" viewBox="0 0 24 24" fill="none" xmlns="http://www.w3.org/2000/svg">
<path d="M18 20C18.5523 20 19 20.4477 19 21C19 21.5523 18.5523 22 18 22H6C5.44772 22 5 21.5523 5 21C5 20.4477 5.44772 20 6 20H18ZM11 3C11 2.44772 11.4477 2 12 2C12.5523 2 13 2.44772 13 3V14.5859L16.293 11.293C16.6835 10.9024 17.3165 10.9024 17.707 11.293C18.0976 11.6835 18.0976 12.3165 17.707 12.707L12.707 17.707C12.3165 18.0976 11.6835 18.0976 11.293 17.707L6.29297 12.707L6.22461 12.6309C5.90426 12.2381 5.92685 11.6591 6.29297 11.293C6.65908 10.9269 7.23809 10.9043 7.63086 11.2246L7.70703 11.293L11 14.5859V3Z" fill="#121212"/>
</svg>
