<svg width="24" height="24" viewBox="0 0 24 24" fill="none" xmlns="http://www.w3.org/2000/svg">
<path d="M19.1053 5.7C19.1053 7.19117 15.5 8.4 11.0526 8.4C6.60529 8.4 3 7.19117 3 5.7M19.1053 5.7C19.1053 4.20883 15.5 3 11.0526 3C6.60529 3 3 4.20883 3 5.7M19.1053 5.7V9.57M3 5.7L3 18.3C2.99943 18.8838 3.56326 19.452 4.60695 19.9193C5.65064 20.3866 7.11796 20.7279 8.78895 20.892M3 12C2.99871 12.5032 3.4169 12.9966 4.20739 13.4244C4.99787 13.8521 6.12919 14.1973 7.47369 14.421M11.0526 12V15.6M11.0526 15.6H14.6316M11.0526 15.6L12.9226 13.719C13.7011 12.936 14.7837 12.45 15.9737 12.45C17.0415 12.45 18.0656 12.8767 18.8207 13.6362C19.5758 14.3957 20 15.4259 20 16.5C20 17.4445 19.7046 18.365 19.1556 19.1312C18.6065 19.8974 17.8318 20.4704 16.941 20.7691C16.0503 21.0677 15.0886 21.0769 14.1924 20.7953C13.2962 20.5137 12.5107 19.9556 11.9474 19.2" stroke="#121212" stroke-width="2" stroke-linecap="round" stroke-linejoin="round"/>
<path d="M19 16.5C19 15.6892 18.6795 14.9124 18.1113 14.3408C17.5434 13.7697 16.7742 13.4502 15.9736 13.4502C15.0604 13.4502 14.2301 13.8221 13.6318 14.4238L13.457 14.5996H14.6318L14.7334 14.6055C15.2377 14.6565 15.6316 15.0819 15.6318 15.5996C15.6318 16.1175 15.2379 16.5437 14.7334 16.5947L14.6318 16.5996H11.0527C10.5005 16.5996 10.0527 16.1519 10.0527 15.5996V12C10.0527 11.4477 10.5005 11 11.0527 11C11.605 11.0001 12.0527 11.4477 12.0527 12V13.1748L12.2139 13.0137C13.1724 12.0497 14.5071 11.4502 15.9736 11.4502C17.3086 11.4502 18.5881 11.9839 19.5303 12.9316C20.472 13.8791 21 15.1627 21 16.5C21 17.6529 20.6397 18.7775 19.9688 19.7139C19.2977 20.6503 18.3496 21.3511 17.2588 21.7168C16.1679 22.0826 14.9902 22.0939 13.8926 21.749C12.8637 21.4257 11.9553 20.805 11.2783 19.9678L11.1455 19.7979L11.0889 19.7129C10.8284 19.278 10.9345 18.708 11.3496 18.3984C11.7647 18.089 12.3411 18.1499 12.6836 18.5234L12.749 18.6025L12.9209 18.8154C13.3407 19.295 13.8841 19.6497 14.4922 19.8408C15.187 20.0591 15.9324 20.0528 16.623 19.8213C17.3138 19.5897 17.9158 19.1447 18.3428 18.5488C18.7698 17.9528 19 17.236 19 16.5ZM18.1055 9.57031V8.1377C17.782 8.29388 17.432 8.4344 17.0645 8.55762C15.4798 9.08892 13.3543 9.40038 11.0527 9.40039C8.7512 9.40039 6.62571 9.08889 5.04102 8.55762C4.67358 8.43442 4.32341 8.29384 4 8.1377V11.9912C4.00588 12.0059 4.02352 12.0397 4.06934 12.0938C4.16656 12.2085 4.35626 12.3678 4.68359 12.5449C5.25818 12.8558 6.10487 13.1401 7.16895 13.3496L7.6377 13.4346L7.73828 13.4561C8.22706 13.5894 8.54484 14.0744 8.45996 14.585C8.36933 15.1298 7.85437 15.4979 7.30957 15.4072C6.03746 15.1956 4.89187 14.8698 4 14.4385V18.2861C4.00616 18.3036 4.03174 18.3582 4.12207 18.4492C4.27684 18.605 4.55972 18.8027 5.01563 19.0068C5.92632 19.4146 7.27772 19.7385 8.88672 19.8965C9.4362 19.9505 9.83788 20.4398 9.78418 20.9893C9.73021 21.5388 9.24095 21.9415 8.69141 21.8877C6.95849 21.7175 5.37492 21.3589 4.19824 20.832C3.6108 20.569 3.09015 20.2484 2.70215 19.8574C2.31087 19.4631 1.99938 18.9359 2 18.2988V5.7002L2.00586 5.55078C2.06156 4.8162 2.52225 4.25325 3.01172 3.86523C3.54444 3.44298 4.25388 3.1067 5.04102 2.84277C6.62572 2.31148 8.75114 2 11.0527 2C13.3544 2.00001 15.4798 2.31145 17.0645 2.84277C17.8517 3.10672 18.561 3.44293 19.0938 3.86523C19.6159 4.27912 20.1055 4.89221 20.1055 5.7002V9.57031C20.1053 10.1224 19.6576 10.5702 19.1055 10.5703C18.5533 10.5703 18.1056 10.1225 18.1055 9.57031ZM11.0527 4C8.90722 4 7.00649 4.29344 5.67676 4.73926C5.00673 4.96391 4.53614 5.20888 4.25391 5.43262C4.07935 5.571 4.02319 5.66187 4.00586 5.69922C4.02246 5.73575 4.07726 5.82774 4.25391 5.96777C4.53616 6.19148 5.00685 6.43652 5.67676 6.66113C7.00649 7.10693 8.90728 7.40039 11.0527 7.40039C13.1982 7.40038 15.099 7.10696 16.4287 6.66113C17.0987 6.43648 17.5693 6.19151 17.8516 5.96777C18.0271 5.82859 18.0807 5.73618 18.0977 5.69922C18.08 5.66147 18.025 5.57012 17.8516 5.43262C17.5693 5.20888 17.0987 4.96391 16.4287 4.73926C15.099 4.29341 13.1983 4.00001 11.0527 4Z" fill="#121212"/>
</svg>
