<svg width="24" height="24" viewBox="0 0 24 24" fill="none" xmlns="http://www.w3.org/2000/svg">
<path fill-rule="evenodd" clip-rule="evenodd" d="M4.00001 10C4.00001 7.79086 5.79087 6 8.00001 6C8.55229 6 9.00001 6.44772 9.00001 7C9.00001 7.55228 8.55229 8 8.00001 8C6.89544 8 6.00001 8.89543 6.00001 10V11H8.40001C8.41065 11 8.42129 11 8.43192 11C8.68428 11 8.93004 10.9999 9.13816 11.0169C9.36678 11.0356 9.63642 11.0797 9.90779 11.218C10.2832 11.4093 10.5899 11.7147 10.7821 12.0919C10.9204 12.3632 10.9644 12.6329 10.9831 12.8613C11.0001 13.0692 11 13.3147 11 13.5666C11 13.5772 11 13.5878 11 13.5985L11 15.4334C11 15.6853 11.0001 15.9307 10.9831 16.1386C10.9644 16.367 10.9203 16.6365 10.7821 16.9077C10.5904 17.284 10.284 17.5904 9.90769 17.7821C9.63647 17.9203 9.367 17.9644 9.13859 17.9831C8.9307 18.0001 8.68528 18 8.43344 18H6.56659C6.31472 18 6.06923 18.0001 5.86126 17.9831C5.63291 17.9644 5.36325 17.9204 5.09191 17.7821C4.71472 17.5899 4.40929 17.2832 4.21799 16.9078C4.07972 16.6364 4.03564 16.3668 4.01695 16.1382C3.99994 15.93 3.99997 15.6843 4 15.4319L4.00001 10ZM6.00001 13V15.4C6.00001 15.6965 6.00078 15.8587 6.01031 15.9752C6.01069 15.98 6.01108 15.9844 6.01147 15.9886C6.01547 15.989 6.0197 15.9893 6.02416 15.9897C6.14054 15.9992 6.30249 16 6.59846 16H8.40155C8.69754 16 8.85935 15.9992 8.9756 15.9897C8.98017 15.9893 8.9845 15.989 8.98859 15.9886C8.98897 15.9845 8.98935 15.9802 8.98972 15.9756C8.99923 15.8593 9.00001 15.6975 9.00001 15.4015V13.5985C9.00001 13.3025 8.99923 13.1405 8.98972 13.0242C8.98935 13.0197 8.98898 13.0155 8.98862 13.0115C8.98441 13.0111 8.97996 13.0107 8.97525 13.0103C8.85873 13.0008 8.69654 13 8.40001 13H6.00001ZM13 10C13 7.79086 14.7909 6 17 6C17.5523 6 18 6.44772 18 7C18 7.55228 17.5523 8 17 8C15.8954 8 15 8.89543 15 10V11L17.4319 11C17.6843 11 17.93 10.9999 18.1382 11.0169C18.3668 11.0356 18.6364 11.0797 18.9078 11.218C19.2832 11.4093 19.5899 11.7147 19.7821 12.0919C19.9204 12.3632 19.9644 12.6329 19.9831 12.8613C20.0001 13.0692 20 13.3147 20 13.5666V15.4334C20 15.6853 20.0001 15.9307 19.9831 16.1386C19.9644 16.367 19.9203 16.6365 19.7821 16.9077C19.5904 17.284 19.284 17.5904 18.9077 17.7821C18.6365 17.9203 18.367 17.9644 18.1386 17.9831C17.9307 18.0001 17.6853 18 17.4334 18H15.5666C15.3147 18 15.0692 18.0001 14.8613 17.9831C14.6329 17.9644 14.3632 17.9204 14.0919 17.7821C13.7147 17.5899 13.4093 17.2832 13.218 16.9078C13.0797 16.6364 13.0356 16.3668 13.017 16.1382C12.9999 15.93 13 15.6843 13 15.4319L13 10ZM15 13V15.4C15 15.6965 15.0008 15.8587 15.0103 15.9752C15.0107 15.98 15.0111 15.9844 15.0115 15.9886C15.0155 15.989 15.0197 15.9893 15.0242 15.9897C15.1405 15.9992 15.3025 16 15.5985 16H17.4015C17.6975 16 17.8593 15.9992 17.9756 15.9897C17.9802 15.9893 17.9845 15.989 17.9886 15.9886C17.989 15.9845 17.9893 15.9802 17.9897 15.9756C17.9992 15.8593 18 15.6975 18 15.4015V13.5985C18 13.3025 17.9992 13.1405 17.9897 13.0242C17.9894 13.0197 17.989 13.0155 17.9886 13.0115C17.9844 13.0111 17.98 13.0107 17.9752 13.0103C17.8587 13.0008 17.6965 13 17.4 13H15Z" fill="#121212"/>
</svg>
