<svg width="24" height="24" viewBox="0 0 24 24" fill="none" xmlns="http://www.w3.org/2000/svg">
<path fill-rule="evenodd" clip-rule="evenodd" d="M6.56822 6C6.57884 6 6.58947 6.00001 6.6001 6.00001H8.4001C8.41076 6.00001 8.4214 6 8.43203 6C8.68438 5.99997 8.9301 5.99994 9.13819 6.01695C9.36683 6.03565 9.63638 6.07975 9.90769 6.21799C10.2829 6.40919 10.5898 6.71451 10.7821 7.09191C10.9204 7.36325 10.9644 7.63292 10.9831 7.86127C11.0001 8.06924 11 8.31473 11 8.56661C11 8.57722 11 8.58784 11 8.59846L11 14C11 16.2091 9.20914 18 7.00001 18C6.44772 18 6.00001 17.5523 6.00001 17C6.00001 16.4477 6.44772 16 7.00001 16C8.10458 16 9.00001 15.1046 9.00001 14L9.00001 13.0001L6.59846 13C6.58784 13 6.5772 13 6.56661 13C6.31473 13 6.06924 13.0001 5.86126 12.9831C5.63291 12.9644 5.36325 12.9204 5.09191 12.7821C4.71451 12.5898 4.40919 12.2829 4.21799 11.9077L5.109 11.4537L5.17238 11.4214M5.109 11.4537L4.21799 11.9077C4.07975 11.6364 4.03565 11.3668 4.01695 11.1382C3.99994 10.9301 3.99997 10.6844 4 10.432C4 10.4214 4.00001 10.4108 4.00001 10.4001V8.6001C4.00001 8.58947 4 8.57884 4 8.56822C3.99997 8.31582 3.99994 8.06999 4.01695 7.86179C4.03562 7.63323 4.07966 7.3634 4.21799 7.09191C4.40974 6.71559 4.71559 6.40974 5.09191 6.21799C5.3634 6.07966 5.63323 6.03562 5.86179 6.01695C6.06999 5.99994 6.31582 5.99997 6.56822 6M9.00001 11.0001V8.59846C9.00001 8.3025 8.99923 8.14055 8.98972 8.02416C8.98935 8.0197 8.98898 8.01547 8.98862 8.01147C8.98441 8.01108 8.97995 8.01069 8.97523 8.0103C8.85877 8.00078 8.69665 8.00001 8.4001 8.00001H6.6001C6.30359 8.00001 6.14126 8.00078 6.02461 8.01031C6.01998 8.01069 6.01559 8.01107 6.01145 8.01145C6.01107 8.01559 6.01069 8.01998 6.01031 8.02461C6.00078 8.14126 6.00001 8.30359 6.00001 8.6001V10.4001C6.00001 10.6966 6.00078 10.8588 6.0103 10.9752C6.01069 10.9799 6.01108 10.9844 6.01147 10.9886C6.01547 10.989 6.0197 10.9894 6.02416 10.9897C6.14054 10.9992 6.30249 11 6.59846 11L9.00001 11.0001ZM15.5682 6H17.432C17.6844 5.99997 17.9301 5.99994 18.1382 6.01695C18.3668 6.03565 18.6364 6.07975 18.9077 6.21799C19.2829 6.40919 19.5898 6.71451 19.7821 7.09191C19.9204 7.36325 19.9644 7.63292 19.9831 7.86127C20.0001 8.06925 20 8.31475 20 8.56664L20 14C20 16.2091 18.2091 18 16 18C15.4477 18 15 17.5523 15 17C15 16.4477 15.4477 16 16 16C17.1046 16 18 15.1046 18 14V13.0001L15.5666 13C15.3147 13 15.0692 13.0001 14.8613 12.9831C14.6329 12.9644 14.3633 12.9204 14.0919 12.7821C13.7145 12.5898 13.4092 12.2829 13.218 11.9077C13.0798 11.6364 13.0356 11.3668 13.017 11.1382C12.9999 10.9301 13 10.6844 13 10.432C13 10.4214 13 10.4108 13 10.4001V8.6001C13 8.58946 13 8.57884 13 8.56822C13 8.31582 12.9999 8.06999 13.0169 7.86179C13.0356 7.63323 13.0797 7.36339 13.218 7.09191C13.4097 6.71559 13.7156 6.40974 14.0919 6.21799C14.3634 6.07967 14.6332 6.03562 14.8618 6.01695C15.07 5.99994 15.3158 5.99997 15.5682 6ZM15.0115 8.01145C15.0111 8.01559 15.0107 8.01998 15.0103 8.02461C15.0008 8.14126 15 8.30359 15 8.6001V10.4001C15 10.6966 15.0008 10.8588 15.0103 10.9752C15.0107 10.9799 15.0111 10.9844 15.0115 10.9886C15.0155 10.989 15.0197 10.9894 15.0242 10.9897C15.1405 10.9992 15.3025 11 15.5985 11L18 11.0001V8.59847C18 8.3025 17.9992 8.14055 17.9897 8.02416C17.9894 8.0197 17.989 8.01547 17.9886 8.01147C17.9844 8.01108 17.9799 8.01069 17.9752 8.0103C17.8588 8.00078 17.6966 8.00001 17.4001 8.00001H15.6001C15.3036 8.00001 15.1413 8.00078 15.0246 8.01031C15.02 8.01069 15.0156 8.01107 15.0115 8.01145Z" fill="#121212"/>
</svg>
