<svg width="24" height="24" viewBox="0 0 24 24" fill="none" xmlns="http://www.w3.org/2000/svg">
<path fill-rule="evenodd" clip-rule="evenodd" d="M16.8644 5.04931C16.7492 5.01168 16.6014 4.99995 15.8571 4.99995H8.14258C7.39849 4.99995 7.25178 5.01166 7.13646 5.04931C7.00232 5.09309 6.87872 5.16482 6.7747 5.25907C6.68499 5.34035 6.60205 5.46188 6.23343 6.10697L5.72316 6.99995H18.2769L17.7675 6.10839C17.3986 5.46288 17.315 5.34061 17.225 5.25907C17.12 5.16387 16.9972 5.09265 16.8644 5.04931ZM19 8.99995H5V16.7999C5 17.3765 5.00078 17.7487 5.02393 18.0319C5.04612 18.3034 5.08377 18.404 5.109 18.4535C5.20532 18.6426 5.3585 18.7957 5.54579 18.8912C5.59501 18.9162 5.69554 18.9539 5.96686 18.976C6.2498 18.9992 6.62146 18.9999 7.19691 18.9999H16.8031C17.3786 18.9999 17.75 18.9992 18.0327 18.9761C18.3036 18.9539 18.4041 18.9163 18.4534 18.8912C18.6418 18.7952 18.7955 18.6415 18.8912 18.4535C18.9163 18.4042 18.9539 18.3038 18.9761 18.0327C18.9992 17.75 19 17.3785 19 16.803V8.99995ZM15.9739 2.99985C16.5337 2.99915 17.027 2.99853 17.485 3.14802C17.8874 3.27935 18.2558 3.49417 18.5679 3.77696C18.9254 4.10083 19.1694 4.52905 19.4473 5.0168C19.4661 5.04964 19.4849 5.08275 19.504 5.11611L20.8683 7.50385C20.9546 7.65494 21 7.82594 21 7.99995V16.8416C21 17.3676 21 17.8217 20.9695 18.1957C20.9372 18.5906 20.8659 18.9834 20.6732 19.3615C20.3855 19.9262 19.9257 20.3857 19.3614 20.6732C18.9833 20.8658 18.5905 20.9371 18.1957 20.9694C17.8217 21 17.3677 21 16.8416 20.9999H7.15839C6.6323 21 6.17815 21 5.80397 20.9694C5.40906 20.9371 5.016 20.8659 4.63781 20.6732C4.07245 20.3851 3.61416 19.9251 3.32698 19.3615C3.13422 18.9832 3.06288 18.5901 3.03057 18.1948C2.99997 17.8203 2.99998 17.3656 3 16.8385L3 7.99995C3 7.82592 3.04542 7.65491 3.13175 7.50382L4.49693 5.11471C4.51637 5.08069 4.53561 5.04692 4.55469 5.01344C4.8314 4.52777 5.07498 4.10027 5.43181 3.77696C5.74497 3.49322 6.11486 3.27891 6.51589 3.14802C6.97387 2.99853 7.46598 2.99915 8.02585 2.99985C8.06443 2.9999 8.10334 2.99995 8.14258 2.99995H15.8571C15.8963 2.99995 15.9353 2.9999 15.9739 2.99985ZM12 9.99995C12.5523 9.99995 13 10.4477 13 10.9999V15.1314L14.4453 14.1679C14.9048 13.8615 15.5257 13.9857 15.8321 14.4452C16.1384 14.9048 16.0142 15.5256 15.5547 15.832L12.5547 17.832C12.2188 18.0559 11.7812 18.0559 11.4453 17.832L8.4453 15.832C7.98577 15.5256 7.8616 14.9048 8.16795 14.4452C8.4743 13.9857 9.09517 13.8615 9.5547 14.1679L11 15.1314V10.9999C11 10.4477 11.4477 9.99995 12 9.99995Z" fill="#121212"/>
</svg>
