<svg width="24" height="24" viewBox="0 0 24 24" fill="none" xmlns="http://www.w3.org/2000/svg">
<path fill-rule="evenodd" clip-rule="evenodd" d="M8.9616 3H17.6387C18.1658 2.99998 18.6204 2.99997 18.9948 3.03058C19.3901 3.06289 19.783 3.13424 20.1613 3.32698C20.7247 3.61405 21.185 4.07224 21.4732 4.63781C21.6659 5.016 21.7371 5.40906 21.7694 5.80397C21.8 6.17815 21.7999 6.6323 21.7999 7.15839V13.8416C21.7999 14.3677 21.8 14.8217 21.7694 15.1957C21.7371 15.5905 21.6658 15.9833 21.4732 16.3614C21.1856 16.9257 20.7262 17.3855 20.1615 17.6732C19.7834 17.8659 19.3906 17.9372 18.9957 17.9695C18.6216 18 18.1676 18 17.6415 18H10.7824C10.7788 18.0675 10.7745 18.1327 10.7694 18.1957C10.7371 18.5905 10.6658 18.9833 10.4732 19.3614C10.1855 19.9259 9.7258 20.3856 9.16131 20.6732C8.78324 20.8659 8.39047 20.9372 7.99561 20.9695C7.62159 21 7.1676 21 6.64153 21H5.95832C5.43223 21 4.97808 21 4.60389 20.9695C4.20899 20.9372 3.81592 20.8659 3.43773 20.6732C2.87217 20.3851 2.41398 19.9248 2.12691 19.3614C1.93417 18.9831 1.86282 18.5902 1.8305 18.1949C1.79989 17.8205 1.79991 17.3659 1.79993 16.8388V11.1617C1.79991 10.6345 1.79989 10.1796 1.8305 9.80499C1.86279 9.40962 1.93408 9.01625 2.12691 8.63781C2.41453 8.07332 2.87325 7.6146 3.43773 7.32698C3.81617 7.13416 4.20954 7.06286 4.60491 7.03057C4.66769 7.02544 4.73271 7.02118 4.79995 7.01762C4.80017 6.55126 4.80272 6.14508 4.8305 5.80499C4.86279 5.40962 4.93409 5.01625 5.12691 4.63781C5.41453 4.07332 5.87325 3.6146 6.43774 3.32698C6.81617 3.13416 7.20954 3.06286 7.60491 3.03057C7.97958 2.99997 8.43443 2.99998 8.9616 3ZM6.8 7.00003C7.25904 7.00031 7.65915 7.00313 7.99481 7.03058C8.39011 7.06289 8.78305 7.13424 9.16131 7.32698C9.72472 7.61405 10.185 8.07224 10.4732 8.63781C10.6659 9.016 10.7371 9.40906 10.7694 9.80397C10.8 10.1782 10.7999 10.6323 10.7999 11.1584V16H17.603C18.1785 16 18.55 15.9992 18.8327 15.9761C19.1038 15.9539 19.2042 15.9163 19.2535 15.8912C19.4415 15.7955 19.5952 15.6418 19.6911 15.4534C19.7163 15.4041 19.7539 15.3036 19.776 15.0327C19.7992 14.75 19.7999 14.3786 19.7999 13.8031V7.19691C19.7999 6.62146 19.7992 6.2498 19.776 5.96686C19.7539 5.69554 19.7162 5.59501 19.6911 5.54579C19.5958 5.35871 19.4426 5.20542 19.2533 5.109C19.2038 5.08375 19.1032 5.04611 18.8319 5.02393C18.5487 5.00078 18.1767 5 17.6001 5H9.00012C8.42358 5 8.05118 5.00078 7.76773 5.02393C7.49588 5.04614 7.3951 5.08383 7.34572 5.109C7.15755 5.20487 7.0048 5.35763 6.90892 5.54579C6.88376 5.59517 6.84606 5.69595 6.82386 5.9678C6.8035 6.21702 6.80044 6.535 6.8 7.00003ZM4.76773 9.02393C4.49588 9.04614 4.3951 9.08383 4.34572 9.109C4.15755 9.20487 4.0048 9.35763 3.90892 9.54579C3.88376 9.59517 3.84606 9.69595 3.82386 9.9678C3.80071 10.2513 3.79993 10.6237 3.79993 11.2002V16.8002C3.79993 17.3768 3.80071 17.7488 3.82385 18.0319C3.84603 18.3032 3.88367 18.4039 3.90892 18.4534C4.00535 18.6427 4.15863 18.7959 4.34572 18.8912C4.39493 18.9163 4.49547 18.9539 4.76679 18.9761C5.04973 18.9992 5.42139 19 5.99684 19H6.60302C7.17848 19 7.54991 18.9992 7.83262 18.9761C8.10358 18.954 8.204 18.9164 8.25333 18.8912C8.44149 18.7953 8.59527 18.6416 8.69115 18.4534C8.71628 18.4041 8.75388 18.3036 8.77603 18.0327C8.79915 17.75 8.79993 17.3786 8.79993 16.8031V11.1969C8.79993 10.6215 8.79915 10.2498 8.77603 9.96686C8.75386 9.69554 8.71623 9.595 8.69115 9.54579C8.59583 9.35871 8.44258 9.20542 8.25333 9.109C8.20378 9.08375 8.10317 9.04611 7.83185 9.02393C7.54874 9.00078 7.17669 9 6.60012 9H6.00012C5.42358 9 5.05118 9.00078 4.76773 9.02393Z" fill="#121212"/>
</svg>
