<svg width="24" height="24" viewBox="0 0 24 24" fill="none" xmlns="http://www.w3.org/2000/svg">
<path fill-rule="evenodd" clip-rule="evenodd" d="M15 5C14.4477 5 14 4.55228 14 4C14 3.44772 14.4477 3 15 3H20C20.5523 3 21 3.44772 21 4V9C21 9.55228 20.5523 10 20 10C19.4477 10 19 9.55228 19 9V6.41421L13.7071 11.7071C13.3166 12.0976 12.6834 12.0976 12.2929 11.7071C11.9024 11.3166 11.9024 10.6834 12.2929 10.2929L17.5858 5H15ZM8.16168 4H10.0002C10.5525 4 11.0002 4.44772 11.0002 5C11.0002 5.55228 10.5525 6 10.0002 6H8.2002C7.62365 6 7.25126 6.00078 6.9678 6.02393C6.69595 6.04613 6.59517 6.08383 6.54579 6.10899C6.35763 6.20487 6.20487 6.35763 6.109 6.54579C6.08383 6.59517 6.04614 6.69595 6.02393 6.9678C6.00078 7.25126 6 7.62365 6 8.2002V15.8002C6 16.3768 6.00078 16.7489 6.02393 17.0322C6.04612 17.3037 6.08378 17.4044 6.109 17.4539C6.20516 17.6426 6.35819 17.7956 6.54579 17.8912C6.59501 17.9163 6.69554 17.9539 6.96686 17.9761C7.2498 17.9992 7.62146 18 8.19691 18H15.8031C16.3786 18 16.75 17.9992 17.0327 17.9761C17.3036 17.9539 17.4041 17.9164 17.4534 17.8912C17.6418 17.7952 17.7955 17.6416 17.8912 17.4536C17.9163 17.4043 17.9539 17.3038 17.9761 17.0328C17.9992 16.75 18 16.3786 18 15.8031V14C18 13.4477 18.4477 13 19 13C19.5523 13 20 13.4477 20 14V15.8416C20 16.3677 20 16.8217 19.9695 17.1958C19.9372 17.5906 19.8659 17.9835 19.6732 18.3616C19.3855 18.9263 18.9257 19.3857 18.3614 19.6732C17.9833 19.8659 17.5905 19.9372 17.1957 19.9695C16.8217 20 16.3677 20 15.8416 20H8.15839C7.6323 20 7.17815 20 6.80397 19.9695C6.40906 19.9372 6.016 19.8659 5.63781 19.6732C5.07276 19.3853 4.61431 18.9258 4.32698 18.3619C4.13421 17.9835 4.06288 17.5904 4.03057 17.1951C3.99997 16.8206 3.99998 16.3659 4 15.8388V8.16168C3.99998 7.6345 3.99997 7.17965 4.03057 6.80498C4.06286 6.40962 4.13416 6.01624 4.32698 5.63781C4.6146 5.07332 5.07332 4.6146 5.63781 4.32698C6.01625 4.13416 6.40962 4.06286 6.80499 4.03057C7.17965 3.99997 7.6345 3.99998 8.16168 4Z" fill="#121212"/>
</svg>
