<svg width="24" height="24" viewBox="0 0 24 24" fill="none" xmlns="http://www.w3.org/2000/svg">
<path fill-rule="evenodd" clip-rule="evenodd" d="M12.4142 4.99998L11.6446 4.23037C11.6248 4.21058 11.6052 4.19093 11.5857 4.17144C11.2985 3.88366 11.0448 3.62946 10.7393 3.44226C10.4721 3.2785 10.1802 3.15668 9.87278 3.08287C9.52432 2.99921 9.16474 2.99955 8.75788 2.99993C8.73032 2.99995 8.70253 2.99998 8.67452 2.99998H5C3.34315 2.99998 2 4.34313 2 5.99998L2 16.8386C1.99998 17.3657 1.99997 17.8203 2.03057 18.1948C2.06289 18.5901 2.13423 18.9831 2.32698 19.3614C2.61405 19.9248 3.07225 20.385 3.63781 20.6732C4.016 20.8659 4.40906 20.9372 4.80397 20.9694C5.17815 21 5.6323 21 6.15839 21H17.8422C18.3683 21 18.8223 21 19.1963 20.9694C19.5912 20.9371 19.9839 20.8659 20.362 20.6732C20.9267 20.3855 21.3857 19.926 21.6732 19.3618C21.866 18.9834 21.9373 18.5902 21.9696 18.1948C22.0003 17.8202 22.0002 17.3654 22.0002 16.8383L22.0002 9.16119C22.0002 8.63405 22.0002 8.1793 21.9696 7.80473C21.9373 7.40938 21.866 7.01617 21.6732 6.63779C21.3851 6.07221 20.9248 5.61403 20.3614 5.32696C19.9831 5.13421 19.5901 5.06287 19.1948 5.03055C18.8203 4.99995 18.3657 4.99996 17.8386 4.99998L12.4142 4.99998ZM4 6.99998V16.8C4 17.3765 4.00078 17.7486 4.02393 18.0318C4.04611 18.3032 4.08376 18.4039 4.109 18.4534C4.20542 18.6426 4.3587 18.7959 4.54579 18.8912C4.59501 18.9163 4.69554 18.9539 4.96686 18.9761C5.2498 18.9992 5.62146 19 6.19691 19H17.8037C18.3792 19 18.7506 18.9992 19.0333 18.9761C19.3043 18.9539 19.4047 18.9163 19.454 18.8912C19.6419 18.7955 19.7952 18.6422 19.8912 18.4538C19.9164 18.4043 19.9541 18.3036 19.9763 18.0319C19.9994 17.7486 20.0002 17.3763 20.0002 16.7998L20.0002 9.19976C20.0002 8.6232 19.9994 8.25093 19.9763 7.96759C19.9541 7.69593 19.9164 7.59521 19.8912 7.54577C19.7959 7.35869 19.6427 7.2054 19.4534 7.10897C19.4039 7.08374 19.3032 7.04609 19.0318 7.0239C18.7487 7.00076 18.3766 6.99998 17.8 6.99998H4ZM8 12C8 11.4477 8.44772 11 9 11H15C15.5523 11 16 11.4477 16 12C16 12.5523 15.5523 13 15 13H9C8.44772 13 8 12.5523 8 12ZM8 15C8 14.4477 8.44772 14 9 14H15C15.5523 14 16 14.4477 16 15C16 15.5523 15.5523 16 15 16H9C8.44772 16 8 15.5523 8 15Z" fill="#121212"/>
</svg>
