<svg width="24" height="24" viewBox="0 0 24 24" fill="none" xmlns="http://www.w3.org/2000/svg">
<path fill-rule="evenodd" clip-rule="evenodd" d="M11.8929 6.13813C11.5875 6.31781 11.4 6.64568 11.4 7V10.3005L3.88567 6.12584C3.57594 5.95377 3.19827 5.95844 2.8929 6.13813C2.58752 6.31781 2.40002 6.64568 2.40002 7V17C2.40002 17.3543 2.58752 17.6822 2.8929 17.8619C3.19827 18.0416 3.57594 18.0462 3.88567 17.8742L11.4 13.6995V17C11.4 17.3543 11.5875 17.6822 11.8929 17.8619C12.1983 18.0416 12.5759 18.0462 12.8857 17.8742L21.8857 12.8742C22.2031 12.6978 22.4 12.3632 22.4 12C22.4 11.6368 22.2031 11.3022 21.8857 11.1258L12.8857 6.12584C12.5759 5.95377 12.1983 5.95844 11.8929 6.13813ZM10.3409 12L4.40002 15.3005V8.69951L10.3409 12ZM19.3409 12L13.4 15.3005V8.69951L19.3409 12Z" fill="#121212"/>
</svg>
