<svg width="24" height="24" viewBox="0 0 24 24" fill="none" xmlns="http://www.w3.org/2000/svg">
<path fill-rule="evenodd" clip-rule="evenodd" d="M9.16168 2L13.678 2C13.798 2 13.909 2 14.0091 2.00091C14.3008 2.00357 14.5804 2.01282 14.8723 2.08289C15.1792 2.15657 15.4716 2.27821 15.7393 2.44228C16.0448 2.62948 16.2985 2.88368 16.5858 3.17147C16.6052 3.19096 16.6248 3.2106 16.6446 3.23039L19.7701 6.35588C19.7888 6.37459 19.8074 6.39313 19.8258 6.41152C20.1158 6.70107 20.3694 6.95424 20.5572 7.2607C20.7212 7.52833 20.843 7.82088 20.9167 8.12789C20.9827 8.40258 20.9949 8.66638 20.9985 8.94073C20.9996 8.96034 21.0002 8.9801 21.0002 9C21.0002 9.01337 20.9999 9.02669 20.9994 9.03993C21 9.12793 21 9.22354 21 9.32569V17.8421C21 18.3681 21 18.8221 20.9695 19.1962C20.9372 19.591 20.8659 19.9838 20.6732 20.3619C20.3855 20.9267 19.9258 21.3858 19.3616 21.6732C18.9835 21.8659 18.5906 21.9372 18.1958 21.9695C17.8217 22 17.3677 22 16.8416 22L13 22C12.4477 22 12 21.5523 12 21C12 20.4477 12.4477 20 13 20L16.8031 20C17.3785 20 17.75 19.9992 18.0328 19.9761C18.3038 19.9539 18.4043 19.9163 18.4536 19.8912C18.6421 19.7952 18.7955 19.6418 18.8912 19.4539C18.9164 19.4046 18.9539 19.3041 18.9761 19.0332C18.9992 18.7505 19 18.379 19 17.8036V10L17.1584 10C16.6323 10 16.1782 10 15.804 9.96946C15.4091 9.93719 15.016 9.86593 14.6378 9.67323C14.0724 9.38517 13.6142 8.9252 13.327 8.36158C13.1342 7.98326 13.0629 7.59018 13.0306 7.19486C13 6.82037 13 6.36569 13 5.83857V4H9.2002C8.62365 4 8.25126 4.00078 7.9678 4.02393C7.69595 4.04614 7.59517 4.08383 7.54579 4.109C7.35763 4.20487 7.20487 4.35763 7.10899 4.54579C7.08383 4.59517 7.04613 4.69595 7.02393 4.9678C7.00078 5.25126 7 5.62365 7 6.2002V11.0002C7 11.5525 6.55228 12.0002 6 12.0002C5.44772 12.0002 5 11.5525 5 11.0002L5 6.16168C4.99998 5.63451 4.99997 5.17965 5.03057 4.80499C5.06286 4.40962 5.13416 4.01625 5.32698 3.63781C5.6146 3.07332 6.07332 2.6146 6.63781 2.32698C7.01624 2.13416 7.40962 2.06286 7.80498 2.03057C8.17965 1.99997 8.6345 1.99998 9.16168 2ZM15 4.41605V5.8C15 6.37656 15.0008 6.74872 15.0239 7.03195C15.0461 7.30344 15.0838 7.4041 15.109 7.4536C15.2053 7.64264 15.3585 7.79579 15.5458 7.89122C15.595 7.9163 15.6955 7.95393 15.9669 7.9761C16.2498 7.99922 16.6215 8 17.1969 8H18.5839C18.5238 7.93858 18.4492 7.86343 18.3559 7.77009L15.2304 4.64461C15.1368 4.55106 15.0615 4.4763 15 4.41605ZM10.7929 10.2929C11.1834 9.90237 11.8166 9.90237 12.2071 10.2929L14.7071 12.7929C15.0976 13.1834 15.0976 13.8166 14.7071 14.2071L7.20711 21.7071C7.01957 21.8946 6.76522 22 6.5 22H4C3.44772 22 3 21.5523 3 21V18.5C3 18.2348 3.10536 17.9804 3.29289 17.7929L10.7929 10.2929ZM5 18.9142V20H6.08579L9.83579 16.25L8.75 15.1642L5 18.9142ZM10.1642 13.75L11.25 14.8358L12.5858 13.5L11.5 12.4142L10.1642 13.75Z" fill="#121212"/>
</svg>
