<svg width="24" height="24" viewBox="0 0 24 24" fill="none" xmlns="http://www.w3.org/2000/svg">
<path fill-rule="evenodd" clip-rule="evenodd" d="M9.35661 4.99995C9.35033 4.99995 9.34388 4.99995 9.33726 4.99995H4.6C4.59148 4.99995 4.58306 4.99995 4.57475 4.99995H9.35661ZM12.4142 4.99995L11.1757 3.76147C11.164 3.74975 11.152 3.73768 11.1397 3.72532C11.0058 3.59067 10.8371 3.42112 10.6308 3.29467C10.4518 3.18501 10.2568 3.1042 10.0527 3.05521C9.81735 2.99871 9.57821 2.99935 9.3883 2.99985C9.37086 2.9999 9.35383 2.99995 9.33726 2.99995H4.6C4.58936 2.99995 4.57873 2.99995 4.56811 2.99994C4.31572 2.99991 4.06993 2.99988 3.86178 3.01689C3.63318 3.03557 3.36345 3.07964 3.09202 3.21793C2.7157 3.40968 2.40974 3.71564 2.21799 4.09197C2.07969 4.36339 2.03563 4.63312 2.01695 4.86172C1.99994 5.06988 1.99997 5.31567 2 5.56805C2 5.57867 2.00001 5.5893 2.00001 5.59994L2 16.8385C1.99998 17.3656 1.99997 17.8204 2.03057 18.195C2.06287 18.5903 2.13419 18.9835 2.32698 19.3619C2.6146 19.9264 3.07354 20.3853 3.63803 20.673C4.01641 20.8658 4.40963 20.9371 4.80497 20.9694C5.17954 21 5.6343 21 6.16144 20.9999L7 20.9999C7.55229 20.9999 8 20.5522 8 19.9999C8 19.4477 7.55229 18.9999 7 18.9999H6.2C5.62345 18.9999 5.25118 18.9992 4.96784 18.976C4.69618 18.9538 4.59546 18.9161 4.54601 18.891C4.35785 18.7951 4.20487 18.6421 4.109 18.4539C4.0838 18.4045 4.04613 18.3038 4.02393 18.0321C4.00078 17.7488 4 17.3765 4 16.7999L4 6.99995H17.8C18.3766 6.99995 18.7488 7.00073 19.0322 7.02388C19.3038 7.04607 19.4046 7.08375 19.454 7.10894C19.6422 7.20482 19.7951 7.3578 19.891 7.54596C19.9162 7.5954 19.9539 7.69612 19.9761 7.96778C19.9992 8.25112 20 8.62339 20 9.19995V9.24995C20 9.80223 20.4477 10.2499 21 10.2499C21.5523 10.2499 22 9.80223 22 9.24995V9.16138C22 8.63424 22 8.17949 21.9694 7.80492C21.9371 7.40958 21.8658 7.01636 21.673 6.63798C21.3854 6.07349 20.9265 5.61455 20.362 5.32693C19.9836 5.13414 19.5904 5.06282 19.195 5.03052C18.8205 4.99991 18.3657 4.99993 17.8386 4.99995L12.4142 4.99995ZM18.5 9.99995C18.7652 9.99995 19.0196 10.1053 19.2071 10.2928L21.7071 12.7928C22.0976 13.1834 22.0976 13.8165 21.7071 14.2071L14.2071 21.7071C14.0196 21.8946 13.7652 21.9999 13.5 21.9999H11C10.4477 21.9999 10 21.5522 10 20.9999V18.4999C10 18.2347 10.1054 17.9804 10.2929 17.7928L17.7929 10.2928C17.9804 10.1053 18.2348 9.99995 18.5 9.99995ZM12 18.9142V19.9999H13.0858L16.8358 16.2499L15.75 15.1642L12 18.9142ZM17.1642 13.7499L18.25 14.8357L19.5858 13.4999L18.5 12.4142L17.1642 13.7499Z" fill="#121212"/>
</svg>
