<svg width="24" height="24" viewBox="0 0 24 24" fill="none" xmlns="http://www.w3.org/2000/svg">
<path fill-rule="evenodd" clip-rule="evenodd" d="M12.4142 4.99998L11.6446 4.23037C11.6248 4.21058 11.6052 4.19093 11.5857 4.17144C11.2985 3.88365 11.0448 3.62946 10.7393 3.44226C10.4718 3.27832 10.1796 3.1566 9.87249 3.08287C9.52404 2.99921 9.16473 2.99955 8.75786 2.99993C8.7303 2.99995 8.70253 2.99998 8.67452 2.99998H5C3.34315 2.99998 2 4.34313 2 5.99998L2 16.8385C1.99998 17.3657 1.99997 17.8203 2.03057 18.1948C2.06288 18.5902 2.13422 18.9832 2.32698 19.3616C2.61416 19.9252 3.07245 20.3851 3.63781 20.6732C4.016 20.8659 4.40906 20.9372 4.80397 20.9694C5.17815 21 5.6323 21 6.15839 21H17.8416C18.3677 21 18.8217 21 19.1957 20.9694C19.5905 20.9371 19.9833 20.8659 20.3614 20.6732C20.9255 20.3858 21.3854 19.9267 21.6732 19.3618C21.866 18.9834 21.9373 18.5902 21.9696 18.1948C22.0003 17.8202 22.0002 17.3654 22.0002 16.8383L22.0002 9.16119C22.0002 8.63405 22.0002 8.1793 21.9696 7.80473C21.9373 7.40938 21.866 7.01617 21.6732 6.63779C21.3852 6.07242 20.9252 5.61413 20.3616 5.32696C19.9833 5.13419 19.5902 5.06286 19.1949 5.03055C18.8204 4.99995 18.3657 4.99996 17.8386 4.99998L12.4142 4.99998ZM4 6.99998V16.8C4 17.3765 4.00078 17.7487 4.02393 18.0319C4.04612 18.3034 4.08377 18.4041 4.109 18.4536C4.20531 18.6426 4.3585 18.7958 4.54579 18.8912C4.59501 18.9163 4.69554 18.9539 4.96686 18.9761C5.2498 18.9992 5.62146 19 6.19691 19H17.8031C18.3786 19 18.75 18.9992 19.0327 18.9761C19.3036 18.9539 19.4041 18.9163 19.4534 18.8912C19.642 18.7951 19.7956 18.6415 19.8912 18.4538C19.9164 18.4043 19.9541 18.3036 19.9763 18.0319C19.9994 17.7486 20.0002 17.3763 20.0002 16.7998L20.0002 9.19976C20.0002 8.6232 19.9994 8.25093 19.9763 7.96759C19.9541 7.69593 19.9164 7.59521 19.8912 7.54577C19.7958 7.35848 19.6426 7.20529 19.4536 7.10897C19.4041 7.08375 19.3034 7.04609 19.0319 7.02391C18.7487 7.00076 18.3766 6.99998 17.8 6.99998H4Z" fill="#121212"/>
</svg>
