<svg width="24" height="24" viewBox="0 0 24 24" fill="none" xmlns="http://www.w3.org/2000/svg">
<path d="M14.293 12.293C14.6835 11.9025 15.3165 11.9025 15.707 12.293C16.0975 12.6835 16.0975 13.3165 15.707 13.707L11.707 17.707C11.3165 18.0976 10.6835 18.0975 10.293 17.707L8.29297 15.707C7.90245 15.3165 7.90245 14.6835 8.29297 14.293C8.6835 13.9025 9.31653 13.9025 9.70703 14.293L11 15.5859L14.293 12.293Z" fill="#121212"/>
<path fill-rule="evenodd" clip-rule="evenodd" d="M13.0088 2.00098C13.3004 2.00363 13.5802 2.01297 13.8721 2.08301C14.1789 2.15668 14.4715 2.27831 14.7393 2.44238C15.0447 2.62958 15.2987 2.88409 15.5859 3.17188C15.6053 3.19127 15.6248 3.21078 15.6445 3.23047L18.7705 6.35547C18.7892 6.37418 18.8078 6.39274 18.8262 6.41113C19.1162 6.70069 19.3698 6.95428 19.5576 7.26074C19.7216 7.52831 19.8433 7.821 19.917 8.12793C19.9829 8.40248 19.9945 8.66622 19.998 8.94043C19.9992 8.96004 20 8.9801 20 9C20 9.01337 19.9995 9.0268 19.999 9.04004C19.9996 9.12801 20 9.22407 20 9.32617V17.8418C20 18.3678 20.0003 18.8223 19.9697 19.1963C19.9374 19.5911 19.8655 19.9843 19.6729 20.3623C19.385 20.927 18.9251 21.3856 18.3613 21.6729C17.9833 21.8655 17.5902 21.9374 17.1953 21.9697C16.8214 22.0003 16.3676 22 15.8418 22H8.1582C7.6322 22 7.17785 22.0003 6.80371 21.9697C6.40888 21.9374 6.01581 21.8655 5.6377 21.6729C5.0729 21.385 4.61445 20.926 4.32715 20.3623C4.13441 19.984 4.06259 19.5906 4.03028 19.1953C3.99967 18.8208 3.99998 18.366 4 17.8389V6.16211C3.99998 5.63494 3.99967 5.17935 4.03028 4.80469C4.06258 4.40941 4.13437 4.01605 4.32715 3.6377C4.61475 3.07333 5.07334 2.61475 5.6377 2.32715C6.01605 2.13437 6.40941 2.06258 6.80469 2.03028C7.17935 1.99967 7.63494 1.99998 8.16211 2H12.6777C12.7976 2 12.9088 2.00007 13.0088 2.00098ZM8.2002 4C7.62365 4 7.25123 4.00126 6.96778 4.02442C6.69598 4.04662 6.59528 4.08422 6.5459 4.10938C6.35779 4.20524 6.20524 4.35779 6.10938 4.5459C6.08422 4.59528 6.04662 4.69598 6.02442 4.96778C6.00126 5.25123 6 5.62365 6 6.2002V17.7998C6 18.3764 6.00127 18.749 6.02442 19.0322C6.04661 19.3037 6.08416 19.4046 6.10938 19.4541C6.20555 19.6427 6.35841 19.7961 6.5459 19.8916C6.5952 19.9167 6.69594 19.9544 6.9668 19.9766C7.24974 19.9997 7.62181 20 8.19727 20H15.8027C16.3779 20 16.7496 19.9996 17.0322 19.9766C17.3025 19.9545 17.4037 19.9167 17.4531 19.8916C17.6418 19.7955 17.796 19.6417 17.8916 19.4541C17.9167 19.4048 17.9544 19.3042 17.9766 19.0332C17.9997 18.7505 18 18.3791 18 17.8037V10H16.1582C15.6322 10 15.1779 10.0003 14.8037 9.96973C14.4089 9.93745 14.0158 9.86551 13.6377 9.67285C13.0725 9.38478 12.6143 8.92486 12.3272 8.36133C12.1345 7.98318 12.0626 7.59045 12.0303 7.19531C11.9997 6.8209 12 6.36587 12 5.83887V4H8.2002ZM14 5.79981C14 6.37637 14.0013 6.749 14.0244 7.03223C14.0466 7.30306 14.0842 7.40357 14.1094 7.45313C14.2057 7.64216 14.3586 7.79617 14.5459 7.8916C14.5952 7.91668 14.6959 7.95443 14.9668 7.97656C15.2497 7.99969 15.6218 8 16.1973 8H17.584C17.5239 7.93858 17.4488 7.86385 17.3555 7.77051L14.2305 4.64453C14.1369 4.55098 14.0615 4.47627 14 4.41602V5.79981Z" fill="#121212"/>
</svg>
