<svg width="24" height="24" viewBox="0 0 24 24" fill="none" xmlns="http://www.w3.org/2000/svg">
<path fill-rule="evenodd" clip-rule="evenodd" d="M4 11C4 6.58172 7.58172 3 12 3C16.4183 3 20 6.58172 20 11C20 11.0568 19.9953 11.1124 19.9862 11.1666C20.9806 11.5124 21.7328 12.3614 21.9422 13.4143C22.0006 13.7077 22.0003 14.0363 22 14.4185C22 14.4454 22 14.4726 22 14.5V16.5C22 16.5274 22 16.5546 22 16.5815C22.0003 16.9637 22.0006 17.2919 21.9422 17.5853C21.7056 18.775 20.7757 19.7059 19.5853 19.9427C19.2924 20.001 18.9646 20.0007 18.5839 20.0004C18.5562 20.0004 18.5282 20.0003 18.5 20.0003C18.4718 20.0003 18.4438 20.0004 18.4161 20.0004C18.0354 20.0007 17.7076 20.001 17.4148 19.9427C16.2245 19.7059 15.2943 18.7751 15.0576 17.5853C14.9994 17.2924 14.9996 16.9646 15 16.5839C15 16.5562 15 16.5282 15 16.5V14.5C15 14.4718 15 14.4438 15 14.4161C14.9996 14.0354 14.9994 13.7071 15.0576 13.4143C15.2944 12.2239 16.225 11.2943 17.4148 11.0576C17.5952 11.0218 17.7889 11.0081 18 11.0029L18 11C18 7.68629 15.3137 5 12 5C8.68629 5 6 7.68629 6 11L5.99999 11.0029C6.21113 11.0081 6.4048 11.0218 6.58522 11.0576C7.77505 11.2943 8.70544 12.224 8.94221 13.4143C9.00057 13.7077 9.00032 14.0363 9.00004 14.4185C9.00002 14.4454 9 14.4726 9 14.5V16.5C9 16.5274 9.00002 16.5546 9.00004 16.5815C9.00032 16.9637 9.00056 17.2919 8.94221 17.5853C8.70555 18.775 7.77561 19.7059 6.58522 19.9427C6.29237 20.001 5.96461 20.0007 5.58391 20.0004C5.55624 20.0004 5.52828 20.0003 5.50004 20.0003C5.4718 20.0003 5.44384 20.0004 5.41617 20.0004C5.03547 20.0007 4.70763 20.001 4.41477 19.9427C3.22448 19.7059 2.29432 18.7751 2.05764 17.5853C1.99939 17.2924 1.99965 16.9646 1.99995 16.5839C1.99997 16.5562 2 16.5282 2 16.5V14.5C2 14.4717 1.99997 14.4438 1.99995 14.4161C1.99965 14.0354 1.99939 13.7071 2.05764 13.4143C2.2671 12.3613 3.01945 11.5124 4.01381 11.1666C4.00473 11.1124 4 11.0568 4 11ZM5.50004 13C4.98745 13 4.8772 13.0048 4.80495 13.0192C4.40791 13.0982 4.09805 13.4081 4.01921 13.8045C4.00484 13.8767 4 13.9874 4 14.5V16.5C4 17.0126 4.00484 17.1228 4.01921 17.1951C4.09816 17.592 4.40847 17.9023 4.80495 17.9811C4.8772 17.9955 4.98746 18.0003 5.50004 18.0003C6.01261 18.0003 6.12279 17.9955 6.19504 17.9811C6.59141 17.9023 6.90167 17.5921 6.98064 17.1951C6.99503 17.1227 7 17.012 7 16.5V14.5C7 13.9879 6.99503 13.8768 6.98064 13.8045C6.90178 13.408 6.59198 13.0982 6.19504 13.0192C6.12279 13.0048 6.01261 13 5.50004 13ZM18.5 13C17.9874 13 17.8772 13.0048 17.8049 13.0192C17.4079 13.0982 17.098 13.4081 17.0192 13.8045C17.0048 13.8767 17 13.9874 17 14.5V16.5C17 17.0126 17.0048 17.1228 17.0192 17.1951C17.0982 17.592 17.4085 17.9023 17.8049 17.9811C17.8772 17.9955 17.9874 18.0003 18.5 18.0003C19.0126 18.0003 19.1228 17.9955 19.1951 17.9811C19.5914 17.9023 19.9017 17.5921 19.9806 17.1951C19.995 17.1227 20 17.012 20 16.5V14.5C20 13.9879 19.995 13.8768 19.9806 13.8045C19.9018 13.408 19.592 13.0982 19.1951 13.0192C19.1228 13.0048 19.0126 13 18.5 13Z" fill="#121212"/>
</svg>
