<svg width="24" height="24" viewBox="0 0 24 24" fill="none" xmlns="http://www.w3.org/2000/svg">
<path fill-rule="evenodd" clip-rule="evenodd" d="M11.9088 4.69877C11.7237 4.64403 11.5261 4.64403 11.341 4.69877C11.2899 4.71389 11.2002 4.75121 11.0094 4.89394C10.8084 5.04418 10.5622 5.25877 10.1779 5.59501L5.37628 9.7964C4.93623 10.1814 4.85365 10.2644 4.79808 10.3463C4.73317 10.4419 4.68585 10.5462 4.65748 10.6547C4.63259 10.75 4.625 10.8655 4.625 11.4522V17.0002C4.625 17.4798 4.62554 17.7894 4.64171 18.0263C4.65726 18.2542 4.68387 18.341 4.70112 18.3827C4.80289 18.6284 4.99769 18.8231 5.24206 18.9243C5.28367 18.9416 5.3705 18.9682 5.5985 18.9838C5.83548 18.9999 6.14512 19.0005 6.62474 19.0005C7.10435 19.0005 7.41414 18.9999 7.65127 18.9838C7.8795 18.9682 7.9664 18.9415 8.00794 18.9243C8.25229 18.8231 8.447 18.6285 8.54878 18.3828C8.56604 18.3411 8.59267 18.2542 8.60824 18.0262C8.62443 17.7893 8.625 17.4796 8.625 17.0001V16.0001C8.625 14.3432 9.96814 13.0001 11.625 13.0001C13.2819 13.0001 14.625 14.3432 14.625 16.0001V17.0001C14.625 17.4797 14.6255 17.7893 14.6417 18.0263C14.6573 18.2543 14.6839 18.3411 14.7011 18.3828C14.8029 18.6284 14.9976 18.8231 15.2421 18.9243C15.2837 18.9416 15.3705 18.9682 15.5985 18.9838C15.8355 18.9999 16.1451 19.0005 16.6247 19.0005C17.1044 19.0005 17.4141 18.9999 17.6513 18.9838C17.8795 18.9682 17.9664 18.9415 18.0079 18.9243C18.2522 18.8232 18.447 18.6285 18.5488 18.3827C18.5661 18.341 18.5927 18.2541 18.6082 18.0262C18.6244 17.7893 18.625 17.4797 18.625 17.0002V11.4522C18.625 10.867 18.617 10.7504 18.5921 10.6547C18.5632 10.5443 18.516 10.4403 18.4522 10.3463C18.3966 10.2645 18.3141 10.1816 17.8739 9.7964L13.0739 5.5964C12.6891 5.25971 12.4424 5.04478 12.2412 4.89434C12.05 4.75139 11.9601 4.71395 11.9088 4.69877ZM10.7738 2.78087C11.3291 2.61666 11.9207 2.61666 12.476 2.78087C12.8448 2.88994 13.1516 3.07786 13.4388 3.29252C13.7093 3.49482 14.0144 3.76173 14.3654 4.06893L19.1909 8.29125C19.2123 8.30998 19.2336 8.32853 19.2547 8.34695C19.5922 8.64179 19.8875 8.89976 20.1069 9.22299C20.299 9.50587 20.4408 9.81887 20.5271 10.1491C20.6258 10.5268 20.6254 10.919 20.625 11.3664C20.625 11.3948 20.625 11.4234 20.625 11.4522V17.0307C20.625 17.47 20.625 17.849 20.6036 18.1626C20.5811 18.4924 20.5315 18.8222 20.3965 19.148C20.0924 19.8824 19.5091 20.4673 18.7733 20.7721C18.4473 20.9071 18.1172 20.9566 17.7874 20.9791C17.474 21.0005 17.0953 21.0005 16.6566 21.0005H16.5928C16.1541 21.0005 15.7756 21.0005 15.4624 20.9791C15.1325 20.9566 14.8026 20.9071 14.4767 20.7721C13.741 20.4674 13.1576 19.8826 12.8534 19.1481C12.7184 18.8222 12.6689 18.4923 12.6463 18.1625C12.625 17.8492 12.625 17.4707 12.625 17.0321V16.0001C12.625 15.4478 12.1773 15.0001 11.625 15.0001C11.0727 15.0001 10.625 15.4478 10.625 16.0001L10.625 17.0306C10.625 17.4699 10.625 17.8489 10.6036 18.1625C10.5811 18.4924 10.5315 18.8223 10.3965 19.1481C10.0923 19.8825 9.50907 20.4673 8.77331 20.7721C8.44731 20.9071 8.11721 20.9566 7.78735 20.9791C7.47396 21.0005 7.09534 21.0005 6.65663 21.0005H6.59275C6.1541 21.0005 5.77562 21.0005 5.46236 20.9791C5.13253 20.9566 4.80262 20.9071 4.47669 20.7721C3.74094 20.4673 3.15757 19.8825 2.85336 19.148C2.71837 18.8221 2.66886 18.4923 2.64635 18.1625C2.62498 17.8492 2.62499 17.4708 2.625 17.0322L2.625 11.4522C2.625 11.4215 2.62497 11.3911 2.62494 11.3609C2.62449 10.917 2.62409 10.5255 2.72246 10.1491C2.80925 9.81696 2.95242 9.50423 3.14333 9.22299C3.36283 8.89964 3.65816 8.64166 3.99599 8.34656C4.01692 8.32827 4.03802 8.30984 4.05927 8.29125L8.86086 4.08986L8.88752 4.06653C9.23749 3.76029 9.54174 3.49405 9.81168 3.2922C10.0985 3.07774 10.4052 2.8899 10.7738 2.78087Z" fill="#121212"/>
</svg>
