<svg width="24" height="24" viewBox="0 0 24 24" fill="none" xmlns="http://www.w3.org/2000/svg">
<path fill-rule="evenodd" clip-rule="evenodd" d="M12.0338 4.69877C11.8487 4.64403 11.6511 4.64403 11.466 4.69877C11.4149 4.71389 11.3252 4.75121 11.1344 4.89394C10.9334 5.04418 10.6872 5.25877 10.3029 5.59501L5.50128 9.7964C5.06123 10.1814 4.97865 10.2644 4.92308 10.3463C4.85817 10.4419 4.81085 10.5462 4.78248 10.6547C4.75759 10.75 4.75 10.8655 4.75 11.4522V16.8002C4.75 17.3767 4.75078 17.7491 4.77393 18.0326C4.79613 18.3044 4.83383 18.4052 4.85899 18.4546C4.95483 18.6427 5.10756 18.7954 5.29579 18.8913C5.345 18.9164 5.44554 18.954 5.71686 18.9762C5.9998 18.9993 6.37146 19.0001 6.94691 19.0001H16.5531C17.1286 19.0001 17.5 18.9993 17.7827 18.9762C18.0536 18.954 18.1541 18.9164 18.2034 18.8913C18.3927 18.7948 18.5459 18.6416 18.6412 18.4546C18.6663 18.4053 18.7039 18.3048 18.7261 18.0336C18.7492 17.7507 18.75 17.3791 18.75 16.8037V11.4522C18.75 10.867 18.742 10.7504 18.7171 10.6547C18.6882 10.5443 18.641 10.4403 18.5772 10.3463C18.5216 10.2645 18.4391 10.1816 17.9989 9.7964L13.1989 5.5964C12.8141 5.25971 12.5674 5.04478 12.3662 4.89434C12.175 4.75139 12.0851 4.71395 12.0338 4.69877ZM10.8988 2.78087C11.4541 2.61666 12.0457 2.61666 12.601 2.78087C12.9698 2.88994 13.2766 3.07786 13.5638 3.29252C13.8343 3.49482 14.1394 3.76173 14.4904 4.06893L19.3159 8.29125C19.3373 8.30998 19.3586 8.32853 19.3797 8.34695C19.7172 8.64179 20.0125 8.89976 20.2319 9.22299C20.424 9.50587 20.5658 9.81887 20.6521 10.1491C20.7508 10.5268 20.7504 10.919 20.75 11.3664C20.75 11.3948 20.75 11.4234 20.75 11.4522V16.8422C20.75 17.3683 20.75 17.8224 20.7195 18.1965C20.6872 18.5914 20.6159 18.9844 20.4232 19.3625C20.135 19.9282 19.6747 20.3863 19.1114 20.6733C18.7333 20.8659 18.3405 20.9372 17.9457 20.9695C17.5717 21.0001 17.1177 21.0001 16.5916 21.0001H6.90839C6.3823 21.0001 5.92815 21.0001 5.55396 20.9695C5.15906 20.9373 4.76599 20.866 4.38781 20.6733C3.82338 20.3857 3.36463 19.9271 3.07698 19.3625C2.88416 18.9841 2.81286 18.5907 2.78057 18.1954C2.74996 17.8207 2.74998 17.3659 2.75 16.8387L2.75 11.4522C2.75 11.4215 2.74997 11.3911 2.74994 11.3609C2.74949 10.917 2.74909 10.5255 2.84746 10.1491C2.93425 9.81696 3.07742 9.50423 3.26833 9.22299C3.48783 8.89964 3.78316 8.64166 4.12099 8.34656C4.14192 8.32827 4.16302 8.30984 4.18427 8.29125L8.98586 4.08986L9.01252 4.06653C9.36249 3.76029 9.66674 3.49405 9.93668 3.2922C10.2235 3.07774 10.5302 2.8899 10.8988 2.78087Z" fill="#121212"/>
</svg>
