<svg width="24" height="24" viewBox="0 0 24 24" fill="none" xmlns="http://www.w3.org/2000/svg">
<path fill-rule="evenodd" clip-rule="evenodd" d="M12.1588 4.69877C11.9737 4.64403 11.7761 4.64403 11.591 4.69877C11.5399 4.71389 11.4502 4.75121 11.2594 4.89394C11.0584 5.04419 10.8121 5.25877 10.4279 5.59502L5.62628 9.7964C5.18623 10.1814 5.10365 10.2644 5.04808 10.3463C4.98317 10.4419 4.93585 10.5462 4.90749 10.6547C4.88259 10.75 4.875 10.8655 4.875 11.4522V19.0001H8.875V16.0001C8.875 14.3432 10.2181 13.0001 11.875 13.0001C13.5319 13.0001 14.875 14.3432 14.875 16.0001V19.0001H18.875V11.4522C18.875 10.867 18.867 10.7504 18.8421 10.6547C18.8132 10.5443 18.766 10.4403 18.7022 10.3463C18.6466 10.2645 18.5641 10.1816 18.1239 9.7964L13.3239 5.5964C12.9391 5.25971 12.6924 5.04478 12.4912 4.89434C12.3 4.75139 12.2101 4.71395 12.1588 4.69877ZM20.875 19.0001V11.4522C20.875 11.4234 20.875 11.3948 20.875 11.3664C20.8754 10.919 20.8758 10.5268 20.7771 10.1491C20.6908 9.81888 20.549 9.50587 20.3569 9.22299C20.1375 8.89977 19.8422 8.6418 19.5047 8.34698C19.4836 8.32855 19.4623 8.30999 19.4409 8.29125L14.6154 4.06893C14.2644 3.76173 13.9593 3.49482 13.6888 3.29252C13.4016 3.07786 13.0948 2.88994 12.726 2.78087C12.1707 2.61666 11.5791 2.61666 11.0238 2.78087C10.6552 2.8899 10.3485 3.07774 10.0617 3.2922C9.79174 3.49405 9.48749 3.76029 9.13753 4.06652L9.11086 4.08986L4.30927 8.29125C4.28802 8.30984 4.26693 8.32827 4.24599 8.34655C3.90816 8.64166 3.61283 8.89964 3.39333 9.22299C3.20242 9.50423 3.05925 9.81696 2.97246 10.1491C2.87409 10.5255 2.87449 10.917 2.87494 11.3609C2.87497 11.3911 2.875 11.4215 2.875 11.4522V19.0001H1.875C1.32272 19.0001 0.875 19.4478 0.875 20.0001C0.875 20.5524 1.32272 21.0001 1.875 21.0001H21.875C22.4273 21.0001 22.875 20.5524 22.875 20.0001C22.875 19.4478 22.4273 19.0001 21.875 19.0001H20.875ZM12.875 19.0001V16.0001C12.875 15.4478 12.4273 15.0001 11.875 15.0001C11.3227 15.0001 10.875 15.4478 10.875 16.0001V19.0001H12.875Z" fill="#121212"/>
</svg>
