<svg width="24" height="24" viewBox="0 0 24 24" fill="none" xmlns="http://www.w3.org/2000/svg">
<path fill-rule="evenodd" clip-rule="evenodd" d="M12 4C7.58172 4 4 7.58172 4 12C4 16.4183 7.58172 20 12 20C16.4183 20 20 16.4183 20 12C20 7.58172 16.4183 4 12 4ZM2 12C2 6.47715 6.47715 2 12 2C17.5228 2 22 6.47715 22 12C22 17.5228 17.5228 22 12 22C6.47715 22 2 17.5228 2 12Z" fill="#121212"/>
<path fill-rule="evenodd" clip-rule="evenodd" d="M14 8.10293C14 8.71232 13.4879 9.20586 12.8571 9.20586C12.2257 9.20586 11.7143 8.71232 11.7143 8.10293C11.7143 7.49354 12.2257 7 12.8571 7C13.4879 7 14 7.49354 14 8.10293ZM10.5715 10.7448L13.0668 10.3932C13.1975 10.3746 13.3041 10.4925 13.2671 10.6152L11.7961 15.5252C11.7322 15.8542 12.5753 15.3977 13.1549 15.0502C13.3098 14.9569 13.4859 15.1064 13.3957 15.2592C12.9397 16.0318 11.9801 17.3204 10.8281 16.927C9.66887 16.5315 9.96009 15.6301 10.311 14.5464C10.3649 14.3778 10.4211 14.2057 10.4729 14.0296C10.6015 13.5943 10.7648 13.1576 10.909 12.7717C11.1981 11.9985 11.4098 11.4316 11.11 11.5043C10.7542 11.59 10.3145 11.274 10.4388 10.849C10.4551 10.7914 10.5097 10.753 10.5715 10.7448Z" fill="#121212"/>
</svg>
