<svg width="24" height="24" viewBox="0 0 24 24" fill="none" xmlns="http://www.w3.org/2000/svg">
<path fill-rule="evenodd" clip-rule="evenodd" d="M4 7C4 6.44772 4.44772 6 5 6H5.00195C5.55424 6 6.00195 6.44772 6.00195 7V7.002C6.00195 7.27138 5.89328 7.52936 5.70053 7.71754C5.50778 7.90572 5.24726 8.00818 4.97796 8.00171L4.97601 8.00167C4.43323 7.98864 4 7.54489 4 7.00195V7ZM8 7C8 6.44772 8.44772 6 9 6H19C19.5523 6 20 6.44772 20 7C20 7.55228 19.5523 8 19 8H9C8.44772 8 8 7.55228 8 7ZM4 12C4 11.4477 4.44772 11 5 11H5.00195C5.55424 11 6.00195 11.4477 6.00195 12V12.002C6.00195 12.2714 5.89329 12.5293 5.70055 12.7175C5.50782 12.9057 5.24732 13.0082 4.97803 13.0017L4.97608 13.0017C4.43327 12.9887 4 12.5449 4 12.002V12ZM8 12C8 11.4477 8.44772 11 9 11H19C19.5523 11 20 11.4477 20 12C20 12.5523 19.5523 13 19 13H9C8.44772 13 8 12.5523 8 12ZM4 17C4 16.4477 4.44772 16 5 16H5.00195C5.55424 16 6.00195 16.4477 6.00195 17V17.002C6.00195 17.2714 5.89329 17.5293 5.70055 17.7175C5.50782 17.9057 5.24732 18.0082 4.97803 18.0017L4.97608 18.0017C4.43327 17.9887 4 17.5449 4 17.002V17ZM8 17C8 16.4477 8.44772 16 9 16H19C19.5523 16 20 16.4477 20 17C20 17.5523 19.5523 18 19 18H9C8.44772 18 8 17.5523 8 17Z" fill="#121212"/>
</svg>
