<svg width="24" height="24" viewBox="0 0 24 24" fill="none" xmlns="http://www.w3.org/2000/svg">
<path fill-rule="evenodd" clip-rule="evenodd" d="M11.6452 1.16795C11.9811 0.944017 12.4187 0.944017 12.7546 1.16795L21.7546 7.16795C22.0328 7.35342 22.1999 7.66565 22.1999 8C22.1999 8.33435 22.0328 8.64658 21.7546 8.83205L12.7546 14.8321C12.4187 15.056 11.9811 15.056 11.6452 14.8321L2.64524 8.83205C2.36704 8.64658 2.19994 8.33435 2.19994 8C2.19994 7.66565 2.36704 7.35342 2.64524 7.16795L11.6452 1.16795ZM5.00271 8L12.1999 12.7982L19.3972 8L12.1999 3.20185L5.00271 8ZM2.36789 11.4453C2.67424 10.9858 3.29511 10.8616 3.75464 11.1679L12.1999 16.7982L20.6452 11.1679C21.1048 10.8616 21.7256 10.9858 22.032 11.4453C22.3383 11.9048 22.2142 12.5257 21.7546 12.8321L12.7546 18.8321C12.4187 19.056 11.9811 19.056 11.6452 18.8321L2.64524 12.8321C2.18571 12.5257 2.06153 11.9048 2.36789 11.4453ZM2.36789 15.4453C2.67424 14.9858 3.29511 14.8616 3.75464 15.1679L12.1999 20.7981L20.6452 15.1679C21.1048 14.8616 21.7256 14.9858 22.032 15.4453C22.3383 15.9048 22.2142 16.5257 21.7546 16.8321L12.7546 22.8321C12.4187 23.056 11.9811 23.056 11.6452 22.8321L2.64524 16.8321C2.18571 16.5257 2.06153 15.9048 2.36789 15.4453Z" fill="#121212"/>
</svg>
