<svg width="24" height="24" viewBox="0 0 24 24" fill="none" xmlns="http://www.w3.org/2000/svg">
<path d="M8 18V16C8 15.4477 8.44772 15 9 15C9.55228 15 10 15.4477 10 16V18C10 18.2652 10.1054 18.5195 10.293 18.707C10.4805 18.8946 10.7348 19 11 19H18C18.2652 19 18.5195 18.8946 18.707 18.707C18.8946 18.5195 19 18.2652 19 18V6C19 5.73478 18.8946 5.48051 18.707 5.29297C18.5195 5.10543 18.2652 5 18 5H11C10.7348 5 10.4805 5.10543 10.293 5.29297C10.1054 5.48051 10 5.73478 10 6V8C10 8.55228 9.55228 9 9 9C8.44772 9 8 8.55228 8 8V6C8 5.20435 8.3163 4.44151 8.87891 3.87891C9.44151 3.3163 10.2044 3 11 3H18C18.7956 3 19.5585 3.3163 20.1211 3.87891C20.6837 4.44152 21 5.20435 21 6V18C21 18.7957 20.6837 19.5585 20.1211 20.1211C19.5585 20.6837 18.7957 21 18 21H11C10.2043 21 9.44151 20.6837 8.87891 20.1211C8.3163 19.5585 8 18.7957 8 18ZM12.293 8.29297C12.6835 7.90244 13.3165 7.90244 13.707 8.29297L16.707 11.293C17.0976 11.6835 17.0976 12.3165 16.707 12.707L13.707 15.707C13.3165 16.0976 12.6835 16.0976 12.293 15.707C11.9024 15.3165 11.9024 14.6835 12.293 14.293L13.5859 13H3C2.44772 13 2 12.5523 2 12C2 11.4477 2.44772 11 3 11H13.5859L12.293 9.70703C11.9024 9.31651 11.9024 8.68349 12.293 8.29297Z" fill="#121212"/>
</svg>
