<svg width="24" height="24" viewBox="0 0 24 24" fill="none" xmlns="http://www.w3.org/2000/svg">
<path fill-rule="evenodd" clip-rule="evenodd" d="M8 3C8.55228 3 9 3.44772 9 4V6C9 6.55228 8.55228 7 8 7C7.44772 7 7 6.55228 7 6V4C7 3.44772 7.44772 3 8 3ZM17.6566 6.34288C16.4852 5.17146 14.586 5.17162 13.4143 6.34334L12.0001 7.75755C11.6096 8.14808 10.9764 8.14808 10.5859 7.75755C10.1953 7.36703 10.1953 6.73386 10.5859 6.34334L12.0001 4.92912C13.9525 2.97665 17.1181 2.9759 19.0708 4.92867C21.0236 6.88143 21.0229 10.0475 19.0704 12L17.6564 13.4141C17.2658 13.8047 16.6327 13.8047 16.2421 13.4142C15.8516 13.0237 15.8516 12.3905 16.2421 12L17.6561 10.5858C18.8279 9.4141 18.8281 7.51431 17.6566 6.34288ZM3 8C3 7.44772 3.44772 7 4 7H6C6.55228 7 7 7.44772 7 8C7 8.55228 6.55228 9 6 9H4C3.44772 9 3 8.55228 3 8ZM7.75706 10.5859C8.14759 10.9764 8.14759 11.6096 7.75706 12.0001L6.34285 13.4143C5.17161 14.5855 5.17196 16.4847 6.34386 17.6566C7.51557 18.8283 9.41435 18.8285 10.5858 17.657L12.0005 16.2425C12.3911 15.8521 13.0242 15.8521 13.4147 16.2427C13.8052 16.6332 13.8052 17.2664 13.4146 17.6569L12 19.0712C10.0472 21.0239 6.88212 21.0233 4.92965 19.0708C2.97736 17.1186 2.97568 13.953 4.92864 12.0001L6.34285 10.5859C6.73337 10.1953 7.36654 10.1953 7.75706 10.5859ZM17 16C17 15.4477 17.4477 15 18 15H20C20.5523 15 21 15.4477 21 16C21 16.5523 20.5523 17 20 17H18C17.4477 17 17 16.5523 17 16ZM16 17C16.5523 17 17 17.4477 17 18V20C17 20.5523 16.5523 21 16 21C15.4477 21 15 20.5523 15 20V18C15 17.4477 15.4477 17 16 17Z" fill="#121212"/>
</svg>
