<svg width="24" height="24" viewBox="0 0 24 24" fill="none" xmlns="http://www.w3.org/2000/svg">
<path fill-rule="evenodd" clip-rule="evenodd" d="M6.52574 3.14935C6.82055 3.33156 7.00001 3.65342 7.00001 4V10C7.00001 10.5523 6.55229 11 6.00001 11C5.44772 11 5.00001 10.5523 5.00001 10V5.61804L4.44722 5.89443C3.95324 6.14142 3.35257 5.94119 3.10558 5.44721C2.85859 4.95324 3.05881 4.35256 3.55279 4.10557L5.55279 3.10557C5.86278 2.95058 6.23092 2.96714 6.52574 3.14935ZM9.00001 7C9.00001 6.44772 9.44772 6 10 6H20C20.5523 6 21 6.44772 21 7C21 7.55229 20.5523 8 20 8H10C9.44772 8 9.00001 7.55229 9.00001 7ZM9.00001 12C9.00001 11.4477 9.44772 11 10 11H20C20.5523 11 21 11.4477 21 12C21 12.5523 20.5523 13 20 13H10C9.44772 13 9.00001 12.5523 9.00001 12ZM5.50001 15C5.22386 15 5.00001 15.2239 5.00001 15.5V15.6853C5.00001 16.2376 4.55229 16.6853 4.00001 16.6853C3.44772 16.6853 3.00001 16.2376 3.00001 15.6853V15.5C3.00001 14.1193 4.11929 13 5.50001 13H5.54055C6.89869 13 8.00022 14.101 8.00022 15.4595C8.00022 16.027 7.81585 16.5791 7.47568 17.0326L6.0001 19.0001L6.99994 19C7.55223 19 7.99997 19.4477 8.00001 19.9999C8.00004 20.5522 7.55235 21 7.00007 21L4.00007 21.0002C3.62128 21.0002 3.275 20.7862 3.10559 20.4474C2.93618 20.1086 2.97274 19.7032 3.20001 19.4002L5.87568 15.8326C5.95656 15.7248 6.00022 15.5937 6.00022 15.4595C6.00022 15.2059 5.79448 15 5.54055 15H5.50001ZM9.00001 17C9.00001 16.4477 9.44772 16 10 16H20C20.5523 16 21 16.4477 21 17C21 17.5523 20.5523 18 20 18H10C9.44772 18 9.00001 17.5523 9.00001 17Z" fill="#121212"/>
</svg>
