<svg width="24" height="24" viewBox="0 0 24 24" fill="none" xmlns="http://www.w3.org/2000/svg">
<path fill-rule="evenodd" clip-rule="evenodd" d="M9.76165 2H13.4388C13.9659 1.99998 14.4205 1.99997 14.7949 2.03058C15.1902 2.06289 15.5831 2.13424 15.9614 2.32698C16.5248 2.61405 16.985 3.07224 17.2732 3.63781C17.4659 4.016 17.5372 4.40906 17.5694 4.80397C17.6 5.17815 17.6 5.6323 17.6 6.15839V17.8421C17.6 18.3682 17.6 18.8222 17.5694 19.1962C17.5371 19.591 17.4658 19.9838 17.2732 20.3619C16.9853 20.9269 16.5253 21.3859 15.9614 21.6732C15.5833 21.8659 15.1905 21.9372 14.7957 21.9695C14.4216 22 13.9676 22 13.4416 22H9.75837C9.23228 22 8.77813 22 8.40394 21.9695C8.00903 21.9372 7.61597 21.8659 7.23779 21.6732C6.67273 21.3853 6.21429 20.9258 5.92696 20.3619C5.73418 19.9835 5.66286 19.5904 5.63055 19.1951C5.59994 18.8206 5.59996 18.3659 5.59998 17.8388V6.16168C5.59996 5.63451 5.59994 5.17965 5.63054 4.80499C5.66284 4.40962 5.73413 4.01625 5.92696 3.63781C6.21458 3.07332 6.6733 2.6146 7.23778 2.32698C7.61622 2.13416 8.00959 2.06286 8.40496 2.03057C8.77962 1.99997 9.23448 1.99998 9.76165 2ZM8.56777 4.02393C8.29593 4.04614 8.19515 4.08383 8.14576 4.109C7.9576 4.20487 7.80484 4.35763 7.70897 4.54579C7.68381 4.59517 7.64611 4.69595 7.62391 4.9678C7.60075 5.25126 7.59998 5.62365 7.59998 6.2002V17.8002C7.59998 18.3768 7.60076 18.7489 7.6239 19.0322C7.64609 19.3037 7.68376 19.4044 7.70897 19.4539C7.80513 19.6426 7.95817 19.7956 8.14576 19.8912C8.19498 19.9163 8.29552 19.9539 8.56684 19.9761C8.84978 19.9992 9.22144 20 9.79689 20H13.4031C13.9785 20 14.35 19.9992 14.6327 19.9761C14.9036 19.954 15.0041 19.9164 15.0534 19.8912C15.2421 19.7951 15.3956 19.6415 15.4912 19.4539C15.5163 19.4046 15.5539 19.3041 15.5761 19.0332C15.5992 18.7505 15.6 18.379 15.6 17.8036V6.19691C15.6 5.62146 15.5992 5.2498 15.5761 4.96686C15.5539 4.69554 15.5163 4.59501 15.4912 4.54579C15.3959 4.35871 15.2426 4.20542 15.0534 4.109C15.0038 4.08375 14.9032 4.04611 14.6319 4.02393C14.3488 4.00078 13.9767 4 13.4002 4H9.80017C9.22363 4 8.85123 4.00078 8.56777 4.02393ZM10.6 18C10.6 17.4477 11.0477 17 11.6 17H11.602C11.8712 17 12.1291 17.1086 12.3173 17.3012C12.5055 17.4938 12.608 17.7542 12.6017 18.0234L12.6017 18.0254C12.5955 18.2906 12.4841 18.5425 12.2921 18.7256C12.1001 18.9087 11.8432 19.0081 11.578 19.0017L11.5761 19.0017C11.0332 18.9887 10.6 18.5449 10.6 18.002V18Z" fill="#121212"/>
</svg>
