<svg width="24" height="24" viewBox="0 0 24 24" fill="none" xmlns="http://www.w3.org/2000/svg">
<path fill-rule="evenodd" clip-rule="evenodd" d="M11.6 4C7.1817 4 3.59998 7.58172 3.59998 12C3.59998 16.4183 7.1817 20 11.6 20C16.0183 20 19.6 16.4183 19.6 12C19.6 7.58172 16.0183 4 11.6 4ZM1.59998 12C1.59998 6.47715 6.07713 2 11.6 2C17.1228 2 21.6 6.47715 21.6 12C21.6 17.5228 17.1228 22 11.6 22C6.07713 22 1.59998 17.5228 1.59998 12Z" fill="#121212"/>
<path d="M15.6 11H12.6H10.6H7.59998C7.04769 11 6.59998 11.4477 6.59998 12C6.59998 12.5523 7.04769 13 7.59998 13H10.6H12.6H15.6C16.1523 13 16.6 12.5523 16.6 12C16.6 11.4477 16.1523 11 15.6 11Z" fill="#121212"/>
</svg>
