<svg width="24" height="24" viewBox="0 0 24 24" fill="none" xmlns="http://www.w3.org/2000/svg">
<path d="M14 19V15C14 14.4477 14.4477 14 15 14H19C19.5523 14 20 14.4477 20 15C20 15.5523 19.5523 16 19 16H17.414L21.707 20.293L21.7754 20.3691C22.0957 20.7619 22.0731 21.3409 21.707 21.707C21.3409 22.0731 20.7619 22.0957 20.3691 21.7754L20.293 21.707L16 17.414V19C16 19.5523 15.5523 20 15 20C14.4477 20 14 19.5523 14 19ZM2.29295 2.29295C2.65907 1.92684 3.23807 1.90424 3.63084 2.22459L3.70702 2.29295L7.99999 6.58592V4.99999C7.99999 4.4477 8.4477 3.99999 8.99999 3.99999C9.55227 3.99999 9.99999 4.4477 9.99999 4.99999V8.99999C9.99999 9.55227 9.55227 9.99999 8.99999 9.99999H4.99999C4.4477 9.99999 3.99999 9.55227 3.99999 8.99999C3.99999 8.4477 4.4477 7.99999 4.99999 7.99999H6.58592L2.29295 3.70702L2.22459 3.63084C1.90424 3.23807 1.92684 2.65907 2.29295 2.29295ZM20.293 2.29295C20.6835 1.90243 21.3165 1.90243 21.707 2.29295C22.0975 2.68348 22.0975 3.31649 21.707 3.70702L17.414 7.99999H19C19.5523 7.99999 20 8.4477 20 8.99999C20 9.55227 19.5523 9.99999 19 9.99999H15C14.4477 9.99999 14 9.55227 14 8.99999V4.99999C14 4.4477 14.4477 3.99999 15 3.99999C15.5523 3.99999 16 4.4477 16 4.99999V6.58592L20.293 2.29295ZM9.99999 19C9.99999 19.5523 9.55227 20 8.99999 20C8.4477 20 7.99999 19.5523 7.99999 19V17.414L3.70702 21.707C3.31649 22.0975 2.68348 22.0975 2.29295 21.707C1.90243 21.3165 1.90243 20.6835 2.29295 20.293L6.58592 16H4.99999C4.4477 16 3.99999 15.5523 3.99999 15C3.99999 14.4477 4.4477 14 4.99999 14H8.99999C9.55227 14 9.99999 14.4477 9.99999 15V19Z" fill="black"/>
</svg>
