<svg width="24" height="24" viewBox="0 0 24 24" fill="none" xmlns="http://www.w3.org/2000/svg">
<path fill-rule="evenodd" clip-rule="evenodd" d="M3.20197 9.39737C3.53479 8.95664 4.16188 8.86916 4.60262 9.20198L10.7103 13.8142L10.7131 13.8164C11.4509 14.3572 11.6094 14.4519 11.7492 14.488C11.9134 14.5305 12.0863 14.5305 12.2506 14.488C12.391 14.4517 12.5509 14.3559 13.2955 13.8099L19.3974 9.20199C19.8381 8.86916 20.4652 8.95663 20.798 9.39736C21.1308 9.83809 21.0434 10.4652 20.6026 10.798L14.484 15.4187C14.444 15.448 14.4043 15.4771 14.365 15.506C13.806 15.9172 13.3149 16.2785 12.7514 16.4243C12.2587 16.5517 11.741 16.5517 11.2483 16.4243C10.6852 16.2786 10.195 15.918 9.63699 15.5075C9.59778 15.4787 9.55823 15.4496 9.5183 15.4203C9.51035 15.4145 9.5025 15.4085 9.49473 15.4025L3.39736 10.798C2.95663 10.4652 2.86915 9.83811 3.20197 9.39737Z" fill="#121212"/>
<path fill-rule="evenodd" clip-rule="evenodd" d="M11.4775 2.62786C11.9933 2.49579 12.5349 2.50362 13.0463 2.64975C13.6324 2.81727 14.1335 3.21969 14.7056 3.67922C14.7454 3.7112 14.7856 3.74347 14.8262 3.77595L20.4252 8.25882C20.4489 8.27781 20.4724 8.29662 20.4958 8.31528C20.865 8.61035 21.1878 8.86835 21.4288 9.20099C21.638 9.48967 21.7967 9.81568 21.8928 10.1646C22.001 10.5575 22.0006 10.9684 22.0001 11.4311C22 11.4626 22 11.4944 22 11.5265V17.842C22 18.3681 22 18.8221 21.9694 19.1962C21.9372 19.5911 21.8659 19.984 21.6732 20.3621C21.3852 20.9274 20.925 21.386 20.3614 21.6732C19.9833 21.8658 19.5905 21.9371 19.1957 21.9694C18.8217 22 18.3677 21.9999 17.8416 21.9999H6.15838C5.63229 21.9999 5.17814 22 4.80396 21.9694C4.40905 21.9371 4.01599 21.8659 3.6378 21.6732C3.07331 21.3855 2.61459 20.9268 2.32697 20.3623C2.13416 19.9839 2.06286 19.5906 2.03056 19.1952C1.99996 18.8206 1.99997 18.3658 1.99999 17.8386L1.99999 11.5922C1.99999 11.5586 1.99995 11.5252 1.99992 11.4921C1.99939 11.0076 1.99892 10.5807 2.11436 10.1747C2.21559 9.81864 2.38181 9.48419 2.60502 9.18832C2.85969 8.85078 3.2006 8.59354 3.5889 8.30054C3.61452 8.28121 3.64035 8.26172 3.66638 8.24204L9.66736 3.70425C9.70908 3.6727 9.75039 3.64137 9.79135 3.6103C10.3755 3.16715 10.8871 2.77902 11.4775 2.62786ZM12.4967 4.57276C12.3258 4.52394 12.1451 4.52144 11.9736 4.56536C11.8263 4.60306 11.6576 4.70673 10.8737 5.29951L4.87267 9.8373C4.36161 10.2237 4.26595 10.3076 4.2016 10.3929C4.12738 10.4913 4.07194 10.6027 4.03811 10.7216C4.00895 10.8242 3.99999 10.9507 3.99999 11.5922V17.8001C3.99999 18.3766 4.00077 18.749 4.02392 19.0324C4.04612 19.3042 4.08381 19.4049 4.10899 19.4544C4.20486 19.6425 4.35762 19.7953 4.54578 19.8911C4.595 19.9162 4.69553 19.9539 4.96685 19.976C5.24979 19.9992 5.62145 19.9999 6.1969 19.9999H17.8031C18.3785 19.9999 18.75 19.9992 19.0327 19.976C19.3036 19.9539 19.4041 19.9163 19.4534 19.8912C19.6424 19.7948 19.7958 19.6415 19.8912 19.4541C19.9163 19.4048 19.9539 19.3044 19.9761 19.0333C19.9992 18.7505 20 18.379 20 17.8035V11.5265C20 10.9141 19.9916 10.7937 19.9646 10.6956C19.9335 10.5828 19.8811 10.4736 19.8092 10.3744C19.7483 10.2902 19.6579 10.2065 19.1752 9.82006L13.5762 5.33719C12.8091 4.72305 12.6429 4.61454 12.4967 4.57276Z" fill="#121212"/>
</svg>
