<svg width="24" height="24" viewBox="0 0 24 24" fill="none" xmlns="http://www.w3.org/2000/svg">
<path d="M13 18V14C13 13.4477 13.4477 13 14 13H18C18.5523 13 19 13.4477 19 14C19 14.5523 18.5523 15 18 15H16.4141L20.707 19.293L20.7754 19.3692C21.0958 19.7619 21.0732 20.3409 20.707 20.707C20.3409 21.0732 19.7619 21.0958 19.3692 20.7754L19.293 20.707L15 16.4141V18C15 18.5523 14.5523 19 14 19C13.4477 19 13 18.5523 13 18ZM3.29298 3.29298C3.65909 2.92686 4.2381 2.90427 4.63087 3.22462L4.70704 3.29298L9.00001 7.58595V6.00001C9.00001 5.44773 9.44772 5.00001 10 5.00001C10.5523 5.00001 11 5.44773 11 6.00001V10C11 10.5523 10.5523 11 10 11H6.00001C5.44773 11 5.00001 10.5523 5.00001 10C5.00001 9.44772 5.44773 9.00001 6.00001 9.00001H7.58595L3.29298 4.70704L3.22462 4.63087C2.90427 4.2381 2.92686 3.65909 3.29298 3.29298Z" fill="#121212"/>
</svg>
