<svg width="24" height="24" viewBox="0 0 24 24" fill="none" xmlns="http://www.w3.org/2000/svg">
<path d="M9.29297 13.293C9.68349 12.9024 10.3165 12.9024 10.707 13.293C11.0976 13.6835 11.0976 14.3165 10.707 14.707L6.41406 19H8C8.55228 19 9 19.4477 9 20C9 20.5523 8.55228 21 8 21H4C3.44772 21 3 20.5523 3 20V16C3 15.4477 3.44772 15 4 15C4.55228 15 5 15.4477 5 16V17.5859L9.29297 13.293ZM21 8C21 8.55228 20.5523 9 20 9C19.4477 9 19 8.55228 19 8V6.41406L14.707 10.707C14.3165 11.0976 13.6835 11.0976 13.293 10.707C12.9024 10.3165 12.9024 9.68349 13.293 9.29297L17.5859 5H16C15.4477 5 15 4.55228 15 4C15 3.44772 15.4477 3 16 3H20L20.1025 3.00488C20.6067 3.05621 21 3.48232 21 4V8Z" fill="black"/>
</svg>
