<svg width="24" height="24" viewBox="0 0 24 24" fill="none" xmlns="http://www.w3.org/2000/svg">
<path fill-rule="evenodd" clip-rule="evenodd" d="M4.375 6C4.375 4.89543 5.27043 4 6.375 4C7.47957 4 8.375 4.89543 8.375 6C8.375 7.10457 7.47957 8 6.375 8C5.27043 8 4.375 7.10457 4.375 6ZM10.375 6C10.375 4.89543 11.2704 4 12.375 4C13.4796 4 14.375 4.89543 14.375 6C14.375 7.10457 13.4796 8 12.375 8C11.2704 8 10.375 7.10457 10.375 6ZM16.375 6C16.375 4.89543 17.2704 4 18.375 4C19.4796 4 20.375 4.89543 20.375 6C20.375 7.10457 19.4796 8 18.375 8C17.2704 8 16.375 7.10457 16.375 6ZM4.375 12C4.375 10.8954 5.27043 10 6.375 10C7.47957 10 8.375 10.8954 8.375 12C8.375 13.1046 7.47957 14 6.375 14C5.27043 14 4.375 13.1046 4.375 12ZM10.375 12C10.375 10.8954 11.2704 10 12.375 10C13.4796 10 14.375 10.8954 14.375 12C14.375 13.1046 13.4796 14 12.375 14C11.2704 14 10.375 13.1046 10.375 12ZM16.375 12C16.375 10.8954 17.2704 10 18.375 10C19.4796 10 20.375 10.8954 20.375 12C20.375 13.1046 19.4796 14 18.375 14C17.2704 14 16.375 13.1046 16.375 12ZM4.375 18C4.375 16.8954 5.27043 16 6.375 16C7.47957 16 8.375 16.8954 8.375 18C8.375 19.1046 7.47957 20 6.375 20C5.27043 20 4.375 19.1046 4.375 18ZM10.375 18C10.375 16.8954 11.2704 16 12.375 16C13.4796 16 14.375 16.8954 14.375 18C14.375 19.1046 13.4796 20 12.375 20C11.2704 20 10.375 19.1046 10.375 18ZM16.375 18C16.375 16.8954 17.2704 16 18.375 16C19.4796 16 20.375 16.8954 20.375 18C20.375 19.1046 19.4796 20 18.375 20C17.2704 20 16.375 19.1046 16.375 18Z" fill="#121212"/>
</svg>
