<svg width="24" height="24" viewBox="0 0 24 24" fill="none" xmlns="http://www.w3.org/2000/svg">
<path fill-rule="evenodd" clip-rule="evenodd" d="M7.16168 4H16.8388C17.3659 3.99998 17.8205 3.99997 18.1949 4.03058C18.5902 4.06289 18.9831 4.13424 19.3614 4.32698C19.9248 4.61405 20.3851 5.07224 20.6732 5.63781C20.8659 6.016 20.9372 6.40906 20.9695 6.80397C21 7.17815 21 7.6323 21 8.15839V13.8416C21 14.3677 21 14.8217 20.9695 15.1957C20.9372 15.5905 20.8659 15.9833 20.6732 16.3614C20.3856 16.9259 19.9259 17.3856 19.3614 17.6732C18.9833 17.8659 18.5905 17.9372 18.1957 17.9695C17.8217 18 17.3677 18 16.8416 18H7.15839C6.6323 18 6.17815 18 5.80397 17.9695C5.40906 17.9372 5.016 17.8659 4.63781 17.6732C4.07224 17.3851 3.61405 16.9248 3.32698 16.3614C3.13424 15.9831 3.06289 15.5902 3.03058 15.1949C2.99997 14.8205 2.99998 14.3659 3 13.8388V8.16168C2.99998 7.63451 2.99997 7.17965 3.03057 6.80499C3.06286 6.40962 3.13416 6.01625 3.32698 5.63781C3.6146 5.07332 4.07332 4.6146 4.63781 4.32698C5.01625 4.13416 5.40962 4.06286 5.80499 4.03057C6.17965 3.99997 6.63451 3.99998 7.16168 4ZM5.9678 6.02393C5.69595 6.04614 5.59517 6.08383 5.54579 6.109C5.35763 6.20487 5.20487 6.35763 5.109 6.54579C5.08383 6.59517 5.04614 6.69595 5.02393 6.9678C5.00078 7.25126 5 7.62365 5 8.2002V13.8002C5 14.3768 5.00078 14.7488 5.02393 15.0319C5.04611 15.3032 5.08375 15.4039 5.109 15.4534C5.20542 15.6427 5.35871 15.7959 5.54579 15.8912C5.59501 15.9163 5.69554 15.9539 5.96686 15.9761C6.2498 15.9992 6.62146 16 7.19691 16H16.8031C17.3786 16 17.75 15.9992 18.0327 15.9761C18.3036 15.954 18.4041 15.9164 18.4534 15.8912C18.6416 15.7953 18.7953 15.6416 18.8912 15.4534C18.9164 15.4041 18.954 15.3036 18.9761 15.0327C18.9992 14.75 19 14.3786 19 13.8031V8.19691C19 7.62146 18.9992 7.2498 18.9761 6.96686C18.9539 6.69554 18.9163 6.59501 18.8912 6.54579C18.7959 6.35871 18.6427 6.20542 18.4534 6.109C18.4039 6.08375 18.3032 6.04611 18.0319 6.02393C17.7488 6.00078 17.3768 6 16.8002 6H7.2002C6.62365 6 6.25126 6.00078 5.9678 6.02393ZM8 20C8 19.4477 8.44772 19 9 19H15C15.5523 19 16 19.4477 16 20C16 20.5523 15.5523 21 15 21H9C8.44772 21 8 20.5523 8 20Z" fill="#121212"/>
</svg>
