<svg width="24" height="24" viewBox="0 0 24 24" fill="none" xmlns="http://www.w3.org/2000/svg">
<path fill-rule="evenodd" clip-rule="evenodd" d="M12.2 4C9.43853 4 7.19995 6.23858 7.19995 9V15C7.19995 17.7614 9.43853 20 12.2 20C14.9614 20 17.2 17.7614 17.2 15V9C17.2 6.23858 14.9614 4 12.2 4ZM5.19995 9C5.19995 5.13401 8.33396 2 12.2 2C16.0659 2 19.2 5.13401 19.2 9V15C19.2 18.866 16.0659 22 12.2 22C8.33396 22 5.19995 18.866 5.19995 15V9ZM12.2 6C12.7522 6 13.2 6.44772 13.2 7V10C13.2 10.5523 12.7522 11 12.2 11C11.6477 11 11.2 10.5523 11.2 10V7C11.2 6.44772 11.6477 6 12.2 6Z" fill="#121212"/>
</svg>
