<svg width="24" height="24" viewBox="0 0 24 24" fill="none" xmlns="http://www.w3.org/2000/svg">
<path fill-rule="evenodd" clip-rule="evenodd" d="M12.3751 4C10.7803 4 9.25285 4.62678 8.12844 5.73883C7.00439 6.85054 6.375 8.35559 6.375 9.92285C6.375 12.0583 7.3126 14.0708 8.5439 15.7827C9.77015 17.4876 11.2293 18.8126 12.1317 19.5515C12.201 19.6082 12.252 19.6499 12.2967 19.6851C12.3331 19.7138 12.3577 19.7321 12.3751 19.7443C12.3923 19.7322 12.4169 19.714 12.4533 19.6854C12.4979 19.6502 12.549 19.6085 12.6184 19.5516C13.5209 18.8127 14.9799 17.4878 16.2061 15.783C17.4374 14.0712 18.3749 12.0588 18.3749 9.9233C18.3749 8.35594 17.7455 6.85036 16.6215 5.73872C15.4971 4.62668 13.9699 4 12.3751 4ZM6.72206 4.31683C8.22316 2.83223 10.2569 2 12.3751 2C14.4933 2 16.5268 2.83211 18.0279 4.31672C19.5294 5.80175 20.3749 7.81843 20.3749 9.9233C20.3749 12.6396 19.1904 15.0591 17.8298 16.9508C16.4642 18.8495 14.8617 20.2997 13.8855 21.0991C13.8691 21.1125 13.8524 21.1262 13.8353 21.1404C13.614 21.323 13.3259 21.5607 12.917 21.6758C12.5836 21.7697 12.1661 21.7697 11.8327 21.6758C11.4244 21.5609 11.135 21.322 10.9155 21.1408C10.8981 21.1264 10.8812 21.1125 10.8647 21.0989C9.8884 20.2996 8.28592 18.8493 6.92025 16.9505C5.55963 15.0588 4.375 12.6392 4.375 9.92285C4.375 7.81788 5.22061 5.80179 6.72206 4.31683ZM12.375 8C11.8227 8 11.375 8.44772 11.375 9C11.375 9.55228 11.8227 10 12.375 10C12.9273 10 13.375 9.55228 13.375 9C13.375 8.44772 12.9273 8 12.375 8ZM9.375 9C9.375 7.34315 10.7181 6 12.375 6C14.0319 6 15.375 7.34315 15.375 9C15.375 10.6569 14.0319 12 12.375 12C10.7181 12 9.375 10.6569 9.375 9Z" fill="#121212"/>
</svg>
