<svg width="24" height="24" viewBox="0 0 24 24" fill="none" xmlns="http://www.w3.org/2000/svg">
<path fill-rule="evenodd" clip-rule="evenodd" d="M21.0257 2.14935C21.3205 2.33156 21.5 2.65342 21.5 3V18C21.5 18.3788 21.286 18.725 20.9472 18.8944L14.9472 21.8944C14.6657 22.0352 14.3343 22.0352 14.0528 21.8944L8.5 19.118L2.94721 21.8944C2.63723 22.0494 2.26909 22.0329 1.97427 21.8507C1.67945 21.6684 1.5 21.3466 1.5 21V6C1.5 5.62123 1.714 5.27497 2.05279 5.10557L8.05279 2.10557C8.33431 1.96481 8.66569 1.96481 8.94721 2.10557L14.5 4.88197L20.0528 2.10557C20.3628 1.95058 20.7309 1.96714 21.0257 2.14935ZM13.5 6.61803L9.5 4.61804V17.382L13.5 19.382V6.61803ZM15.5 19.382L19.5 17.382V4.61804L15.5 6.61803V19.382ZM7.5 17.382V4.61804L3.5 6.61804V19.382L7.5 17.382Z" fill="#121212"/>
</svg>
