<svg width="24" height="24" viewBox="0 0 24 24" fill="none" xmlns="http://www.w3.org/2000/svg">
<path d="M9.29297 13.293C9.68349 12.9024 10.3165 12.9024 10.707 13.293C11.0976 13.6835 11.0976 14.3165 10.707 14.707L6.41406 19H8C8.55228 19 9 19.4477 9 20C9 20.5523 8.55228 21 8 21H4C3.44772 21 3 20.5523 3 20V16C3 15.4477 3.44772 15 4 15C4.55228 15 5 15.4477 5 16V17.5859L9.29297 13.293ZM13.293 13.293C13.6591 12.9269 14.2381 12.9043 14.6309 13.2246L14.707 13.293L19 17.5859V16C19 15.4477 19.4477 15 20 15C20.5523 15 21 15.4477 21 16V20C21 20.5523 20.5523 21 20 21H16C15.4477 21 15 20.5523 15 20C15 19.4477 15.4477 19 16 19H17.5859L13.293 14.707L13.2246 14.6309C12.9043 14.2381 12.9269 13.6591 13.293 13.293ZM3 8V4C3 3.44772 3.44772 3 4 3H8C8.55228 3 9 3.44772 9 4C9 4.55228 8.55228 5 8 5H6.41406L10.707 9.29297L10.7754 9.36914C11.0957 9.76191 11.0731 10.3409 10.707 10.707C10.3409 11.0731 9.76191 11.0957 9.36914 10.7754L9.29297 10.707L5 6.41406V8C5 8.55228 4.55228 9 4 9C3.44772 9 3 8.55228 3 8ZM21 8C21 8.55228 20.5523 9 20 9C19.4477 9 19 8.55228 19 8V6.41406L14.707 10.707C14.3165 11.0976 13.6835 11.0976 13.293 10.707C12.9024 10.3165 12.9024 9.68349 13.293 9.29297L17.5859 5H16C15.4477 5 15 4.55228 15 4C15 3.44772 15.4477 3 16 3H20L20.1025 3.00488C20.6067 3.05621 21 3.48232 21 4V8Z" fill="#121212"/>
</svg>
