<svg width="24" height="24" viewBox="0 0 24 24" fill="none" xmlns="http://www.w3.org/2000/svg">
<path fill-rule="evenodd" clip-rule="evenodd" d="M4.125 12C4.125 10.8954 5.02043 10 6.125 10C7.22957 10 8.125 10.8954 8.125 12C8.125 13.1046 7.22957 14 6.125 14C5.02043 14 4.125 13.1046 4.125 12ZM10.125 12C10.125 10.8954 11.0204 10 12.125 10C13.2296 10 14.125 10.8954 14.125 12C14.125 13.1046 13.2296 14 12.125 14C11.0204 14 10.125 13.1046 10.125 12ZM16.125 12C16.125 10.8954 17.0204 10 18.125 10C19.2296 10 20.125 10.8954 20.125 12C20.125 13.1046 19.2296 14 18.125 14C17.0204 14 16.125 13.1046 16.125 12Z" fill="#121212"/>
</svg>
