<svg width="24" height="24" viewBox="0 0 24 24" fill="none" xmlns="http://www.w3.org/2000/svg">
<path fill-rule="evenodd" clip-rule="evenodd" d="M9.34155 4.45453C10.9561 3.88572 12.7107 3.84986 14.3471 4.35211C15.9835 4.85435 17.4161 5.86831 18.4336 7.24496C19.4511 8.62161 20 10.2882 20 12V13C20 14.6568 18.6569 16 17 16C16.0831 16 15.2622 15.5886 14.7119 14.9404C13.9991 15.5981 13.0465 16 12 16C9.79086 16 8 14.2091 8 12C8 9.79085 9.79086 7.99999 12 7.99999C12.7654 7.99999 13.4807 8.21499 14.0886 8.5879C14.2456 8.24119 14.5946 7.99999 15 7.99999C15.5523 7.99999 16 8.44771 16 8.99999V13C16 13.5523 16.4477 14 17 14C17.5523 14 18 13.5523 18 13V12C18 10.7161 17.5883 9.46615 16.8252 8.43374C16.0621 7.40132 14.9877 6.64079 13.7603 6.26409C12.5329 5.88739 11.217 5.9143 10.0061 6.34089C8.79537 6.76744 7.75324 7.57155 7.03291 8.63453C6.31268 9.69735 5.95249 10.9627 6.00503 12.2455C6.05757 13.5284 6.52021 14.7607 7.32491 15.761C8.12955 16.7612 9.2342 17.477 10.4761 17.8032C11.7178 18.1293 13.0308 18.0485 14.2233 17.5727C14.7363 17.368 15.318 17.6179 15.5227 18.1309C15.7274 18.6438 15.4775 19.2256 14.9645 19.4302C13.3746 20.0646 11.6238 20.1725 9.96803 19.7376C8.31251 19.3028 6.83962 18.3485 5.76656 17.0146C4.69356 15.6808 4.07676 14.0377 4.00671 12.3274C3.93665 10.617 4.41695 8.92967 5.37725 7.51257C6.33744 6.09563 7.72681 5.0234 9.34155 4.45453ZM14 12.0016V11.9984C13.9991 10.8946 13.104 9.99999 12 9.99999C10.8954 9.99999 10 10.8954 10 12C10 13.1046 10.8954 14 12 14C13.104 14 13.9991 13.1054 14 12.0016Z" fill="#121212"/>
</svg>
