<svg width="24" height="24" viewBox="0 0 24 24" fill="none" xmlns="http://www.w3.org/2000/svg">
<path fill-rule="evenodd" clip-rule="evenodd" d="M7.16168 4H16.8388C17.3659 3.99998 17.8205 3.99997 18.1949 4.03058C18.5902 4.06289 18.9831 4.13424 19.3614 4.32698C19.9248 4.61405 20.3851 5.07224 20.6732 5.63781C20.8659 6.016 20.9372 6.40906 20.9695 6.80397C21 7.17815 21 7.6323 21 8.15839V16.05C22.1411 16.2816 23 17.2905 23 18.5C23 19.8807 21.8807 21 20.5 21H3.5C2.11929 21 1 19.8807 1 18.5C1 17.2905 1.85888 16.2816 3 16.05L3 8.16168C2.99998 7.63451 2.99997 7.17965 3.03057 6.80499C3.06286 6.40962 3.13416 6.01625 3.32698 5.63781C3.6146 5.07332 4.07332 4.6146 4.63781 4.32698C5.01624 4.13416 5.40962 4.06286 5.80498 4.03057C6.17965 3.99997 6.6345 3.99998 7.16168 4ZM5 16H19V8.19691C19 7.62146 18.9992 7.2498 18.9761 6.96686C18.9539 6.69554 18.9163 6.59501 18.8912 6.54579C18.7959 6.35871 18.6427 6.20542 18.4534 6.109C18.4039 6.08375 18.3032 6.04611 18.0319 6.02393C17.7488 6.00078 17.3768 6 16.8002 6H7.2002C6.62365 6 6.25126 6.00078 5.9678 6.02393C5.69595 6.04614 5.59517 6.08383 5.54579 6.109C5.35763 6.20487 5.20487 6.35763 5.10899 6.54579C5.08383 6.59517 5.04613 6.69595 5.02393 6.9678C5.00078 7.25126 5 7.62365 5 8.2002V16ZM3.5 18C3.22386 18 3 18.2239 3 18.5C3 18.7761 3.22386 19 3.5 19H20.5C20.7761 19 21 18.7761 21 18.5C21 18.2239 20.7761 18 20.5 18H3.5Z" fill="#121212"/>
</svg>
