<svg width="24" height="24" viewBox="0 0 24 24" fill="none" xmlns="http://www.w3.org/2000/svg">
<path d="M15 17C15.5523 17 16 17.4477 16 18C16 18.5523 15.5523 19 15 19H10C9.44771 19 9 18.5523 9 18C9 17.4477 9.44771 17 10 17H15Z" fill="#121212"/>
<path d="M18 13C18.5523 13 19 13.4477 19 14C19 14.5523 18.5523 15 18 15H10C9.44771 15 9 14.5523 9 14C9 13.4477 9.44771 13 10 13H18Z" fill="#121212"/>
<path d="M21 4C21 3.73478 20.8946 3.48051 20.707 3.29297C20.5195 3.10543 20.2652 3 20 3H8C7.73478 3 7.4805 3.10543 7.29297 3.29297C7.10543 3.4805 7 3.73478 7 4V20C7 20.3444 6.93703 20.6814 6.82422 21H20C20.2652 21 20.5195 20.8946 20.707 20.707C20.8946 20.5195 21 20.2652 21 20V4ZM3 20C3 20.2652 3.10543 20.5195 3.29297 20.707C3.48051 20.8946 3.73478 21 4 21C4.26522 21 4.51949 20.8946 4.70703 20.707C4.89457 20.5195 5 20.2652 5 20V10H4C3.73478 10 3.48051 10.1054 3.29297 10.293C3.10543 10.4805 3 10.7348 3 11V20ZM23 20C23 20.7957 22.6837 21.5585 22.1211 22.1211C21.5585 22.6837 20.7957 23 20 23H4C3.20435 23 2.44151 22.6837 1.87891 22.1211C1.3163 21.5585 1 20.7957 1 20V11C1 10.2044 1.3163 9.44151 1.87891 8.87891C2.44151 8.3163 3.20435 8 4 8H5V4C5 3.20435 5.3163 2.44152 5.87891 1.87891C6.44152 1.3163 7.20435 1 8 1H20C20.7957 1 21.5585 1.3163 22.1211 1.87891C22.6837 2.44151 23 3.20435 23 4V20Z" fill="#121212"/>
<path d="M11 7V9H17V7H11ZM19 9C19 10.1046 18.1046 11 17 11H11C9.89543 11 9 10.1046 9 9V7C9 5.89543 9.89543 5 11 5H17C18.1046 5 19 5.89543 19 7V9Z" fill="#121212"/>
</svg>
