<svg width="24" height="24" viewBox="0 0 24 24" fill="none" xmlns="http://www.w3.org/2000/svg">
<path fill-rule="evenodd" clip-rule="evenodd" d="M18.2929 1.29289C18.6834 0.902369 19.3166 0.902369 19.7071 1.29289L22.7071 4.29289C23.0976 4.68342 23.0976 5.31658 22.7071 5.70711L13.7071 14.7071C13.5196 14.8946 13.2652 15 13 15H10C9.44772 15 9 14.5523 9 14V11C9 10.7348 9.10536 10.4804 9.2929 10.2929L18.2929 1.29289ZM17.4142 5L19 6.58579L20.5858 5L19 3.41421L17.4142 5ZM17.5858 8L16 6.41421L11 11.4142V13H12.5858L17.5858 8ZM7.16168 3L10.0002 3C10.5525 3 11.0002 3.44772 11.0002 4C11.0002 4.55228 10.5525 5 10.0002 5H7.2002C6.62365 5 6.25126 5.00078 5.9678 5.02393C5.69595 5.04613 5.59517 5.08383 5.54579 5.10899C5.35763 5.20487 5.20487 5.35763 5.109 5.54579C5.08383 5.59517 5.04614 5.69595 5.02393 5.9678C5.00078 6.25126 5 6.62365 5 7.2002V16.8002C5 17.3768 5.00078 17.7489 5.02393 18.0322C5.04612 18.3037 5.08378 18.4044 5.109 18.4539C5.20516 18.6426 5.35819 18.7956 5.54579 18.8912C5.595 18.9163 5.69554 18.9539 5.96686 18.9761C6.2498 18.9992 6.62146 19 7.19691 19H16.8031C17.3786 19 17.75 18.9992 18.0327 18.9761C18.3036 18.9539 18.4041 18.9164 18.4534 18.8912C18.6418 18.7952 18.7955 18.6416 18.8912 18.4536C18.9163 18.4043 18.9539 18.3038 18.9761 18.0328C18.9992 17.75 19 17.3786 19 16.8031V14C19 13.4477 19.4477 13 20 13C20.5523 13 21 13.4477 21 14V16.8416C21 17.3677 21 17.8217 20.9695 18.1958C20.9372 18.5906 20.8659 18.9835 20.6732 19.3616C20.3855 19.9263 19.9257 20.3857 19.3614 20.6732C18.9833 20.8659 18.5905 20.9372 18.1957 20.9695C17.8217 21 17.3677 21 16.8416 21H7.15839C6.6323 21 6.17815 21 5.80397 20.9695C5.40906 20.9372 5.016 20.8659 4.63781 20.6732C4.07276 20.3853 3.61431 19.9258 3.32698 19.3619C3.13421 18.9835 3.06288 18.5904 3.03057 18.1951C2.99997 17.8206 2.99998 17.3659 3 16.8388V7.16168C2.99998 6.6345 2.99997 6.17965 3.03057 5.80498C3.06286 5.40962 3.13416 5.01624 3.32698 4.63781C3.6146 4.07332 4.07332 3.6146 4.63781 3.32698C5.01625 3.13416 5.40962 3.06286 5.80499 3.03057C6.17965 2.99997 6.63451 2.99998 7.16168 3Z" fill="#121212"/>
</svg>
