<svg width="24" height="24" viewBox="0 0 24 24" fill="none" xmlns="http://www.w3.org/2000/svg">
<path fill-rule="evenodd" clip-rule="evenodd" d="M12.9072 6.13813C13.2125 6.31781 13.4 6.64568 13.4 7V10.3005L20.9144 6.12584C21.2241 5.95377 21.6018 5.95844 21.9072 6.13813C22.2125 6.31781 22.4 6.64568 22.4 7V17C22.4 17.3543 22.2125 17.6822 21.9072 17.8619C21.6018 18.0416 21.2241 18.0462 20.9144 17.8742L13.4 13.6995V17C13.4 17.3543 13.2125 17.6822 12.9072 17.8619C12.6018 18.0416 12.2241 18.0462 11.9144 17.8742L2.91438 12.8742C2.59692 12.6978 2.40002 12.3632 2.40002 12C2.40002 11.6368 2.59692 11.3022 2.91438 11.1258L11.9144 6.12584C12.2241 5.95377 12.6018 5.95844 12.9072 6.13813ZM14.4592 12L20.4 15.3005V8.69951L14.4592 12ZM5.45915 12L11.4 15.3005V8.69951L5.45915 12Z" fill="#121212"/>
</svg>
