<svg width="24" height="24" viewBox="0 0 24 24" fill="none" xmlns="http://www.w3.org/2000/svg">
<path fill-rule="evenodd" clip-rule="evenodd" d="M16.382 4.51195C16.7837 4.38143 17.2164 4.38143 17.6181 4.51195C17.9075 4.60598 18.1291 4.76536 18.3036 4.91347C18.4625 5.04831 18.6358 5.22162 18.8134 5.3993L20.5983 7.18416C20.7768 7.36261 20.9506 7.53641 21.0858 7.69564C21.2342 7.87047 21.3938 8.09239 21.488 8.38215C21.6185 8.7839 21.6184 9.21659 21.4879 9.61822C21.3939 9.9078 21.2344 10.1296 21.0861 10.3043C20.951 10.4634 20.7774 10.637 20.5991 10.8152L9.70711 21.7072C9.51957 21.8947 9.26522 22.0001 9.00001 22.0001L5.00001 22.0001C4.73479 22.0001 4.48043 21.8948 4.2929 21.7072C4.10536 21.5197 4 21.2653 4 21.0001V17.0001C4 16.7349 4.10536 16.4805 4.29289 16.293L15.1858 5.40013C15.3637 5.22218 15.5371 5.04868 15.6961 4.91372C15.8707 4.76551 16.0925 4.60603 16.382 4.51195ZM13 10.4143L6 17.4143V20.0001L8.58578 20.0001L15.5858 13.0001L13 10.4143ZM17 11.5859L19.1707 9.41515C19.3748 9.21103 19.4868 9.09785 19.5613 9.01002C19.5643 9.00657 19.567 9.00327 19.5696 9.00015C19.567 8.99694 19.5641 8.99356 19.5611 8.99001C19.4854 8.90081 19.3712 8.7855 19.1615 8.57583L17.4217 6.83603C17.2129 6.62721 17.0982 6.51358 17.0094 6.43824C17.0061 6.43547 17.003 6.43285 17 6.43037C16.997 6.43291 16.9938 6.4356 16.9904 6.43845C16.9015 6.51393 16.7866 6.62777 16.5775 6.83687L14.4142 9.00011L17 11.5859Z" fill="#121212"/>
<path d="M7.46682 9.69379L7.7134 9.12811C8.15288 8.11947 8.94451 7.31641 9.93228 6.87708L10.6919 6.53922C11.1027 6.35653 11.1027 5.75881 10.6919 5.57612L9.9748 5.25714C8.96158 4.80651 8.15577 3.97373 7.72382 2.93083L7.47063 2.31953C7.29417 1.89349 6.70578 1.89349 6.52932 2.31953L6.27612 2.93083C5.84417 3.97373 5.03838 4.80651 4.0252 5.25714L3.30805 5.57612C2.89732 5.75881 2.89732 6.35653 3.30805 6.53922L4.06767 6.87708C5.05545 7.31641 5.84706 8.11947 6.28656 9.12811L6.53312 9.69379C6.71357 10.1079 7.28637 10.1079 7.46682 9.69379Z" fill="#121212"/>
</svg>
