<svg width="24" height="24" viewBox="0 0 24 24" fill="none" xmlns="http://www.w3.org/2000/svg">
<path fill-rule="evenodd" clip-rule="evenodd" d="M11.6 4C7.1817 4 3.59998 7.58172 3.59998 12C3.59998 16.4183 7.1817 20 11.6 20C16.0183 20 19.6 16.4183 19.6 12C19.6 7.58172 16.0183 4 11.6 4ZM1.59998 12C1.59998 6.47715 6.07713 2 11.6 2C17.1228 2 21.6 6.47715 21.6 12C21.6 17.5228 17.1228 22 11.6 22C6.07713 22 1.59998 17.5228 1.59998 12ZM11.6 7C12.1523 7 12.6 7.44772 12.6 8V11H15.6C16.1523 11 16.6 11.4477 16.6 12C16.6 12.5523 16.1523 13 15.6 13H12.6V16C12.6 16.5523 12.1523 17 11.6 17C11.0477 17 10.6 16.5523 10.6 16V13H7.59998C7.04769 13 6.59998 12.5523 6.59998 12C6.59998 11.4477 7.04769 11 7.59998 11H10.6V8C10.6 7.44772 11.0477 7 11.6 7Z" fill="#121212"/>
</svg>
