<svg width="24" height="24" viewBox="0 0 24 24" fill="none" xmlns="http://www.w3.org/2000/svg">
<path fill-rule="evenodd" clip-rule="evenodd" d="M8.18636 4.35295C8.19855 4.35945 8.21078 4.36598 8.22303 4.37251L18.2054 9.69644C18.2125 9.70003 18.2196 9.7037 18.2267 9.70746L18.2649 9.72783C18.6606 9.93884 19.0165 10.1286 19.2871 10.3065C19.5579 10.4845 19.8987 10.7458 20.0905 11.1613C20.3358 11.693 20.3358 12.3062 20.0905 12.8379C19.8987 13.2536 19.5576 13.5153 19.2863 13.6936C19.0143 13.8725 18.6564 14.0633 18.2581 14.2757L8.18969 19.6456C7.83182 19.8365 7.50501 20.0108 7.22763 20.1274C6.94424 20.2466 6.56827 20.3713 6.14406 20.3166C5.59187 20.2454 5.09358 19.9473 4.77009 19.4925C4.52195 19.1436 4.45527 18.7527 4.42722 18.4468C4.39984 18.1482 4.39987 17.7792 4.3999 17.3753L4.39991 6.66698C4.39991 6.65307 4.39991 6.63921 4.3999 6.62538C4.39987 6.22143 4.39984 5.85221 4.42721 5.55346C4.45523 5.24763 4.52183 4.85636 4.77009 4.50731C5.09354 4.05253 5.59181 3.75442 6.14406 3.6832C6.5688 3.62841 6.9453 3.75374 7.22823 3.87289C7.50461 3.98928 7.83021 4.16297 8.18636 4.35295ZM6.42209 5.70382C6.421 5.71374 6.41993 5.72443 6.41887 5.73592C6.40091 5.93203 6.39991 6.2076 6.39991 6.66698V17.3336C6.39991 17.793 6.40091 18.0684 6.41887 18.2642C6.41992 18.2757 6.42099 18.2863 6.42208 18.2962C6.43144 18.2925 6.4415 18.2884 6.45227 18.2839C6.63333 18.2077 6.8767 18.0792 7.28186 17.8631L17.2819 12.5297C17.729 12.2913 18.0026 12.1441 18.1876 12.0225C18.1998 12.0144 18.2111 12.0069 18.2214 11.9998C18.2114 11.9929 18.2005 11.9856 18.1887 11.9779C18.0068 11.8583 17.7388 11.7139 17.3031 11.4816C17.296 11.478 17.2889 11.4743 17.2819 11.4706L7.28186 6.13722C6.87681 5.92119 6.63337 5.79249 6.45201 5.71612C6.44134 5.71163 6.43138 5.70754 6.42209 5.70382Z" fill="#121212"/>
</svg>
