<svg width="24" height="24" viewBox="0 0 24 24" fill="none" xmlns="http://www.w3.org/2000/svg">
<path d="M6.7134 8.12811L6.46682 8.69379C6.28637 9.10792 5.71357 9.10792 5.53312 8.69379L5.28656 8.12811C4.84706 7.11947 4.05545 6.31641 3.06767 5.87708L2.30805 5.53922C1.89732 5.35653 1.89732 4.75881 2.30805 4.57612L3.0252 4.25714C4.03838 3.80651 4.84417 2.97373 5.27612 1.93083L5.52932 1.31953C5.70578 0.893489 6.29417 0.893489 6.47063 1.31953L6.72382 1.93083C7.15577 2.97373 7.96158 3.80651 8.9748 4.25714L9.69188 4.57612C10.1027 4.75881 10.1027 5.35653 9.69188 5.53922L8.93228 5.87708C7.94451 6.31641 7.15288 7.11947 6.7134 8.12811ZM8.33421 16.8154C8.51032 16.233 8.7072 15.6562 8.93912 15.0327C10.9948 9.50636 14.4197 6.08172 20.0129 5.21479C19.5 6.35838 19.0151 7.15301 18.5858 7.58237C18.2521 7.91603 17.9185 8.24993 17.5848 8.58407L16.1721 9.99878L17.6279 11.4535C16.4976 13.5384 14.2652 15.1979 11.7519 15.512C10.4354 15.6766 9.29345 16.1188 8.33421 16.8154ZM20 10.9966L19 9.99728C19.3331 9.66372 19.6662 9.33039 20.0027 8.99391C21.0018 7.99303 22.0009 5.99392 23 2.99658C8.31105 2.99658 6.08854 16.422 5.06361 22.6132C5.0419 22.7443 5.02074 22.8722 5 22.9966H6.99824C7.66421 19.6635 9.33146 17.8301 12 17.4966C16 16.9966 19 13.9966 20 10.9966Z" fill="#121212"/>
</svg>
