<svg width="24" height="24" viewBox="0 0 24 24" fill="none" xmlns="http://www.w3.org/2000/svg">
<path fill-rule="evenodd" clip-rule="evenodd" d="M12.2 4C7.78167 4 4.19995 7.58172 4.19995 12C4.19995 16.4183 7.78167 20 12.2 20C16.6182 20 20.2 16.4183 20.2 12C20.2 7.58172 16.6182 4 12.2 4ZM2.19995 12C2.19995 6.47715 6.6771 2 12.2 2C17.7228 2 22.2 6.47715 22.2 12C22.2 17.5228 17.7228 22 12.2 22C6.6771 22 2.19995 17.5228 2.19995 12ZM10.2 8C10.7522 8 11.2 8.44772 11.2 9V15C11.2 15.5523 10.7522 16 10.2 16C9.64767 16 9.19995 15.5523 9.19995 15V9C9.19995 8.44772 9.64767 8 10.2 8ZM14.2 8C14.7522 8 15.2 8.44772 15.2 9V15C15.2 15.5523 14.7522 16 14.2 16C13.6477 16 13.2 15.5523 13.2 15V9C13.2 8.44772 13.6477 8 14.2 8Z" fill="#121212"/>
</svg>
