<svg width="24" height="24" viewBox="0 0 24 24" fill="none" xmlns="http://www.w3.org/2000/svg">
<path fill-rule="evenodd" clip-rule="evenodd" d="M9.56158 2H15.2387C15.7658 1.99998 16.2204 1.99997 16.5948 2.03058C16.9901 2.06289 17.383 2.13424 17.7613 2.32698C18.3247 2.61405 18.785 3.07224 19.0731 3.63781C19.2658 4.016 19.3371 4.40906 19.3694 4.80397C19.3972 5.14436 19.3997 5.55093 19.3999 6.01763C19.4931 6.02257 19.5826 6.02892 19.6683 6.03706C20.0384 6.07224 20.4059 6.14589 20.7613 6.32698C21.3247 6.61405 21.785 7.07224 22.0731 7.63781C22.2658 8.016 22.3371 8.40906 22.3694 8.80397C22.3999 9.17815 22.3999 9.6323 22.3999 10.1584V14.0307C22.3999 14.4701 22.3999 14.8489 22.3785 15.1625C22.356 15.4923 22.3064 15.8221 22.1714 16.1479C21.867 16.8828 21.2832 17.467 20.548 17.7715C20.222 17.9065 19.8921 17.956 19.5623 17.9785C19.5099 17.9821 19.4558 17.9851 19.3998 17.9876V18.032C19.3998 18.4706 19.3998 18.8491 19.3785 19.1624C19.3559 19.4922 19.3064 19.8221 19.1714 20.1481C18.867 20.8831 18.283 21.4671 17.548 21.7715C17.2221 21.9065 16.8922 21.9561 16.5624 21.9786C16.2487 22 15.8698 22 15.4305 22H9.36946C8.93009 22 8.55103 22 8.23732 21.9786C7.90744 21.9561 7.57749 21.9065 7.2516 21.7715C6.5166 21.4671 5.93279 20.8835 5.62827 20.1483C5.49323 19.8223 5.44375 19.4922 5.42125 19.1624C5.39988 18.849 5.39989 18.4704 5.3999 18.0317L5.3999 17.9876C5.34388 17.9851 5.28966 17.9821 5.23726 17.9785C4.90743 17.956 4.57752 17.9065 4.2516 17.7715C3.51619 17.4669 2.93261 16.8826 2.62827 16.1479C2.49329 15.822 2.44377 15.4922 2.42126 15.1624C2.39988 14.8492 2.39989 14.4708 2.3999 14.0322L2.3999 10.1617C2.39989 9.6345 2.39987 9.17965 2.43047 8.80499C2.46276 8.40962 2.53406 8.01625 2.72688 7.63781C3.0145 7.07332 3.47322 6.6146 4.03771 6.32698C4.39324 6.14583 4.76111 6.07222 5.13121 6.03707C5.21701 6.02892 5.30661 6.02257 5.39992 6.01763C5.40014 5.55126 5.40269 5.14508 5.43047 4.80499C5.46276 4.40962 5.53406 4.01625 5.72688 3.63781C6.0145 3.07332 6.47322 2.6146 7.03771 2.32698C7.41615 2.13416 7.80952 2.06286 8.20489 2.03057C8.57955 1.99997 9.03441 1.99998 9.56158 2ZM6.3999 8.00005C5.89606 8.00045 5.56822 8.00456 5.32034 8.02811C5.0838 8.05058 4.9917 8.08555 4.94569 8.109C4.75753 8.20487 4.60477 8.35763 4.5089 8.54579C4.48373 8.59517 4.44604 8.69595 4.42383 8.9678C4.40068 9.25126 4.3999 9.62365 4.3999 10.2002V14.0002C4.3999 14.4798 4.40045 14.7894 4.41661 15.0262C4.43216 15.254 4.45876 15.3408 4.47602 15.3825C4.57765 15.6278 4.77225 15.8224 5.01696 15.9238C5.05858 15.941 5.14541 15.9676 5.3734 15.9832C5.43511 15.9874 5.50175 15.9905 5.57503 15.9929C5.59111 15.9458 5.6088 15.8987 5.62827 15.8517C5.93275 15.1166 6.51651 14.5328 7.2516 14.2284C7.57756 14.0933 7.90757 14.0438 8.23741 14.0214C8.55072 14 8.92926 14 9.36791 14H15.4319C15.8705 14 16.249 14 16.5623 14.0214C16.8921 14.0439 17.222 14.0934 17.548 14.2284C18.2829 14.5328 18.8669 15.1165 19.1714 15.8517C19.1909 15.8987 19.2086 15.9458 19.2247 15.9929C19.2979 15.9905 19.3645 15.9874 19.4261 15.9832C19.6541 15.9676 19.741 15.941 19.7826 15.9238C20.0274 15.8224 20.2221 15.6277 20.3237 15.3825C20.341 15.3408 20.3676 15.2539 20.3832 15.0261C20.3993 14.7893 20.3999 14.4798 20.3999 14.0002V10.1969C20.3999 9.62146 20.3991 9.2498 20.376 8.96686C20.3538 8.69554 20.3162 8.59501 20.2911 8.54579C20.1958 8.35871 20.0426 8.20542 19.8533 8.10899C19.8071 8.08546 19.7151 8.05053 19.479 8.02809C19.2314 8.00455 18.9038 8.00045 18.3999 8.00005L6.3999 8.00005ZM17.3998 6C17.3994 5.53429 17.3964 5.21614 17.376 4.96686C17.3538 4.69554 17.3162 4.59501 17.2911 4.54579C17.1958 4.35871 17.0426 4.20542 16.8533 4.109C16.8038 4.08375 16.7031 4.04611 16.4318 4.02393C16.1487 4.00078 15.7767 4 15.2001 4H9.6001C9.02356 4 8.65116 4.00078 8.3677 4.02393C8.09585 4.04614 7.99508 4.08383 7.94569 4.109C7.75753 4.20487 7.60477 4.35763 7.5089 4.54579C7.48373 4.59517 7.44604 4.69595 7.42383 4.9678C7.40348 5.21702 7.40042 5.53498 7.39998 6H17.3998ZM9.3999 11C9.3999 10.4477 9.84762 10 10.3999 10H14.3999C14.9522 10 15.3999 10.4477 15.3999 11C15.3999 11.5523 14.9522 12 14.3999 12H10.3999C9.84762 12 9.3999 11.5523 9.3999 11ZM8.37352 16.0167C8.14541 16.0323 8.05854 16.0589 8.01696 16.0761C7.77193 16.1776 7.57752 16.372 7.47602 16.6171C7.45879 16.6587 7.43217 16.7455 7.41662 16.9735C7.40045 17.2105 7.3999 17.5201 7.3999 17.9997C7.3999 18.4794 7.40045 18.7891 7.41662 19.0263C7.43218 19.2545 7.45882 19.3414 7.47602 19.3829C7.57748 19.6279 7.77184 19.8222 8.01696 19.9238C8.05861 19.941 8.14553 19.9677 8.37361 19.9832C8.61063 19.9994 8.92035 20 9.3999 20H15.3999C15.8795 20 16.1891 19.9994 16.4261 19.9832C16.654 19.9677 16.7409 19.941 16.7826 19.9238C17.0276 19.8223 17.2222 19.6277 17.3237 19.3827C17.3409 19.3411 17.3675 19.2542 17.3831 19.0262C17.3993 18.7893 17.3998 18.4796 17.3998 18C17.3998 17.5204 17.3993 17.2107 17.3831 16.9736C17.3675 16.7455 17.3409 16.6586 17.3237 16.6171C17.2222 16.3722 17.0278 16.1777 16.7826 16.0761C16.741 16.0589 16.6541 16.0323 16.4261 16.0167C16.1892 16.0005 15.8795 16 15.3999 16H9.3999C8.92029 16 8.61057 16.0005 8.37352 16.0167Z" fill="#121212"/>
</svg>
