<svg width="24" height="24" viewBox="0 0 24 24" fill="none" xmlns="http://www.w3.org/2000/svg">
<path fill-rule="evenodd" clip-rule="evenodd" d="M7.16168 3H16.8388C17.3659 2.99998 17.8206 2.99997 18.1951 3.03057C18.5904 3.06288 18.9835 3.13421 19.3619 3.32698C19.9258 3.61431 20.3853 4.07276 20.6732 4.63781C20.866 5.01619 20.9373 5.40941 20.9696 5.80475C21.0002 6.17932 21.0002 6.63407 21.0002 7.16121V16.8383C21.0002 17.3655 21.0002 17.8202 20.9696 18.1948C20.9373 18.5902 20.866 18.9834 20.6732 19.3618C20.3857 19.9262 19.9265 20.3856 19.3619 20.6732C18.9838 20.8659 18.591 20.9372 18.1962 20.9695C17.8221 21 17.3682 21 16.8421 21H7.15839C6.6323 21 6.17815 21 5.80397 20.9695C5.40906 20.9372 5.016 20.8659 4.63781 20.6732C4.07276 20.3853 3.61432 19.9258 3.32698 19.3619C3.13421 18.9835 3.06288 18.5904 3.03057 18.1951C2.99997 17.8206 2.99998 17.3659 3 16.8388V7.16168C2.99998 6.63451 2.99997 6.17965 3.03057 5.80499C3.06286 5.40962 3.13416 5.01625 3.32698 4.63781C3.6146 4.07332 4.07332 3.6146 4.63781 3.32698C5.01625 3.13416 5.40962 3.06286 5.80499 3.03057C6.17965 2.99997 6.63451 2.99998 7.16168 3ZM5.9678 5.02393C5.69595 5.04614 5.59517 5.08383 5.54579 5.109C5.35763 5.20487 5.20487 5.35763 5.109 5.54579C5.08383 5.59517 5.04614 5.69595 5.02393 5.9678C5.00078 6.25126 5 6.62365 5 7.2002V16.8002C5 17.3768 5.00078 17.7489 5.02393 18.0322C5.04612 18.3037 5.08378 18.4044 5.109 18.4539C5.20516 18.6426 5.35819 18.7956 5.54579 18.8912C5.59501 18.9163 5.69554 18.9539 5.96686 18.9761C6.2498 18.9992 6.62146 19 7.19691 19H16.8036C17.379 19 17.7505 18.9992 18.0332 18.9761C18.3041 18.954 18.4046 18.9164 18.4539 18.8912C18.642 18.7954 18.7953 18.6421 18.8912 18.4538C18.9164 18.4044 18.9541 18.3036 18.9763 18.032C18.9994 17.7486 19.0002 17.3764 19.0002 16.7998V7.19978C19.0002 6.62323 18.9994 6.25095 18.9763 5.96762C18.9541 5.69595 18.9164 5.59523 18.8912 5.54579C18.7956 5.35819 18.6426 5.20516 18.4539 5.109C18.4044 5.08378 18.3037 5.04612 18.0322 5.02393C17.7489 5.00078 17.3768 5 16.8002 5H7.2002C6.62365 5 6.25126 5.00078 5.9678 5.02393ZM12 7C12.5523 7 13 7.44772 13 8V11H16C16.5523 11 17 11.4477 17 12C17 12.5523 16.5523 13 16 13H13V16C13 16.5523 12.5523 17 12 17C11.4477 17 11 16.5523 11 16V13H8C7.44772 13 7 12.5523 7 12C7 11.4477 7.44772 11 8 11H11V8C11 7.44772 11.4477 7 12 7Z" fill="#121212"/>
</svg>
