<svg width="24" height="24" viewBox="0 0 24 24" fill="none" xmlns="http://www.w3.org/2000/svg">
<path fill-rule="evenodd" clip-rule="evenodd" d="M7.32775 3H7.39168C7.83036 2.99999 8.20897 2.99998 8.52234 3.02135C8.8522 3.04384 9.18229 3.09333 9.5083 3.22836C10.2435 3.53288 10.8271 4.1167 11.1315 4.85169C11.2665 5.17766 11.316 5.50766 11.3385 5.83751C11.3599 6.15082 11.3599 6.52937 11.3599 6.96804V7.03199C11.3599 7.47064 11.3599 7.84913 11.3385 8.16238C11.316 8.49221 11.2665 8.82212 11.1315 9.14805C10.8271 9.8829 10.2436 10.467 9.5083 10.7715C9.18229 10.9066 8.85219 10.9561 8.52234 10.9786C8.20896 10.9999 7.83035 10.9999 7.39167 10.9999H7.32774C6.88909 10.9999 6.5106 10.9999 6.19735 10.9785C5.86752 10.956 5.53761 10.9065 5.21168 10.7715C4.47669 10.4671 3.89287 9.88349 3.58835 9.14831C3.45331 8.82231 3.40383 8.49221 3.38133 8.16235C3.35996 7.84898 3.35997 7.47038 3.35999 7.0317V6.96776C3.35997 6.52911 3.35996 6.15062 3.38134 5.83736C3.40384 5.50753 3.45334 5.17762 3.58835 4.85169C3.89283 4.11661 4.47659 3.53284 5.21168 3.22836C5.53761 3.09336 5.86752 3.04386 6.19735 3.02135C6.5106 2.99998 6.88909 2.99999 7.32775 3ZM6.33349 5.01671C6.10549 5.03227 6.01866 5.05888 5.97705 5.07612C5.73202 5.17762 5.5376 5.37203 5.43611 5.61706C5.41887 5.65867 5.39225 5.7455 5.3767 5.9735C5.36053 6.21048 5.35999 6.52012 5.35999 6.99974C5.35999 7.47935 5.36053 7.78914 5.3767 8.02627C5.39226 8.2545 5.4189 8.3414 5.43611 8.38294C5.53756 8.62788 5.73192 8.82225 5.97704 8.92378C6.01866 8.94101 6.10549 8.96763 6.33349 8.98319C6.57047 8.99936 6.88011 8.9999 7.35973 8.9999C7.83934 8.9999 8.14913 8.99936 8.38626 8.98319C8.61449 8.96762 8.70139 8.94098 8.74293 8.92378C8.98772 8.82238 9.18217 8.62795 9.28376 8.38269C9.301 8.34107 9.32762 8.25424 9.34317 8.02624C9.35934 7.78926 9.35988 7.47962 9.35988 7C9.35988 6.52038 9.35934 6.21067 9.34317 5.97362C9.32761 5.7455 9.30098 5.65864 9.28376 5.61706C9.18223 5.37194 8.98786 5.17758 8.74293 5.07612C8.70139 5.05892 8.61449 5.03228 8.38626 5.01671C8.14913 5.00054 7.83934 5 7.35973 5C6.8801 5 6.57047 5.00054 6.33349 5.01671ZM17.3277 3H17.3917C17.8304 2.99999 18.209 2.99998 18.5223 3.02135C18.8522 3.04384 19.1823 3.09333 19.5083 3.22836C20.2435 3.53288 20.8271 4.1167 21.1315 4.85169C21.2665 5.17766 21.316 5.50766 21.3385 5.83751C21.3599 6.15082 21.3599 6.52936 21.3599 6.96801V7.03199C21.3599 7.47064 21.3599 7.84913 21.3385 8.16238C21.316 8.49221 21.2665 8.82212 21.1315 9.14805C20.8271 9.8829 20.2436 10.467 19.5083 10.7715C19.1823 10.9066 18.8522 10.9561 18.5223 10.9786C18.209 10.9999 17.8304 10.9999 17.3917 10.9999H17.3277C16.8891 10.9999 16.5106 10.9999 16.1973 10.9785C15.8675 10.956 15.5376 10.9065 15.2117 10.7715C14.4767 10.4671 13.8929 9.88349 13.5883 9.14831C13.4533 8.82231 13.4038 8.49221 13.3813 8.16235C13.36 7.84898 13.36 7.47037 13.36 7.03168V6.96775C13.36 6.52911 13.36 6.15062 13.3813 5.83736C13.4038 5.50753 13.4533 5.17762 13.5883 4.85169C13.8928 4.11661 14.4766 3.53284 15.2117 3.22836C15.5376 3.09336 15.8675 3.04386 16.1973 3.02135C16.5106 2.99998 16.8891 2.99999 17.3277 3ZM16.3335 5.01671C16.1055 5.03227 16.0187 5.05888 15.977 5.07612C15.732 5.17762 15.5376 5.37203 15.4361 5.61706C15.4189 5.65867 15.3923 5.7455 15.3767 5.9735C15.3605 6.21048 15.36 6.52012 15.36 6.99974C15.36 7.47935 15.3605 7.78914 15.3767 8.02627C15.3923 8.2545 15.4189 8.3414 15.4361 8.38294C15.5376 8.62788 15.7319 8.82225 15.977 8.92378C16.0187 8.94101 16.1055 8.96763 16.3335 8.98319C16.5705 8.99936 16.8801 8.9999 17.3597 8.9999C17.8393 8.9999 18.1491 8.99936 18.3863 8.98319C18.6145 8.96762 18.7014 8.94098 18.7429 8.92378C18.9877 8.82238 19.1822 8.62795 19.2838 8.38269C19.301 8.34107 19.3276 8.25424 19.3432 8.02624C19.3593 7.78926 19.3599 7.47962 19.3599 7C19.3599 6.52038 19.3593 6.21067 19.3432 5.97362C19.3276 5.7455 19.301 5.65864 19.2838 5.61706C19.1822 5.37194 18.9879 5.17758 18.7429 5.07612C18.7014 5.05892 18.6145 5.03228 18.3863 5.01671C18.1491 5.00054 17.8393 5 17.3597 5C16.8801 5 16.5705 5.00054 16.3335 5.01671ZM7.32774 13H7.39167C7.83036 13 8.20896 13 8.52234 13.0213C8.8522 13.0438 9.18229 13.0933 9.50829 13.2284C10.2435 13.5329 10.8271 14.1167 11.1315 14.8517C11.2665 15.1777 11.316 15.5077 11.3385 15.8375C11.3599 16.1508 11.3599 16.5294 11.3599 16.968V17.032C11.3599 17.4706 11.3599 17.8491 11.3385 18.1624C11.316 18.4922 11.2665 18.8221 11.1315 19.1481C10.8271 19.8829 10.2436 20.467 9.5083 20.7715C9.18229 20.9066 8.85219 20.9561 8.52234 20.9786C8.20897 20.9999 7.83038 20.9999 7.39172 20.9999H7.32774C6.88909 20.9999 6.5106 20.9999 6.19735 20.9785C5.86752 20.956 5.53761 20.9065 5.21168 20.7715C4.47669 20.4671 3.89287 19.8835 3.58835 19.1483C3.45331 18.8223 3.40383 18.4922 3.38133 18.1624C3.35996 17.849 3.35997 17.4704 3.35999 17.0317V16.9678C3.35997 16.5291 3.35996 16.1506 3.38134 15.8374C3.40384 15.5075 3.45334 15.1776 3.58835 14.8517C3.89283 14.1166 4.47659 13.5328 5.21168 13.2284C5.53761 13.0934 5.86752 13.0439 6.19735 13.0214C6.5106 13 6.88909 13 7.32774 13ZM6.33349 15.0167C6.10549 15.0323 6.01866 15.0589 5.97704 15.0761C5.73202 15.1776 5.5376 15.372 5.43611 15.6171C5.41887 15.6587 5.39225 15.7455 5.3767 15.9735C5.36053 16.2105 5.35999 16.5201 5.35999 16.9997C5.35999 17.4794 5.36053 17.7891 5.3767 18.0263C5.39226 18.2545 5.4189 18.3414 5.43611 18.3829C5.53756 18.6279 5.73192 18.8222 5.97704 18.9238C6.01866 18.941 6.10549 18.9676 6.33349 18.9832C6.57047 18.9994 6.88011 18.9999 7.35973 18.9999C7.83934 18.9999 8.14913 18.9994 8.38626 18.9832C8.61449 18.9676 8.70139 18.941 8.74293 18.9238C8.98772 18.8224 9.18217 18.6279 9.28376 18.3827C9.301 18.3411 9.32762 18.2542 9.34317 18.0262C9.35934 17.7893 9.35988 17.4796 9.35988 17C9.35988 16.5204 9.35934 16.2107 9.34317 15.9736C9.32761 15.7455 9.30098 15.6586 9.28376 15.6171C9.18223 15.3719 8.98786 15.1776 8.74293 15.0761C8.70139 15.0589 8.61449 15.0323 8.38626 15.0167C8.14913 15.0005 7.83934 15 7.35973 15C6.8801 15 6.57047 15.0005 6.33349 15.0167ZM13.36 14C13.36 13.4477 13.8077 13 14.36 13H16.36C16.9123 13 17.36 13.4477 17.36 14C17.36 14.5523 16.9123 15 16.36 15H14.36C13.8077 15 13.36 14.5523 13.36 14ZM18.36 14C18.36 13.4477 18.8077 13 19.36 13H20.36C20.9123 13 21.36 13.4477 21.36 14V17C21.36 17.5523 20.9123 18 20.36 18H17.36C16.8077 18 16.36 17.5523 16.36 17C16.36 16.4477 16.8077 16 17.36 16H19.36V15C18.8077 15 18.36 14.5523 18.36 14ZM14.36 16C14.9123 16 15.36 16.4477 15.36 17V19H16.36C16.9123 19 17.36 19.4477 17.36 20C17.36 20.5523 16.9123 21 16.36 21H14.36C13.8077 21 13.36 20.5523 13.36 20V17C13.36 16.4477 13.8077 16 14.36 16ZM18.36 20C18.36 19.4477 18.8077 19 19.36 19H20.36C20.9123 19 21.36 19.4477 21.36 20C21.36 20.5523 20.9123 21 20.36 21H19.36C18.8077 21 18.36 20.5523 18.36 20Z" fill="#121212"/>
</svg>
