<svg width="24" height="24" viewBox="0 0 24 24" fill="none" xmlns="http://www.w3.org/2000/svg">
<path d="M4.04353 11.234L9.98799 17.0637V14.1144L10.9104 14.1312C14.4837 14.1994 17.3188 15.0034 19.1344 16.7155L19.3076 16.8843L19.4604 17.0442C19.6135 17.2103 19.7506 17.378 19.8748 17.5443C19.8412 17.3504 19.8043 17.1509 19.7617 16.947C19.3456 14.9537 18.5001 12.6369 16.8222 10.9239L16.5342 10.6447C15.1617 9.37777 13.4259 8.64613 11.3168 8.48359L10.8592 8.45796L9.98799 8.42527V5.39826L4.04353 11.234ZM11.7975 18.0841C11.7975 18.6429 11.4581 19.1424 10.9519 19.3556C10.4476 19.5679 9.85026 19.4652 9.44638 19.0675L2.46199 12.2174L2.45845 12.2139C2.23808 11.9952 2.08859 11.7008 2.05468 11.3754L2.04761 11.234L2.05468 11.0927C2.0886 10.7673 2.23809 10.4729 2.45845 10.2542L2.46199 10.2507L9.44638 3.39615L9.4508 3.39085L9.45522 3.38644C9.81774 3.04068 10.3568 2.90468 10.853 3.07013L10.9519 3.10724L11.0447 3.15053C11.4991 3.38304 11.7974 3.85479 11.7975 4.37865V6.71297C14.1224 6.95518 16.1341 7.81535 17.7552 9.3097L18.113 9.65604L18.1139 9.65693L18.3004 9.85219C20.1937 11.888 21.0971 14.4878 21.5332 16.5768C21.9854 18.7428 21.9564 20.4603 21.9494 20.6623L21.9485 20.6738C21.9177 21.4219 21.3018 21.9999 20.5666 22H20.5322C19.7734 21.9846 19.1794 21.3603 19.1848 20.6102H19.183C19.183 20.6045 19.1835 20.5895 19.1821 20.5589C19.1806 20.5266 19.1775 20.4758 19.1698 20.4096C19.1541 20.2767 19.121 20.0824 19.0505 19.8495C18.9102 19.3862 18.6216 18.7658 18.0203 18.1557L17.7605 17.9119C16.5358 16.8367 14.5806 16.149 11.7975 15.9795V18.0841Z" fill="#121212"/>
</svg>
