<svg width="24" height="24" viewBox="0 0 24 24" fill="none" xmlns="http://www.w3.org/2000/svg">
<path fill-rule="evenodd" clip-rule="evenodd" d="M15.845 4.68469C15.6442 4.61943 15.4279 4.61943 15.2271 4.68469C15.1742 4.70187 15.0762 4.74654 14.8683 4.92293C14.6516 5.10687 14.3877 5.36957 13.9801 5.77716L13.4141 6.34315L14.8287 7.75771C15.2192 8.14823 15.2192 8.78139 14.8287 9.17192C14.4381 9.56244 13.805 9.56244 13.4144 9.17192L11.9999 7.75736L10.586 9.17127L12.0005 10.5858C12.3911 10.9764 12.3911 11.6095 12.0005 12C11.61 12.3906 10.9768 12.3906 10.5863 12L9.17176 10.5855L7.75761 11.9996L9.17241 13.4144C9.56293 13.805 9.56293 14.4381 9.17241 14.8287C8.78188 15.2192 8.14872 15.2192 7.75819 14.8287L6.34339 13.4139L5.77765 13.9796C5.37006 14.3872 5.10736 14.6511 4.92342 14.8678C4.74703 15.0757 4.70236 15.1737 4.68517 15.2266C4.61992 15.4275 4.61992 15.6437 4.68517 15.8445C4.70229 15.8972 4.74679 15.9949 4.92295 16.2025C5.10671 16.4189 5.36907 16.6824 5.7763 17.0896L6.90902 18.2223C7.31657 18.6299 7.58063 18.8927 7.79752 19.0768C8.00562 19.2534 8.10374 19.2981 8.15657 19.3153C8.35699 19.3804 8.57246 19.3804 8.77373 19.315C8.82665 19.2978 8.92464 19.2531 9.13247 19.0768C9.3492 18.8929 9.61308 18.6302 10.0207 18.2226L18.2231 10.0202C18.6307 9.61259 18.8934 9.34871 19.0773 9.13198C19.2536 8.92416 19.2983 8.82616 19.3155 8.77324C19.3809 8.57197 19.3809 8.35649 19.3158 8.15608C19.2986 8.10326 19.2539 8.00513 19.0773 7.79704C18.8932 7.58014 18.6304 7.31608 18.2228 6.90853L17.0901 5.77582C16.6829 5.36858 16.4194 5.10622 16.203 4.92246C15.9954 4.7463 15.8977 4.70181 15.845 4.68469ZM14.6091 2.78257C15.2116 2.5868 15.8605 2.5868 16.4631 2.78257C16.8668 2.91375 17.1951 3.14122 17.4973 3.39774C17.7835 3.64076 18.1048 3.96202 18.4771 4.33433L18.5043 4.36161L19.6613 5.51857C20.0355 5.89271 20.3582 6.21542 20.6022 6.50298C20.859 6.80554 21.0867 7.13421 21.2179 7.53805C21.4138 8.14101 21.4132 8.78918 21.2176 9.39128C21.0864 9.79502 20.8589 10.1235 20.6022 10.426C20.3584 10.7133 20.036 11.0357 19.6621 11.4096L11.4101 19.6616C11.0362 20.0355 10.7138 20.3579 10.4265 20.6017C10.124 20.8584 9.79551 21.0859 9.39177 21.2171C8.78966 21.4127 8.14149 21.4133 7.53854 21.2174C7.1347 21.0862 6.80603 20.8585 6.50347 20.6017C6.21591 20.3577 5.8932 20.035 5.51905 19.6608L4.33486 18.4766C3.96253 18.1043 3.64125 17.7831 3.39823 17.4968C3.14171 17.1946 2.91423 16.8663 2.78306 16.4626C2.58729 15.86 2.58729 15.2111 2.78306 14.6086C2.91425 14.2048 3.14178 13.8763 3.39849 13.5738C3.64229 13.2865 3.96473 12.9641 4.33862 12.5902L12.5907 4.33808C12.9646 3.96421 13.287 3.64179 13.5743 3.39801C13.8768 3.14129 14.2053 2.91376 14.6091 2.78257Z" fill="#121212"/>
</svg>
