<svg width="24" height="24" viewBox="0 0 24 24" fill="none" xmlns="http://www.w3.org/2000/svg">
<path fill-rule="evenodd" clip-rule="evenodd" d="M19 2C19.5523 2 20 2.44772 20 3V8C20 8.55228 19.5523 9 19 9H14C13.4477 9 13 8.55228 13 8C13 7.44772 13.4477 7 14 7H16.8992C16.419 6.52924 15.8712 6.12795 15.271 5.81079C14.113 5.19894 12.8075 4.92432 11.5013 5.01795C10.1949 5.11159 8.93983 5.57008 7.88106 6.34073C6.82222 7.11144 6.00081 8.16374 5.51021 9.37801C5.30332 9.89008 4.72049 10.1375 4.20842 9.93059C3.69635 9.7237 3.44896 9.14087 3.65584 8.6288C4.28662 7.06759 5.34271 5.71464 6.70408 4.72372C8.06554 3.73275 9.67887 3.14345 11.3583 3.02307C13.0379 2.90267 14.7166 3.25586 16.2053 4.04244C16.8554 4.38592 17.4575 4.80605 18 5.2915V3C18 2.44772 18.4477 2 19 2ZM19.7922 14.0699C20.3042 14.2768 20.5516 14.8596 20.3448 15.3717C19.714 16.9329 18.6579 18.2858 17.2965 19.2768C15.935 20.2678 14.3231 20.8564 12.6438 20.9767C10.9643 21.0971 9.28441 20.7441 7.79556 19.9574C7.14531 19.6139 6.5429 19.1936 6.00002 18.708V21C6.00002 21.5523 5.55231 22 5.00002 22C4.44774 22 4.00002 21.5523 4.00002 21V16C4.00002 15.4477 4.44774 15 5.00002 15H10C10.5523 15 11 15.4477 11 16C11 16.5523 10.5523 17 10 17H7.10129C7.58161 17.4706 8.12954 17.8719 8.72987 18.1891C9.88776 18.8008 11.1944 19.0755 12.5008 18.9819C13.8072 18.8882 15.0608 18.4304 16.1195 17.6597C17.1784 16.889 17.9998 15.8367 18.4904 14.6225C18.6973 14.1104 19.2801 13.863 19.7922 14.0699Z" fill="#121212"/>
</svg>
