<svg width="24" height="24" viewBox="0 0 24 24" fill="none" xmlns="http://www.w3.org/2000/svg">
<path fill-rule="evenodd" clip-rule="evenodd" d="M5.00002 2C5.55231 2 6.00002 2.44772 6.00002 3V5.29194C6.54289 4.80628 7.1453 4.38601 7.79556 4.04244C9.28439 3.25581 10.9643 2.90268 12.6438 3.02307C14.3234 3.14347 15.9353 3.73289 17.2965 4.72372C18.6579 5.71464 19.714 7.06759 20.3448 8.6288C20.5516 9.14087 20.3042 9.7237 19.7922 9.93059C19.2801 10.1375 18.6973 9.89008 18.4904 9.37801C17.9998 8.16374 17.1784 7.11144 16.1195 6.34073C15.0606 5.56994 13.8069 5.11157 12.5008 5.01795C11.1945 4.92431 9.88778 5.199 8.72987 5.81079C8.12954 6.12798 7.58158 6.52928 7.10125 7H10C10.5523 7 11 7.44772 11 8C11 8.55228 10.5523 9 10 9H5.00002C4.44774 9 4.00002 8.55228 4.00002 8V3C4.00002 2.44772 4.44774 2 5.00002 2ZM4.20745 14.0699C4.71951 13.863 5.30235 14.1104 5.50924 14.6225C5.99984 15.8367 6.82124 16.889 7.88008 17.6597C8.93861 18.4302 10.1936 18.8882 11.5003 18.9819C12.8065 19.0755 14.112 18.8009 15.27 18.1891C15.8703 17.8719 16.418 17.4707 16.8982 17H14C13.4477 17 13 16.5523 13 16C13 15.4477 13.4477 15 14 15H19C19.5523 15 20 15.4477 20 16V21C20 21.5523 19.5523 22 19 22C18.4477 22 18 21.5523 18 21V18.7076C17.4572 19.1933 16.8548 19.6137 16.2043 19.9574C14.7156 20.744 13.0369 21.0971 11.3573 20.9767C9.67819 20.8564 8.0648 20.2679 6.7031 19.2768C5.34173 18.2858 4.28564 16.9329 3.65487 15.3717C3.44798 14.8596 3.69538 14.2768 4.20745 14.0699Z" fill="#121212"/>
</svg>
