<svg width="24" height="24" viewBox="0 0 24 24" fill="none" xmlns="http://www.w3.org/2000/svg">
<path fill-rule="evenodd" clip-rule="evenodd" d="M3 6C3 5.44772 3.44772 5 4 5H16C16.5523 5 17 5.44772 17 6C17 6.55228 16.5523 7 16 7H4C3.44772 7 3 6.55228 3 6ZM18 9C18.5523 9 19 9.44772 19 10V15.5858L20.2929 14.2929C20.6834 13.9024 21.3166 13.9024 21.7071 14.2929C22.0976 14.6834 22.0976 15.3166 21.7071 15.7071L18.7071 18.7071C18.3166 19.0976 17.6834 19.0976 17.2929 18.7071L14.2929 15.7071C13.9024 15.3166 13.9024 14.6834 14.2929 14.2929C14.6834 13.9024 15.3166 13.9024 15.7071 14.2929L17 15.5858V10C17 9.44772 17.4477 9 18 9ZM3 11C3 10.4477 3.44772 10 4 10H13C13.5523 10 14 10.4477 14 11C14 11.5523 13.5523 12 13 12H4C3.44772 12 3 11.5523 3 11ZM3 16C3 15.4477 3.44772 15 4 15H10C10.5523 15 11 15.4477 11 16C11 16.5523 10.5523 17 10 17H4C3.44772 17 3 16.5523 3 16Z" fill="#121212"/>
</svg>
