<svg width="24" height="24" viewBox="0 0 24 24" fill="none" xmlns="http://www.w3.org/2000/svg">
<path d="M11.4103 2.19236C11.7859 1.9177 12.3075 1.93729 12.6623 2.25095C14.8035 4.14531 17.5984 5.13163 20.4543 5.00095C20.9144 4.9799 21.3292 5.27593 21.4592 5.71775C21.9506 7.38935 22.1012 9.14314 21.9015 10.874C21.7019 12.6048 21.156 14.2781 20.297 15.7939C19.4381 17.3096 18.2837 18.6376 16.9015 19.6982C15.5193 20.7589 13.9376 21.5303 12.2511 21.9677C12.0866 22.0104 11.9138 22.0104 11.7492 21.9677C10.0628 21.5303 8.48102 20.7588 7.09881 19.6982C5.7166 18.6376 4.5613 17.3097 3.70232 15.7939C2.84338 14.2781 2.29845 12.6047 2.09881 10.874C1.89919 9.14314 2.04882 7.38935 2.54021 5.71775L2.60174 5.55954C2.77443 5.20691 3.1433 4.98252 3.54607 5.00095C6.40179 5.13154 9.19601 4.14516 11.3371 2.25095L11.4103 2.19236ZM4.6281 13C4.84534 13.6239 5.11521 14.2299 5.44256 14.8076C6.16939 16.0902 7.14699 17.2138 8.31658 18.1113C9.1369 18.7407 10.0415 19.2463 11.0002 19.622V13H4.6281ZM13.0002 19.622C13.9588 19.2463 14.8635 18.7408 15.6838 18.1113C16.8534 17.2138 17.831 16.0902 18.5578 14.8076C18.8851 14.2299 19.155 13.6239 19.3722 13H13.0002V19.622ZM13.0002 11H19.8644C19.882 10.8817 19.9005 10.7635 19.9142 10.6445C20.0545 9.42859 19.9875 8.20043 19.7238 7.00876C17.3326 6.96696 15.0077 6.26662 13.0002 4.99607V11ZM11.0002 4.99607C8.9921 6.26701 6.6665 6.96823 4.27459 7.00974C4.01116 8.20098 3.94497 9.42905 4.08513 10.6445C4.09885 10.7634 4.11738 10.8817 4.13494 11H11.0002V4.99607Z" fill="black"/>
</svg>
