<svg width="24" height="24" viewBox="0 0 24 24" fill="none" xmlns="http://www.w3.org/2000/svg">
<path d="M6.59996 18.125V7.9873L4.53627 9.99365C4.1848 10.3354 3.61508 10.3354 3.26361 9.99365C2.91213 9.65194 2.91213 9.09806 3.26361 8.75635L6.86363 5.25635L6.93219 5.19653C7.28569 4.91623 7.80679 4.936 8.1363 5.25635L11.7363 8.75635C12.0878 9.09806 12.0878 9.65194 11.7363 9.99365C11.3849 10.3354 10.8151 10.3354 10.4637 9.99365L8.39997 7.9873V18.125C8.39997 18.6082 7.99703 19 7.49997 19C7.00291 19 6.59996 18.6082 6.59996 18.125ZM15.6 5.875C15.6 5.39175 16.003 5 16.5 5C16.9971 5 17.4 5.39175 17.4 5.875V16.0127L19.4637 14.0063C19.8152 13.6646 20.3849 13.6646 20.7364 14.0063C21.0879 14.3481 21.0879 14.9019 20.7364 15.2437L17.1364 18.7437C16.7849 19.0854 16.2152 19.0854 15.8637 18.7437L12.2637 15.2437C11.9122 14.9019 11.9122 14.3481 12.2637 14.0063C12.6151 13.6646 13.1849 13.6646 13.5363 14.0063L15.6 16.0127V5.875Z" fill="#121212"/>
</svg>
