<svg width="24" height="24" viewBox="0 0 24 24" fill="none" xmlns="http://www.w3.org/2000/svg">
<path fill-rule="evenodd" clip-rule="evenodd" d="M9.35251 3.5101C10.2911 3.12753 11.33 2.9571 12.3642 3.00915C13.3984 3.0612 14.4081 3.33491 15.2882 3.81342C16.1685 4.292 16.9022 4.96724 17.3862 5.79017C17.6662 6.26621 17.5073 6.87911 17.0313 7.15912C16.5552 7.43913 15.9423 7.28021 15.6623 6.80417C15.3839 6.33075 14.9338 5.89724 14.3329 5.57052C13.7318 5.24372 13.0169 5.04453 12.2637 5.00662C11.5105 4.96871 10.7646 5.09429 10.1074 5.36215C9.45004 5.63012 8.92272 6.02333 8.56175 6.47836C8.20311 6.93047 8.02081 7.42679 8.00167 7.9141C7.99602 8.058 8.00454 8.20157 8.02706 8.34457C8.11298 8.89013 7.74037 9.40205 7.19481 9.48797C6.64925 9.57389 6.13733 9.20127 6.05141 8.65571C6.00883 8.38532 5.99238 8.11126 6.00321 7.8356C6.04032 6.89091 6.39393 5.99298 6.99489 5.23541C7.59353 4.48076 8.41422 3.89257 9.35251 3.5101ZM3 12.0001C3 11.4478 3.44772 11.0001 4 11.0001H20C20.5523 11.0001 21 11.4478 21 12.0001C21 12.5524 20.5523 13.0001 20 13.0001H16.8072C16.9513 13.1607 17.0847 13.3298 17.2064 13.5068C17.7517 14.3004 18.0345 15.2194 17.9974 16.1649C17.9603 17.1098 17.6064 18.0074 17.0056 18.7648C16.4068 19.5196 15.5861 20.1074 14.648 20.4898C13.7096 20.8723 12.6707 21.0431 11.6363 20.991C10.602 20.939 9.59279 20.6652 8.71278 20.1867C7.83273 19.7083 7.09878 19.0333 6.61462 18.2102C6.33461 17.7342 6.49352 17.1213 6.96956 16.8413C7.4456 16.5612 8.0585 16.7202 8.33851 17.1962C8.61687 17.6694 9.06692 18.1028 9.66808 18.4296C10.2693 18.7565 10.9837 18.9557 11.7368 18.9936C12.4897 19.0315 13.2357 18.9057 13.893 18.6377C14.5506 18.3697 15.0779 17.9767 15.4387 17.5218C15.7975 17.0695 15.9798 16.5735 15.9989 16.0864C16.0181 15.5999 15.8755 15.1015 15.5581 14.6395C15.3829 14.3846 15.1572 14.145 14.8839 13.9306C14.6587 13.7541 14.402 13.5954 14.118 13.461C13.4877 13.1628 12.7556 13.0001 12.0005 13.0001H4C3.44772 13.0001 3 12.5524 3 12.0001Z" fill="#121212"/>
</svg>
