<svg width="24" height="24" viewBox="0 0 24 24" fill="none" xmlns="http://www.w3.org/2000/svg">
<path fill-rule="evenodd" clip-rule="evenodd" d="M8.16168 4H15.8388C16.3659 3.99998 16.8206 3.99997 17.1951 4.03057C17.5904 4.06288 17.9835 4.13421 18.3619 4.32698C18.9258 4.61431 19.3853 5.07276 19.6732 5.63781C19.8659 6.016 19.9372 6.40906 19.9695 6.80397C20 7.17815 20 7.6323 20 8.15839V15.8416C20 16.3677 20 16.8217 19.9695 17.1957C19.9372 17.5905 19.8659 17.9833 19.6732 18.3614C19.3859 18.9254 18.9269 19.3854 18.3619 19.6732C17.9838 19.8659 17.591 19.9372 17.1962 19.9695C16.8222 20 16.3682 20 15.8421 20H8.15839C7.6323 20 7.17815 20 6.80397 19.9695C6.40906 19.9372 6.016 19.8659 5.63781 19.6732C5.07224 19.3851 4.61405 18.9248 4.32698 18.3614C4.13424 17.9831 4.06289 17.5902 4.03058 17.1949C3.99997 16.8205 3.99998 16.3659 4 15.8388V8.16168C3.99998 7.63451 3.99997 7.17965 4.03057 6.80499C4.06286 6.40962 4.13416 6.01625 4.32698 5.63781C4.6146 5.07332 5.07332 4.6146 5.63781 4.32698C6.01625 4.13416 6.40962 4.06286 6.80499 4.03057C7.17965 3.99997 7.63451 3.99998 8.16168 4ZM6.9678 6.02393C6.69595 6.04614 6.59517 6.08383 6.54579 6.109C6.35763 6.20487 6.20487 6.35763 6.109 6.54579C6.08383 6.59517 6.04614 6.69595 6.02393 6.9678C6.00078 7.25126 6 7.62365 6 8.2002V15.8002C6 16.3768 6.00078 16.7488 6.02393 17.0319C6.04611 17.3032 6.08375 17.4039 6.109 17.4534C6.20542 17.6427 6.35871 17.7959 6.54579 17.8912C6.59501 17.9163 6.69554 17.9539 6.96686 17.9761C7.2498 17.9992 7.62146 18 8.19691 18H15.8036C16.379 18 16.7505 17.9992 17.0332 17.9761C17.3041 17.954 17.4046 17.9164 17.4539 17.8912C17.6415 17.7956 17.7951 17.6421 17.8912 17.4534C17.9164 17.4041 17.954 17.3036 17.9761 17.0327C17.9992 16.75 18 16.3786 18 15.8031V8.19691C18 7.62146 17.9992 7.2498 17.9761 6.96686C17.9539 6.69554 17.9163 6.59501 17.8912 6.54579C17.7956 6.35819 17.6426 6.20516 17.4539 6.109C17.4044 6.08378 17.3037 6.04612 17.0322 6.02393C16.7489 6.00078 16.3768 6 15.8002 6H8.2002C7.62365 6 7.25126 6.00078 6.9678 6.02393Z" fill="#121212"/>
</svg>
