<svg width="24" height="24" viewBox="0 0 24 24" fill="none" xmlns="http://www.w3.org/2000/svg">
<path fill-rule="evenodd" clip-rule="evenodd" d="M9.5 3C10.0523 3 10.5 3.44772 10.5 4V8C10.5 8.55228 10.0523 9 9.5 9C8.94772 9 8.5 8.55228 8.5 8V7H2.5C1.94772 7 1.5 6.55228 1.5 6C1.5 5.44772 1.94772 5 2.5 5H8.5V4C8.5 3.44772 8.94772 3 9.5 3ZM12.5 6C12.5 5.44772 12.9477 5 13.5 5H20.5C21.0523 5 21.5 5.44772 21.5 6C21.5 6.55228 21.0523 7 20.5 7H13.5C12.9477 7 12.5 6.55228 12.5 6ZM15.5 9C16.0523 9 16.5 9.44772 16.5 10V14C16.5 14.5523 16.0523 15 15.5 15C14.9477 15 14.5 14.5523 14.5 14V13H2.5C1.94772 13 1.5 12.5523 1.5 12C1.5 11.4477 1.94772 11 2.5 11H14.5V10C14.5 9.44772 14.9477 9 15.5 9ZM18.5 12C18.5 11.4477 18.9477 11 19.5 11H20.5C21.0523 11 21.5 11.4477 21.5 12C21.5 12.5523 21.0523 13 20.5 13H19.5C18.9477 13 18.5 12.5523 18.5 12ZM5.5 15C6.05228 15 6.5 15.4477 6.5 16V20C6.5 20.5523 6.05228 21 5.5 21C4.94772 21 4.5 20.5523 4.5 20V19H2.5C1.94772 19 1.5 18.5523 1.5 18C1.5 17.4477 1.94772 17 2.5 17H4.5V16C4.5 15.4477 4.94772 15 5.5 15ZM8.5 18C8.5 17.4477 8.94772 17 9.5 17H20.5C21.0523 17 21.5 17.4477 21.5 18C21.5 18.5523 21.0523 19 20.5 19H9.5C8.94772 19 8.5 18.5523 8.5 18Z" fill="#121212"/>
</svg>
