<svg width="24" height="24" viewBox="0 0 24 24" fill="none" xmlns="http://www.w3.org/2000/svg">
<path fill-rule="evenodd" clip-rule="evenodd" d="M7.16168 2H16.8388C17.3659 1.99998 17.8205 1.99997 18.1949 2.03058C18.5902 2.06289 18.9831 2.13424 19.3614 2.32698C19.9248 2.61405 20.3851 3.07224 20.6732 3.63781C20.8659 4.016 20.9372 4.40906 20.9695 4.80397C21 5.17815 21 5.6323 21 6.15839V10.1651C21 17.346 15.5453 20.5434 13.3381 21.5424L13.3272 21.5474C13.0883 21.6555 12.884 21.7473 12.5081 21.8119C12.3429 21.8402 12.1455 21.8468 12.0005 21.8468C11.8555 21.8468 11.6581 21.8402 11.4929 21.8119C11.1126 21.7466 10.9073 21.6536 10.6625 21.5428L10.6616 21.5424C8.45439 20.5434 3 17.3459 3 10.165L3 6.16168C2.99998 5.63451 2.99997 5.17965 3.03057 4.80499C3.06286 4.40962 3.13416 4.01625 3.32698 3.63781C3.6146 3.07332 4.07332 2.6146 4.63781 2.32698C5.01625 2.13416 5.40962 2.06286 5.80499 2.03057C6.17965 1.99997 6.63451 1.99998 7.16168 2ZM5.9678 4.02393C5.69595 4.04614 5.59517 4.08383 5.54579 4.109C5.35763 4.20487 5.20487 4.35763 5.109 4.54579C5.08383 4.59517 5.04614 4.69595 5.02393 4.9678C5.00078 5.25126 5 5.62365 5 6.2002V10.165C5 16.1207 9.48121 18.8128 11.4863 19.7204C11.6068 19.7749 11.6493 19.7933 11.6876 19.8067C11.7124 19.8154 11.7473 19.8261 11.8266 19.8399C11.8266 19.8399 11.8418 19.8417 11.8711 19.8434C11.9074 19.8455 11.9524 19.8468 12.0005 19.8468C12.0486 19.8468 12.0936 19.8455 12.1299 19.8434C12.1592 19.8417 12.1744 19.8399 12.1744 19.8399C12.2529 19.8262 12.2871 19.8157 12.3112 19.8072C12.349 19.794 12.3905 19.776 12.5108 19.7215L12.5217 19.7166C14.5309 18.8053 19 16.1124 19 10.1651V6.19691C19 5.62146 18.9992 5.2498 18.9761 4.96686C18.9539 4.69554 18.9163 4.59501 18.8912 4.54579C18.7959 4.35871 18.6427 4.20542 18.4534 4.109C18.4039 4.08375 18.3032 4.04611 18.0319 4.02393C17.7488 4.00078 17.3768 4 16.8002 4H7.2002C6.62365 4 6.25126 4.00078 5.9678 4.02393ZM12 7C12.5523 7 13 7.44772 13 8V12C13 12.5523 12.5523 13 12 13C11.4477 13 11 12.5523 11 12V8C11 7.44772 11.4477 7 12 7ZM10.9502 15C10.9502 14.4477 11.3979 14 11.9502 14H12.0498C12.6021 14 13.0498 14.4477 13.0498 15V15.1C13.0498 15.6515 12.6033 16.0989 12.0518 16.1L11.9522 16.1002C11.6866 16.1007 11.4317 15.9956 11.2438 15.808C11.0558 15.6204 10.9502 15.3658 10.9502 15.1002V15Z" fill="#121212"/>
</svg>
