<svg width="24" height="24" viewBox="0 0 24 24" fill="none" xmlns="http://www.w3.org/2000/svg">
<path fill-rule="evenodd" clip-rule="evenodd" d="M11.4495 2.62383C11.5612 2.43316 11.7667 2.31642 11.9885 2.31642C12.2112 2.31487 12.4181 2.43166 12.5314 2.62311L15.5838 7.82787L21.5026 9.09638C21.7213 9.14228 21.8987 9.30027 21.9682 9.51194C22.0377 9.72284 21.9893 9.95398 21.8401 10.1197L17.8089 14.6202L18.4268 20.6141C18.4503 20.8352 18.3542 21.0515 18.1737 21.1822C17.994 21.3138 17.7573 21.3394 17.5534 21.2499L12.0096 18.8242L6.46976 21.2631C6.26584 21.3526 6.02912 21.3285 5.84865 21.1977C5.66819 21.067 5.57132 20.8499 5.59397 20.6296L6.19788 14.6325L2.15807 10.1438C2.01041 9.97879 1.96119 9.74844 2.02994 9.53754C2.0987 9.32744 2.27526 9.16867 2.49166 9.1212L8.40648 7.83636L11.4495 2.62383ZM5.23424 10.5721L8.27648 13.9524L7.82022 18.4833L12.0071 16.64L16.1954 18.4727L15.7287 13.945L18.7651 10.5551L14.3039 9.59899L11.9933 5.65919L9.69035 9.60411L5.23424 10.5721ZM16.9964 19.5655C16.9977 19.5645 16.999 19.5636 17.0003 19.5626L16.9964 19.5655Z" fill="#121212"/>
</svg>
