<svg width="24" height="24" viewBox="0 0 24 24" fill="none" xmlns="http://www.w3.org/2000/svg">
<path fill-rule="evenodd" clip-rule="evenodd" d="M17.0929 3.29289C17.4834 2.90237 18.1166 2.90237 18.5071 3.29289L21.5071 6.29289C21.6946 6.48043 21.8 6.73478 21.8 7C21.8 7.26522 21.6946 7.51957 21.5071 7.70711L18.5071 10.7071C18.1166 11.0976 17.4834 11.0976 17.0929 10.7071C16.7024 10.3166 16.7024 9.68342 17.0929 9.29289L18.3858 8H16.8C15.8984 8 15.069 8.29712 14.4006 8.7992C13.959 9.13089 13.3321 9.0418 13.0004 8.60021C12.6687 8.15862 12.7578 7.53176 13.1994 7.20007C14.2023 6.44677 15.4504 6 16.8 6L18.3858 6L17.0929 4.70711C16.7024 4.31658 16.7024 3.68342 17.0929 3.29289ZM1.79999 7C1.79999 6.44772 2.2477 6 2.79999 6H6.79999C10.1137 6 12.8 8.68629 12.8 12C12.8 14.2091 14.5908 16 16.8 16H18.3858L17.0929 14.7071C16.7024 14.3166 16.7024 13.6834 17.0929 13.2929C17.4834 12.9024 18.1166 12.9024 18.5071 13.2929L21.5071 16.2929C21.8976 16.6834 21.8976 17.3166 21.5071 17.7071L18.5071 20.7071C18.1166 21.0976 17.4834 21.0976 17.0929 20.7071C16.7024 20.3166 16.7024 19.6834 17.0929 19.2929L18.3858 18H16.8C13.4863 18 10.8 15.3137 10.8 12C10.8 9.79086 9.00913 8 6.79999 8H2.79999C2.2477 8 1.79999 7.55228 1.79999 7ZM10.5996 15.3994C10.9312 15.841 10.8422 16.4679 10.4006 16.7996C9.39786 17.5527 8.14979 18 6.79999 18H2.79999C2.2477 18 1.79999 17.5523 1.79999 17C1.79999 16.4477 2.2477 16 2.79999 16H6.79999C7.7014 16 8.53079 15.7027 9.19941 15.2004C9.641 14.8687 10.2679 14.9578 10.5996 15.3994Z" fill="#121212"/>
</svg>
