<svg width="24" height="24" viewBox="0 0 24 24" fill="none" xmlns="http://www.w3.org/2000/svg">
<path fill-rule="evenodd" clip-rule="evenodd" d="M7.5801 3.81201L4.08605 16.8521C3.72873 18.1856 4.52022 19.5564 5.85404 19.9138C7.1877 20.2711 8.55853 19.4797 8.9159 18.146L12.4097 5.10588L7.5801 3.81201ZM7.64289 1.7583C6.82641 1.53955 5.98849 2.02456 5.77004 2.83983L2.15419 16.3345C1.51092 18.7352 2.93596 21.2024 5.3364 21.8456C5.73237 21.9517 6.13017 22.0015 6.52129 22H20.4706C21.3144 22 22.0002 21.3162 22.0002 20.4707L22 14.5293C22 14.4154 21.981 14.3059 21.9459 14.2039C21.9356 14.0143 21.8896 13.8235 21.8044 13.6409L19.2935 8.2566C18.9371 7.49224 18.0277 7.1589 17.261 7.51642L13.3451 9.34258L14.4634 5.16886C14.682 4.35276 14.1976 3.51436 13.3819 3.2958L7.64289 1.7583ZM12.6694 11.8645L10.9802 18.1691L19.793 14.0597L17.6796 9.52797L12.6694 11.8645ZM20.0001 16.1699L11.7863 20H20.0002L20.0001 16.1699ZM5.50001 17.6001C5.50001 17.0478 5.94772 16.6001 6.50001 16.6001H6.50201C6.7713 16.6001 7.0292 16.7087 7.21737 16.9014C7.40553 17.094 7.50806 17.3544 7.50173 17.6236L7.50169 17.6256C7.49546 17.8908 7.38409 18.1427 7.19211 18.3258C7.00013 18.5089 6.74326 18.6082 6.47804 18.6018L6.47609 18.6018C5.93328 18.5888 5.50001 18.145 5.50001 17.6021V17.6001Z" fill="#121212"/>
</svg>
