<svg width="24" height="24" viewBox="0 0 24 24" fill="none" xmlns="http://www.w3.org/2000/svg">
<path fill-rule="evenodd" clip-rule="evenodd" d="M16.0985 4.03143C16.0047 4.00734 15.8912 3.99999 15.315 3.99999H6.44019C5.86364 3.99999 5.49125 4.00077 5.20779 4.02392C4.93594 4.04613 4.83516 4.08383 4.78578 4.10899C4.59762 4.20486 4.44486 4.35762 4.34899 4.54578C4.32382 4.59517 4.28613 4.69594 4.26392 4.96779C4.24077 5.25125 4.23999 5.62365 4.23999 6.20019V17.8002C4.23999 18.3768 4.24077 18.7488 4.26392 19.0319C4.2861 19.3032 4.32374 19.4038 4.34899 19.4534C4.44541 19.6426 4.5987 19.7959 4.78578 19.8912C4.83499 19.9163 4.93553 19.9539 5.20685 19.9761C5.45613 19.9965 5.77428 19.9995 6.23999 19.9999L6.23999 17.1617C6.23997 16.6345 6.23996 16.1796 6.27056 15.805C6.30285 15.4096 6.37415 15.0162 6.56697 14.6378C6.85459 14.0733 7.31331 13.6146 7.8778 13.327C8.25624 13.1342 8.64961 13.0629 9.04498 13.0306C9.41964 13 9.87449 13 10.4017 13H14.0788C14.6059 13 15.0605 13 15.4349 13.0306C15.8302 13.0629 16.2231 13.1342 16.6014 13.327C17.1648 13.614 17.6251 14.0722 17.9132 14.6378C18.1059 15.016 18.1772 15.4091 18.2094 15.804C18.24 16.1781 18.24 16.6323 18.24 17.1584V19.9999C18.7057 19.9995 19.0236 19.9965 19.2727 19.9761C19.5436 19.9539 19.6441 19.9163 19.6934 19.8912C19.8822 19.795 20.0357 19.6415 20.1312 19.454C20.1563 19.4048 20.1939 19.3043 20.2161 19.033C20.2392 18.7501 20.24 18.3785 20.24 17.8031V9.21954C20.24 8.72701 20.2344 8.63066 20.2162 8.54912C20.1947 8.45295 20.1596 8.36142 20.1119 8.27671C20.072 8.20585 20.0128 8.13179 19.6896 7.77276L16.9344 4.71137C16.5597 4.29503 16.481 4.21845 16.4033 4.16681C16.3108 4.10533 16.2079 4.05951 16.0985 4.03143ZM18.0431 22H6.39838C5.87229 22 5.41814 22 5.04396 21.9694C4.64905 21.9372 4.25599 21.8659 3.8778 21.6732C3.31223 21.3851 2.85404 20.9248 2.56697 20.3614C2.37423 19.9831 2.30288 19.5902 2.27057 19.1949C2.23996 18.8205 2.23997 18.3659 2.23999 17.8388V6.16167C2.23997 5.6345 2.23996 5.17964 2.27056 4.80498C2.30285 4.40961 2.37415 4.01624 2.56697 3.6378C2.85459 3.07331 3.31331 2.6146 3.8778 2.32698C4.25624 2.13415 4.64961 2.06285 5.04498 2.03056C5.41964 1.99996 5.8745 1.99998 6.40167 1.99999L15.315 1.99999C15.3451 1.99999 15.375 1.99997 15.4046 1.99994C15.8407 1.9995 16.2255 1.99912 16.596 2.0943C16.9206 2.17764 17.2297 2.31467 17.5103 2.50114C17.8259 2.71088 18.0798 2.99361 18.3627 3.30866C18.382 3.33011 18.4014 3.3517 18.421 3.37344M18.421 3.37344L21.1762 6.43479C21.193 6.45346 21.2097 6.47201 21.2263 6.49041C21.4714 6.76226 21.6922 7.00712 21.8545 7.29517C21.9989 7.55161 22.1042 7.82704 22.1681 8.11297C22.2407 8.43781 22.2404 8.76959 22.24 9.14326C22.24 9.16849 22.24 9.19392 22.24 9.21955V17.8416C22.24 18.3677 22.24 18.8218 22.2094 19.1959C22.1772 19.5908 22.1059 19.9838 21.9132 20.362C21.6253 20.9271 21.1652 21.3859 20.6014 21.6732C20.2233 21.8659 19.8305 21.9372 19.4357 21.9694C19.0617 22 18.6077 22 18.0816 22H18.0431M16.24 20.0002V17.1969C16.24 16.6215 16.2392 16.2498 16.2161 15.9669C16.1939 15.6955 16.1563 15.595 16.1312 15.5458C16.0359 15.3587 15.8826 15.2054 15.6934 15.109C15.6438 15.0837 15.5432 15.0461 15.2719 15.0239C14.9888 15.0008 14.6168 15 14.0402 15H10.4402C9.86364 15 9.49125 15.0008 9.20779 15.0239C8.93594 15.0461 8.83516 15.0838 8.78578 15.109C8.59762 15.2049 8.44486 15.3576 8.34899 15.5458C8.32382 15.5952 8.28613 15.6959 8.26392 15.9678C8.24077 16.2513 8.23999 16.6236 8.23999 17.2002V20L16.24 20.0002ZM8.23999 6.99999C8.23999 6.44771 8.68771 5.99999 9.23999 5.99999H15.24C15.7923 5.99999 16.24 6.44771 16.24 6.99999C16.24 7.55228 15.7923 7.99999 15.24 7.99999H9.23999C8.68771 7.99999 8.23999 7.55228 8.23999 6.99999Z" fill="#121212"/>
</svg>
