<svg width="24" height="24" viewBox="0 0 24 24" fill="none" xmlns="http://www.w3.org/2000/svg">
<path d="M17 20C17 19.7348 16.8946 19.4805 16.707 19.293C16.5195 19.1054 16.2652 19 16 19C15.4477 19 15 18.5523 15 18C15 17.4477 15.4477 17 16 17C16.2652 17 16.5195 16.8946 16.707 16.707C16.8946 16.5195 17 16.2652 17 16C17 15.4477 17.4477 15 18 15C18.5523 15 19 15.4477 19 16C19 16.2652 19.1054 16.5195 19.293 16.707C19.4805 16.8946 19.7348 17 20 17C20.5523 17 21 17.4477 21 18C21 18.5523 20.5523 19 20 19C19.7348 19 19.4805 19.1054 19.293 19.293C19.1054 19.4805 19 19.7348 19 20C19 20.5523 18.5523 21 18 21C17.4477 21 17 20.5523 17 20ZM8 18C8 16.6739 7.47284 15.4025 6.53516 14.4648C5.59747 13.5272 4.32608 13 3 13C2.44772 13 2 12.5523 2 12C2 11.4477 2.44772 11 3 11C4.32608 11 5.59747 10.4728 6.53516 9.53516C7.47284 8.59747 8 7.32608 8 6C8 5.44772 8.44772 5 9 5C9.55228 5 10 5.44772 10 6C10 7.32608 10.5272 8.59747 11.4648 9.53516C12.4025 10.4728 13.6739 11 15 11C15.5523 11 16 11.4477 16 12C16 12.5523 15.5523 13 15 13C13.6739 13 12.4025 13.5272 11.4648 14.4648C10.5272 15.4025 10 16.6739 10 18C10 18.5523 9.55228 19 9 19C8.44772 19 8 18.5523 8 18ZM9 9.60449C8.70833 10.09 8.35741 10.543 7.9502 10.9502C7.54298 11.3574 7.09002 11.7083 6.60449 12C7.09002 12.2917 7.54298 12.6426 7.9502 13.0498C8.35721 13.4568 8.70842 13.9093 9 14.3945C9.29158 13.9093 9.64279 13.4568 10.0498 13.0498C10.4568 12.6428 10.9093 12.2916 11.3945 12C10.9093 11.7084 10.4568 11.3572 10.0498 10.9502C9.64259 10.543 9.29167 10.09 9 9.60449ZM17 8C17 7.73478 16.8946 7.48051 16.707 7.29297C16.5195 7.10543 16.2652 7 16 7C15.4477 7 15 6.55228 15 6C15 5.44772 15.4477 5 16 5L16.0986 4.99512C16.3276 4.97243 16.5429 4.87117 16.707 4.70703C16.8946 4.51949 17 4.26522 17 4C17 3.44772 17.4477 3 18 3C18.5523 3 19 3.44772 19 4C19 4.26522 19.1054 4.51949 19.293 4.70703C19.4805 4.89457 19.7348 5 20 5C20.5523 5 21 5.44772 21 6C21 6.55228 20.5523 7 20 7C19.7348 7 19.4805 7.10543 19.293 7.29297C19.1054 7.48051 19 7.73478 19 8C19 8.55228 18.5523 9 18 9C17.4477 9 17 8.55228 17 8Z" fill="#121212"/>
</svg>
