<svg width="24" height="24" viewBox="0 0 24 24" fill="none" xmlns="http://www.w3.org/2000/svg">
<path fill-rule="evenodd" clip-rule="evenodd" d="M10.0346 18.8624L10.3493 20.011L13.4455 20.0103L13.7592 18.8656L13.7599 18.8629C14.1581 17.4031 15.6503 16.6226 17.0303 16.9849L18.2393 17.3022L19.7518 14.734L18.9153 13.9134C17.8521 12.8706 17.8516 11.152 18.9147 10.1093L19.7518 9.2881L18.2393 6.72005L17.0314 7.03717C15.6443 7.40109 14.1585 6.61217 13.7604 5.16014L13.4456 4.01108H10.3494L10.0346 5.15978C9.63646 6.61202 8.14975 7.40129 6.7635 7.03717L5.55563 6.72005L4.04311 9.28811L4.87963 10.1087C5.94287 11.1515 5.94337 12.8701 4.88024 13.9128L4.04311 14.7341L5.55562 17.3021L6.76348 16.985C8.15062 16.6211 9.63651 17.4104 10.0346 18.8624ZM2.09971 15.3754C1.7596 14.798 1.85526 14.0783 2.33532 13.6077L3.47967 12.4851C3.74362 12.2264 3.74362 11.7958 3.47967 11.537L2.33532 10.4145C1.85526 9.94302 1.7596 9.22415 2.09971 8.64681L4.02702 5.37448C4.19564 5.08803 4.44962 4.87491 4.7451 4.75402L4.74754 4.75302L4.74711 4.75197L4.74999 4.7508C5.04599 4.63112 5.37969 4.60552 5.70723 4.69206L7.27138 5.10273C7.63454 5.19824 8.00741 4.98987 8.10573 4.6313L8.52556 3.09893C8.70182 2.45473 9.28905 2.01108 9.97016 2.01108H13.8248C14.505 2.01108 15.0931 2.45473 15.2694 3.09893L15.6892 4.6313C15.7875 4.98987 16.1595 5.19824 16.5236 5.10273L18.0877 4.69206C18.5022 4.58325 18.9254 4.65386 19.2672 4.86505L19.2716 4.8678C19.4692 4.99086 19.6393 5.16105 19.7643 5.37083L19.7669 5.37508L19.7679 5.37447L21.6952 8.64679C22.0353 9.22416 21.9397 9.94388 21.4596 10.4144L20.3153 11.537C20.0513 11.7958 20.0513 12.2264 20.3153 12.4851L21.4596 13.6077C21.9397 14.0791 22.0353 14.798 21.6952 15.3754L19.7679 18.6477C19.5993 18.9341 19.3453 19.1472 19.0498 19.2681L19.0474 19.2691L19.0478 19.2702L19.0449 19.2714C18.7489 19.391 18.4152 19.4166 18.0877 19.3301L16.5227 18.9194C16.1595 18.8239 15.7866 19.0314 15.6892 19.39L15.2694 20.9224C15.0931 21.5666 14.505 22.0102 13.8248 22.0102L9.97014 22.0111C9.28991 22.0111 8.70179 21.5674 8.52554 20.9232L8.10571 19.3909C8.00739 19.0323 7.6354 18.8239 7.27137 18.9194L5.70721 19.3301C5.29401 19.4386 4.87207 19.3687 4.53086 19.159L4.52645 19.1563C4.32753 19.0331 4.15629 18.8622 4.03057 18.6513L4.02806 18.6471L4.02702 18.6477L2.09971 15.3754ZM5.32702 17.882L5.75034 17.6327L5.73099 17.5999C5.73736 17.6092 5.74347 17.6187 5.7493 17.6286C5.73813 17.6097 5.72667 17.591 5.71492 17.5726" fill="#121212"/>
<path fill-rule="evenodd" clip-rule="evenodd" d="M12 14C13.1046 14 14 13.1046 14 12C14 10.8954 13.1046 10 12 10C10.8954 10 10 10.8954 10 12C10 13.1046 10.8954 14 12 14ZM12 16C14.2091 16 16 14.2091 16 12C16 9.79086 14.2091 8 12 8C9.79086 8 8 9.79086 8 12C8 14.2091 9.79086 16 12 16Z" fill="#121212"/>
</svg>
