<svg width="24" height="24" viewBox="0 0 24 24" fill="none" xmlns="http://www.w3.org/2000/svg">
<path fill-rule="evenodd" clip-rule="evenodd" d="M20.0298 5.38441L11.6598 13.7544L14.2649 20.412C14.3651 20.668 14.7298 20.6609 14.8199 20.4012L20.0298 5.38441ZM10.2456 12.3402L18.6156 3.97019L3.59878 9.18011C3.33907 9.27021 3.33196 9.6349 3.58794 9.73506L10.2456 12.3402ZM19.5491 1.52936C21.3609 0.900779 23.0992 2.63905 22.4706 4.45086L16.7094 21.0568C16.0101 23.0723 13.1798 23.1275 12.4024 21.1408L9.76555 14.4021C9.73549 14.3253 9.6747 14.2645 9.59787 14.2344L2.85914 11.5976C0.87245 10.8201 0.927711 7.98986 2.94323 7.29059L19.5491 1.52936Z" fill="#121212"/>
</svg>
