<svg width="24" height="24" viewBox="0 0 24 24" fill="none" xmlns="http://www.w3.org/2000/svg">
<path fill-rule="evenodd" clip-rule="evenodd" d="M16.75 7.5C15.9216 7.5 15.25 8.17157 15.25 9C15.25 9.82843 15.9216 10.5 16.75 10.5C17.5784 10.5 18.25 9.82843 18.25 9C18.25 8.17157 17.5784 7.5 16.75 7.5ZM13.25 9C13.25 7.067 14.817 5.5 16.75 5.5C18.3392 5.5 19.681 6.55912 20.108 8.01001C20.1544 8.00341 20.2018 8 20.25 8H21.25C21.8023 8 22.25 8.44772 22.25 9C22.25 9.55228 21.8023 10 21.25 10H20.25C20.2018 10 20.1544 9.99659 20.108 9.99C19.681 11.4409 18.3392 12.5 16.75 12.5C14.817 12.5 13.25 10.933 13.25 9ZM2.25 9C2.25 8.44772 2.69772 8 3.25 8H10.25C10.8023 8 11.25 8.44772 11.25 9C11.25 9.55228 10.8023 10 10.25 10H3.25C2.69772 10 2.25 9.55228 2.25 9ZM7.75 13.5C6.92157 13.5 6.25 14.1716 6.25 15C6.25 15.8284 6.92157 16.5 7.75 16.5C8.57843 16.5 9.25 15.8284 9.25 15C9.25 14.1716 8.57843 13.5 7.75 13.5ZM4.39494 14C4.82521 12.5543 6.16449 11.5 7.75 11.5C9.683 11.5 11.25 13.067 11.25 15C11.25 16.933 9.683 18.5 7.75 18.5C6.16449 18.5 4.82521 17.4457 4.39494 16H3.25C2.69772 16 2.25 15.5523 2.25 15C2.25 14.4477 2.69772 14 3.25 14H4.39494ZM13.25 15C13.25 14.4477 13.6977 14 14.25 14H21.25C21.8023 14 22.25 14.4477 22.25 15C22.25 15.5523 21.8023 16 21.25 16H14.25C13.6977 16 13.25 15.5523 13.25 15Z" fill="#121212"/>
</svg>
