<svg width="24" height="24" viewBox="0 0 24 24" fill="none" xmlns="http://www.w3.org/2000/svg">
<path d="M8 17C8 16.7348 7.89457 16.4805 7.70703 16.293C7.51949 16.1054 7.26522 16 7 16H5C4.73478 16 4.48051 16.1054 4.29297 16.293C4.10543 16.4805 4 16.7348 4 17V19C4 19.2652 4.10543 19.5195 4.29297 19.707C4.48051 19.8946 4.73478 20 5 20H7C7.26522 20 7.51949 19.8946 7.70703 19.707C7.89457 19.5195 8 19.2652 8 19V17ZM20 17C20 16.7348 19.8946 16.4805 19.707 16.293C19.5195 16.1054 19.2652 16 19 16H17C16.7348 16 16.4805 16.1054 16.293 16.293C16.1054 16.4805 16 16.7348 16 17V19C16 19.2652 16.1054 19.5195 16.293 19.707C16.4805 19.8946 16.7348 20 17 20H19C19.2652 20 19.5195 19.8946 19.707 19.707C19.8946 19.5195 20 19.2652 20 19V17ZM14 5C14 4.73478 13.8946 4.48051 13.707 4.29297C13.5195 4.10543 13.2652 4 13 4H11C10.7348 4 10.4805 4.10543 10.293 4.29297C10.1054 4.48051 10 4.73478 10 5V7C10 7.26522 10.1054 7.51949 10.293 7.70703C10.4805 7.89457 10.7348 8 11 8H13C13.2652 8 13.5195 7.89457 13.707 7.70703C13.8946 7.51949 14 7.26522 14 7V5ZM16 7C16 7.79565 15.6837 8.55849 15.1211 9.12109C14.5585 9.6837 13.7957 10 13 10V11H16C16.7957 11 17.5585 11.3163 18.1211 11.8789C18.6837 12.4415 19 13.2043 19 14C19.7957 14 20.5585 14.3163 21.1211 14.8789C21.6837 15.4415 22 16.2043 22 17V19C22 19.7957 21.6837 20.5585 21.1211 21.1211C20.5585 21.6837 19.7957 22 19 22H17C16.2043 22 15.4415 21.6837 14.8789 21.1211C14.3163 20.5585 14 19.7957 14 19V17C14 16.2043 14.3163 15.4415 14.8789 14.8789C15.4415 14.3163 16.2043 14 17 14C17 13.7348 16.8946 13.4805 16.707 13.293C16.5195 13.1054 16.2652 13 16 13H8C7.73478 13 7.48051 13.1054 7.29297 13.293C7.10543 13.4805 7 13.7348 7 14C7.79565 14 8.55849 14.3163 9.12109 14.8789C9.6837 15.4415 10 16.2043 10 17V19C10 19.7957 9.6837 20.5585 9.12109 21.1211C8.55849 21.6837 7.79565 22 7 22H5C4.20435 22 3.44151 21.6837 2.87891 21.1211C2.3163 20.5585 2 19.7957 2 19V17C2 16.2044 2.3163 15.4415 2.87891 14.8789C3.44151 14.3163 4.20435 14 5 14C5 13.2044 5.3163 12.4415 5.87891 11.8789C6.44151 11.3163 7.20435 11 8 11H11V10C10.2043 10 9.44151 9.6837 8.87891 9.12109C8.3163 8.55849 8 7.79565 8 7V5C8 4.20435 8.3163 3.44151 8.87891 2.87891C9.44152 2.3163 10.2044 2 11 2H13C13.7956 2 14.5585 2.3163 15.1211 2.87891C15.6837 3.44151 16 4.20435 16 5V7Z" fill="#121212"/>
</svg>
