<svg width="24" height="24" viewBox="0 0 24 24" fill="none" xmlns="http://www.w3.org/2000/svg">
<path fill-rule="evenodd" clip-rule="evenodd" d="M18.7353 12.9726L6.89828 12.9726L4.03275 19.5223C3.92258 19.7742 4.18548 20.027 4.43283 19.9071L18.7353 12.9726ZM6.89828 10.9726L18.7353 10.9726L4.43283 4.03803C4.18548 3.91811 3.92257 4.17095 4.03275 4.42279L6.89828 10.9726ZM21.1213 9.90674C22.8469 10.7434 22.8469 13.2017 21.1213 14.0384L5.30538 21.7067C3.38574 22.6374 1.34534 20.6752 2.20044 18.7207L5.10087 12.0911C5.13394 12.0155 5.13394 11.9296 5.10087 11.854L2.20044 5.22442C1.34534 3.26991 3.38574 1.30767 5.30538 2.23841L21.1213 9.90674Z" fill="#121212"/>
</svg>
