<svg width="24" height="24" viewBox="0 0 24 24" fill="none" xmlns="http://www.w3.org/2000/svg">
<path fill-rule="evenodd" clip-rule="evenodd" d="M10.875 4.5C10.0466 4.5 9.375 5.17157 9.375 6C9.375 6.82843 10.0466 7.5 10.875 7.5C11.7034 7.5 12.375 6.82843 12.375 6C12.375 5.17157 11.7034 4.5 10.875 4.5ZM7.375 6C7.375 4.067 8.942 2.5 10.875 2.5C12.4605 2.5 13.7998 3.55426 14.2301 5H21.375C21.9273 5 22.375 5.44772 22.375 6C22.375 6.55228 21.9273 7 21.375 7H14.2301C13.7998 8.44574 12.4605 9.5 10.875 9.5C8.942 9.5 7.375 7.933 7.375 6ZM2.375 6C2.375 5.44772 2.82272 5 3.375 5H4.375C4.92728 5 5.375 5.44772 5.375 6C5.375 6.55228 4.92728 7 4.375 7H3.375C2.82272 7 2.375 6.55228 2.375 6ZM16.875 10.5C16.0466 10.5 15.375 11.1716 15.375 12C15.375 12.8284 16.0466 13.5 16.875 13.5C17.7034 13.5 18.375 12.8284 18.375 12C18.375 11.1716 17.7034 10.5 16.875 10.5ZM13.375 12C13.375 10.067 14.942 8.5 16.875 8.5C18.4642 8.5 19.806 9.55912 20.233 11.01C20.2794 11.0034 20.3268 11 20.375 11H21.375C21.9273 11 22.375 11.4477 22.375 12C22.375 12.5523 21.9273 13 21.375 13H20.375C20.3268 13 20.2794 12.9966 20.233 12.99C19.806 14.4409 18.4642 15.5 16.875 15.5C14.942 15.5 13.375 13.933 13.375 12ZM2.375 12C2.375 11.4477 2.82272 11 3.375 11H10.375C10.9273 11 11.375 11.4477 11.375 12C11.375 12.5523 10.9273 13 10.375 13H3.375C2.82272 13 2.375 12.5523 2.375 12ZM7.875 16.5C7.04657 16.5 6.375 17.1716 6.375 18C6.375 18.8284 7.04657 19.5 7.875 19.5C8.70343 19.5 9.375 18.8284 9.375 18C9.375 17.1716 8.70343 16.5 7.875 16.5ZM4.51994 17C4.95021 15.5543 6.28949 14.5 7.875 14.5C9.808 14.5 11.375 16.067 11.375 18C11.375 19.933 9.808 21.5 7.875 21.5C6.28949 21.5 4.95021 20.4457 4.51994 19H3.375C2.82272 19 2.375 18.5523 2.375 18C2.375 17.4477 2.82272 17 3.375 17H4.51994ZM13.375 18C13.375 17.4477 13.8227 17 14.375 17H21.375C21.9273 17 22.375 17.4477 22.375 18C22.375 18.5523 21.9273 19 21.375 19H14.375C13.8227 19 13.375 18.5523 13.375 18Z" fill="#121212"/>
</svg>
