<svg width="24" height="24" viewBox="0 0 24 24" fill="none" xmlns="http://www.w3.org/2000/svg">
<path fill-rule="evenodd" clip-rule="evenodd" d="M6.56158 4H18.2387C18.7658 3.99998 19.2204 3.99997 19.5948 4.03058C19.9901 4.06289 20.383 4.13424 20.7613 4.32698C21.3247 4.61405 21.785 5.07224 22.0731 5.63781C22.2658 6.016 22.3371 6.40906 22.3694 6.80397C22.3999 7.17815 22.3999 7.6323 22.3999 8.15839V15.8416C22.3999 16.3677 22.3999 16.8217 22.3694 17.1957C22.3371 17.5905 22.2658 17.9833 22.0731 18.3614C21.7855 18.9259 21.3258 19.3856 20.7613 19.6732C20.3832 19.8659 19.9904 19.9372 19.5956 19.9695C19.2216 20 18.7676 20 18.2416 20H6.5583C6.03221 20 5.57805 20 5.20387 19.9695C4.80896 19.9372 4.4159 19.8659 4.03771 19.6732C3.47214 19.3851 3.01395 18.9248 2.72688 18.3614C2.53415 17.9831 2.46279 17.5902 2.43048 17.1949C2.39987 16.8205 2.39989 16.3659 2.3999 15.8388V8.16168C2.39989 7.63451 2.39987 7.17965 2.43047 6.80499C2.46276 6.40962 2.53406 6.01625 2.72688 5.63781C3.0145 5.07332 3.47322 4.6146 4.03771 4.32698C4.41615 4.13416 4.80952 4.06286 5.20489 4.03057C5.57955 3.99997 6.03441 3.99998 6.56158 4ZM5.3677 6.02393C5.09585 6.04614 4.99508 6.08383 4.94569 6.109C4.75753 6.20487 4.60477 6.35763 4.5089 6.54579C4.48373 6.59517 4.44604 6.69595 4.42383 6.9678C4.40068 7.25126 4.3999 7.62365 4.3999 8.2002V15.8002C4.3999 16.3768 4.40068 16.7488 4.42383 17.0319C4.44601 17.3032 4.48365 17.4039 4.5089 17.4534C4.60532 17.6427 4.75861 17.7959 4.94569 17.8912C4.99491 17.9163 5.09544 17.9539 5.36676 17.9761C5.6497 17.9992 6.02137 18 6.59681 18H18.203C18.7785 18 19.1499 17.9992 19.4326 17.9761C19.7036 17.954 19.804 17.9164 19.8533 17.8912C20.0415 17.7953 20.1953 17.6416 20.2911 17.4534C20.3163 17.4041 20.3539 17.3036 20.376 17.0327C20.3991 16.75 20.3999 16.3786 20.3999 15.8031V8.19691C20.3999 7.62146 20.3991 7.2498 20.376 6.96686C20.3538 6.69554 20.3162 6.59501 20.2911 6.54579C20.1958 6.35871 20.0426 6.20542 19.8533 6.109C19.8038 6.08375 19.7031 6.04611 19.4318 6.02393C19.1487 6.00078 18.7767 6 18.2001 6H6.6001C6.02356 6 5.65116 6.00078 5.3677 6.02393ZM6.63168 9.35982C6.98525 8.93554 7.61581 8.87822 8.04009 9.23178L11.0401 11.7318C11.2681 11.9218 11.3999 12.2032 11.3999 12.5C11.3999 12.7968 11.2681 13.0782 11.0401 13.2682L8.04009 15.7682C7.61581 16.1218 6.98525 16.0645 6.63168 15.6402C6.27812 15.2159 6.33544 14.5853 6.75972 14.2318L8.83785 12.5L6.75972 10.7682C6.33544 10.4147 6.27812 9.78409 6.63168 9.35982ZM11.3999 15C11.3999 14.4477 11.8476 14 12.3999 14H17.3999C17.9522 14 18.3999 14.4477 18.3999 15C18.3999 15.5523 17.9522 16 17.3999 16H12.3999C11.8476 16 11.3999 15.5523 11.3999 15Z" fill="#121212"/>
</svg>
