<svg width="24" height="24" viewBox="0 0 24 24" fill="none" xmlns="http://www.w3.org/2000/svg">
<path fill-rule="evenodd" clip-rule="evenodd" d="M6.16168 3H15.8388C16.3659 2.99998 16.8206 2.99997 17.1951 3.03057C17.5904 3.06288 17.9835 3.13421 18.3619 3.32698C18.9258 3.61431 19.3853 4.07276 19.6732 4.63781C19.8659 5.016 19.9372 5.40906 19.9695 5.80397C20 6.17815 20 6.6323 20 7.15839V9.0002C20 9.26542 19.8946 9.51977 19.7071 9.70731C19.5196 9.89485 19.2652 10.0002 19 10.0002L12.0001 10.0001L12.0002 20C12.0002 20.2652 11.8948 20.5196 11.7073 20.7071C11.5198 20.8946 11.2654 21 11.0002 21H6.15839C5.6323 21 5.17815 21 4.80397 20.9695C4.40906 20.9372 4.016 20.8659 3.63781 20.6732C3.07276 20.3853 2.61431 19.9258 2.32698 19.3619C2.13421 18.9835 2.06288 18.5904 2.03057 18.1951C1.99997 17.8206 1.99998 17.3659 2 16.8388V7.16168C1.99998 6.63451 1.99997 6.17965 2.03057 5.80499C2.06286 5.40962 2.13416 5.01625 2.32698 4.63781C2.6146 4.07332 3.07332 3.6146 3.63781 3.32698C4.01625 3.13416 4.40962 3.06286 4.80499 3.03057C5.17965 2.99997 5.63451 2.99998 6.16168 3ZM12.0001 8.00011L18 8.00019V7.19691C18 6.62146 17.9992 6.2498 17.9761 5.96686C17.9539 5.69554 17.9163 5.59501 17.8912 5.54579C17.7956 5.35819 17.6426 5.20516 17.4539 5.109C17.4044 5.08378 17.3037 5.04612 17.0322 5.02393C16.7489 5.00078 16.3768 5 15.8002 5H12L12.0001 8.00011ZM10 5L10.0001 8.00009L4 8.00001V7.2002C4 6.62365 4.00078 6.25126 4.02393 5.9678C4.04614 5.69595 4.08383 5.59517 4.109 5.54579C4.20487 5.35763 4.35763 5.20487 4.54579 5.109C4.59517 5.08383 4.69595 5.04614 4.9678 5.02393C5.25126 5.00078 5.62365 5 6.2002 5H10ZM4 10L10.0001 10.0001L10.0001 14H4V10ZM4 16V16.8002C4 17.3768 4.00078 17.7489 4.02393 18.0322C4.04612 18.3037 4.08378 18.4044 4.109 18.4539C4.20516 18.6426 4.35819 18.7956 4.54579 18.8912C4.59501 18.9163 4.69554 18.9539 4.96686 18.9761C5.2498 18.9992 5.62146 19 6.19691 19H10.0002L10.0001 16H4Z" fill="#121212"/>
<path d="M21 15H15C14.4477 15 14 15.4477 14 16C14 16.5523 14.4477 17 15 17H21C21.5523 17 22 16.5523 22 16C22 15.4477 21.5523 15 21 15Z" fill="#121212"/>
</svg>
