<svg width="24" height="24" viewBox="0 0 24 24" fill="none" xmlns="http://www.w3.org/2000/svg">
<path d="M14 6C14 5.73478 13.8946 5.48051 13.707 5.29297C13.5429 5.12883 13.3276 5.02757 13.0986 5.00488L13 5C12.7348 5 12.4805 5.10543 12.293 5.29297C12.1054 5.48051 12 5.73478 12 6V7C12 8.32608 11.4728 9.59747 10.5352 10.5352C9.8368 11.2335 8.9534 11.7038 8 11.8984V17C8 17.5304 8.21087 18.039 8.58594 18.4141C8.96101 18.7891 9.46957 19 10 19H17C17.0283 19 17.0568 19.0015 17.085 19.0039C17.1718 19.0112 17.3232 18.9864 17.5156 18.7939C17.7168 18.5927 17.9151 18.2462 18.0264 17.7715L18.9951 12.9209C18.9763 12.6847 18.8758 12.4617 18.707 12.293C18.5195 12.1054 18.2652 12 18 12H15C14.4477 12 14 11.5523 14 11V6ZM4 19H6V12H4V19ZM16 10H18C18.7957 10 19.5585 10.3163 20.1211 10.8789C20.6837 11.4415 21 12.2043 21 13C21 13.0659 20.9934 13.1317 20.9805 13.1963L19.9805 18.1963C19.9783 18.207 19.9761 18.2179 19.9736 18.2285C19.7973 18.9806 19.4499 19.6878 18.9297 20.208C18.4174 20.7203 17.7383 21.0406 16.9883 21H10C9.12834 21 8.2865 20.7149 7.59766 20.1973C7.54107 20.2728 7.48156 20.3466 7.41406 20.4141C7.03899 20.7891 6.53043 21 6 21H4C3.46957 21 2.96101 20.7891 2.58594 20.4141C2.21086 20.039 2 19.5304 2 19V12C2 11.4696 2.21086 10.961 2.58594 10.5859C2.96101 10.2109 3.46957 10 4 10H7L7.29688 9.98535C7.98351 9.91709 8.6289 9.61329 9.12109 9.12109C9.61329 8.6289 9.91709 7.98351 9.98535 7.29688L10 7V6C10 5.20435 10.3163 4.44151 10.8789 3.87891C11.4415 3.3163 12.2044 3 13 3L13.2969 3.01465C13.9835 3.08291 14.6289 3.38671 15.1211 3.87891C15.6837 4.44151 16 5.20435 16 6V10Z" fill="black"/>
</svg>
