<svg width="24" height="24" viewBox="0 0 24 24" fill="none" xmlns="http://www.w3.org/2000/svg">
<path d="M15 21C15 20.7348 14.8946 20.4805 14.707 20.293C14.5195 20.1054 14.2652 20 14 20H10C9.73478 20 9.48051 20.1054 9.29297 20.293C9.10543 20.4805 9 20.7348 9 21C9 21.5523 8.55228 22 8 22C7.44772 22 7 21.5523 7 21C7 20.2043 7.3163 19.4415 7.87891 18.8789C8.44151 18.3163 9.20435 18 10 18H14C14.7957 18 15.5585 18.3163 16.1211 18.8789C16.6837 19.4415 17 20.2043 17 21C17 21.5523 16.5523 22 16 22C15.4477 22 15 21.5523 15 21ZM20 15V7C20 6.46957 19.7891 5.96101 19.4141 5.58594C19.039 5.21086 18.5304 5 18 5H6C5.46957 5 4.96101 5.21086 4.58594 5.58594C4.21086 5.96101 4 6.46957 4 7V15C4 15.8756 4.56498 16.6234 5.35352 16.8936C5.87602 17.0724 6.15545 17.6416 5.97656 18.1641C5.79767 18.6866 5.22856 18.965 4.70605 18.7861C3.13484 18.2482 2 16.7582 2 15V7C2 5.93913 2.42173 4.92202 3.17188 4.17188C3.92202 3.42173 4.93913 3 6 3H18C19.0609 3 20.078 3.42173 20.8281 4.17188C21.5783 4.92202 22 5.93913 22 7V15L21.9883 15.3066C21.9336 16.0182 21.6893 16.7041 21.2783 17.292C20.8085 17.9641 20.1432 18.4753 19.373 18.7568C18.8544 18.9464 18.2804 18.6798 18.0908 18.1611C17.9013 17.6425 18.168 17.0686 18.6865 16.8789C19.0716 16.7381 19.4047 16.4825 19.6396 16.1465C19.8745 15.8105 20 15.41 20 15ZM13 14C13 13.7348 12.8946 13.4805 12.707 13.293C12.5195 13.1054 12.2652 13 12 13C11.7348 13 11.4805 13.1054 11.293 13.293C11.1054 13.4805 11 13.7348 11 14C11 14.2652 11.1054 14.5195 11.293 14.707C11.4805 14.8946 11.7348 15 12 15C12.2652 15 12.5195 14.8946 12.707 14.707C12.8946 14.5195 13 14.2652 13 14ZM15 14C15 14.7957 14.6837 15.5585 14.1211 16.1211C13.5585 16.6837 12.7957 17 12 17C11.2043 17 10.4415 16.6837 9.87891 16.1211C9.3163 15.5585 9 14.7957 9 14C9 13.2043 9.3163 12.4415 9.87891 11.8789C10.4415 11.3163 11.2043 11 12 11C12.7957 11 13.5585 11.3163 14.1211 11.8789C14.6837 12.4415 15 13.2043 15 14Z" fill="#121212"/>
</svg>
