<svg width="24" height="24" viewBox="0 0 24 24" fill="none" xmlns="http://www.w3.org/2000/svg">
<path fill-rule="evenodd" clip-rule="evenodd" d="M14 5C14 4.44772 13.5523 4 13 4H8C4.68629 4 2 6.68629 2 10C2 13.3137 4.68629 16 8 16H18.5858L16.2929 18.2929C15.9024 18.6834 15.9024 19.3166 16.2929 19.7071C16.6834 20.0976 17.3166 20.0976 17.7071 19.7071L21.7071 15.7071C22.0976 15.3166 22.0976 14.6834 21.7071 14.2929L17.7071 10.2929C17.3166 9.90237 16.6834 9.90237 16.2929 10.2929C15.9024 10.6834 15.9024 11.3166 16.2929 11.7071L18.5858 14H8C5.79086 14 4 12.2091 4 10C4 7.79086 5.79086 6 8 6H13C13.5523 6 14 5.55228 14 5Z" fill="#121212"/>
</svg>
