<svg width="24" height="24" viewBox="0 0 24 24" fill="none" xmlns="http://www.w3.org/2000/svg">
<path fill-rule="evenodd" clip-rule="evenodd" d="M11.9037 4C10.9188 4 10 4.88034 10 6.12012V8L16.8388 8C17.3659 7.99998 17.8205 7.99997 18.1949 8.03057C18.5902 8.06289 18.9831 8.13424 19.3614 8.32698C19.9248 8.61405 20.3851 9.07224 20.6732 9.63781C20.8659 10.016 20.9372 10.4091 20.9695 10.804C21 11.1781 21 11.6323 21 12.1584V17.8421C21 18.3682 21 18.8221 20.9695 19.1962C20.9372 19.591 20.8659 19.9838 20.6732 20.3619C20.3854 20.9269 19.9254 21.3859 19.3614 21.6732C18.9833 21.8659 18.5905 21.9372 18.1957 21.9695C17.8217 22 17.3677 22 16.8416 22L7.15842 22C6.63232 22 6.17817 22 5.80398 21.9695C5.40906 21.9372 5.016 21.8659 4.63781 21.6732C4.07276 21.3853 3.61431 20.9258 3.32698 20.3619C3.13421 19.9835 3.06288 19.5904 3.03057 19.1951C2.99997 18.8206 2.99998 18.3659 3 17.8388V12.1617C2.99998 11.6345 2.99997 11.1796 3.03057 10.805C3.06286 10.4096 3.13416 10.0162 3.32698 9.63781C3.6146 9.07332 4.07332 8.6146 4.63781 8.32698C5.01625 8.13416 5.40962 8.06286 5.80499 8.03057C6.17965 7.99997 6.6345 7.99998 7.16167 8L8 8V6.12012C8 3.91364 9.68123 2 11.9037 2C13.037 2 14.0441 2.50925 14.7455 3.29538C15.1131 3.70748 15.0771 4.33962 14.665 4.70731C14.2529 5.07499 13.6208 5.03898 13.2531 4.62688C12.8975 4.22833 12.4183 4 11.9037 4ZM5.9678 10.0239C5.69595 10.0461 5.59518 10.0838 5.54579 10.109C5.35763 10.2049 5.20487 10.3576 5.109 10.5458C5.08383 10.5952 5.04614 10.6959 5.02393 10.9678C5.00078 11.2513 5 11.6237 5 12.2002V17.8002C5 18.3768 5.00078 18.7489 5.02393 19.0322C5.04612 19.3037 5.08378 19.4044 5.109 19.4539C5.20516 19.6426 5.35819 19.7956 5.54579 19.8912C5.59501 19.9163 5.69555 19.9539 5.96687 19.9761C6.24982 19.9992 6.62148 20 7.19694 20L16.8031 20C17.3786 20 17.75 19.9992 18.0327 19.9761C18.3036 19.9539 18.4041 19.9164 18.4534 19.8912C18.6421 19.7951 18.7956 19.6415 18.8912 19.4539C18.9164 19.4046 18.954 19.3041 18.9761 19.0332C18.9992 18.7505 19 18.379 19 17.8036V12.1969C19 11.6215 18.9992 11.2498 18.9761 10.9669C18.9539 10.6955 18.9163 10.595 18.8912 10.5458C18.7959 10.3587 18.6427 10.2054 18.4534 10.109C18.4039 10.0837 18.3032 10.0461 18.0319 10.0239C17.7488 10.0008 17.3768 10 16.8002 10H7.2002C6.62365 10 6.25126 10.0008 5.9678 10.0239Z" fill="#121212"/>
</svg>
