<svg width="24" height="24" viewBox="0 0 24 24" fill="none" xmlns="http://www.w3.org/2000/svg">
<path fill-rule="evenodd" clip-rule="evenodd" d="M9 6C7.34315 6 6 7.34315 6 9C6 10.6569 7.34315 12 9 12C10.6569 12 12 10.6569 12 9C12 7.34315 10.6569 6 9 6ZM4 9C4 6.23858 6.23858 4 9 4C11.7614 4 14 6.23858 14 9C14 11.7614 11.7614 14 9 14C6.23858 14 4 11.7614 4 9ZM19 10C19.5523 10 20 10.4477 20 11V13H22C22.5523 13 23 13.4477 23 14C23 14.5523 22.5523 15 22 15H20V17C20 17.5523 19.5523 18 19 18C18.4477 18 18 17.5523 18 17V15H16C15.4477 15 15 14.5523 15 14C15 13.4477 15.4477 13 16 13H18V11C18 10.4477 18.4477 10 19 10ZM4.20266 16.3395C5.47422 15.4918 7.17326 15 9 15C10.8267 15 12.5258 15.4918 13.7973 16.3395C15.0619 17.1826 16 18.457 16 20C16 20.5523 15.5523 21 15 21C14.4477 21 14 20.5523 14 20C14 19.3338 13.5949 18.6083 12.6879 18.0036C11.7879 17.4036 10.487 17 9 17C7.51303 17 6.21207 17.4036 5.31206 18.0036C4.40506 18.6083 4 19.3338 4 20C4 20.5523 3.55228 21 3 21C2.44772 21 2 20.5523 2 20C2 18.457 2.93809 17.1826 4.20266 16.3395Z" fill="#121212"/>
</svg>
