<svg width="24" height="24" viewBox="0 0 24 24" fill="none" xmlns="http://www.w3.org/2000/svg">
<path fill-rule="evenodd" clip-rule="evenodd" d="M18.2929 2.29289C18.6834 1.90237 19.3166 1.90237 19.7071 2.29289C20.4566 3.04236 21.0511 3.93211 21.4567 4.91133C21.8621 5.89002 22.0718 6.93936 22.0718 7.99985C22.0718 9.06001 21.8626 10.1097 21.4571 11.0887C21.0514 12.0682 20.4564 12.9579 19.7071 13.7073C19.3166 14.0978 18.6834 14.0978 18.2929 13.7073C17.9024 13.3167 17.9024 12.6836 18.2929 12.293C18.8568 11.7291 19.3043 11.0598 19.6093 10.3234C19.9145 9.58656 20.0718 8.79687 20.0718 7.99985C20.0718 7.20317 19.9143 6.41382 19.6089 5.6767C19.3038 4.94013 18.8566 4.27086 18.2929 3.70711C17.9024 3.31658 17.9024 2.68342 18.2929 2.29289ZM9 5C7.34315 5 6 6.34315 6 8C6 9.65685 7.34315 11 9 11C10.6569 11 12 9.65685 12 8C12 6.34315 10.6569 5 9 5ZM4 8C4 5.23858 6.23858 3 9 3C11.7614 3 14 5.23858 14 8C14 10.7614 11.7614 13 9 13C6.23858 13 4 10.7614 4 8ZM16.121 4.46477C16.5115 4.07424 17.1447 4.07424 17.5352 4.46477C17.9995 4.92906 18.3678 5.48026 18.6191 6.08689C18.8703 6.69336 18.9999 7.34384 18.9999 8.00062C18.9999 8.65763 18.8703 9.3067 18.6192 9.91296C18.368 10.5193 17.9997 11.0711 17.5352 11.5356C17.1447 11.9261 16.5115 11.9261 16.121 11.5356C15.7305 11.1451 15.7305 10.5119 16.121 10.1214C16.3994 9.84299 16.6206 9.51182 16.7714 9.14759C16.9223 8.78325 16.9999 8.39419 16.9999 8.00062C16.9999 7.60682 16.9222 7.21638 16.7713 6.85225C16.6206 6.48827 16.3996 6.15756 16.121 5.87898C15.7305 5.48846 15.7305 4.85529 16.121 4.46477ZM4.20266 15.3395C5.47422 14.4918 7.17326 14 9 14C10.8267 14 12.5258 14.4918 13.7973 15.3395C15.0619 16.1826 16 17.457 16 19C16 19.5523 15.5523 20 15 20C14.4477 20 14 19.5523 14 19C14 18.3338 13.5949 17.6083 12.6879 17.0036C11.7879 16.4036 10.487 16 9 16C7.51303 16 6.21207 16.4036 5.31206 17.0036C4.40506 17.6083 4 18.3338 4 19C4 19.5523 3.55228 20 3 20C2.44772 20 2 19.5523 2 19C2 17.457 2.93809 16.1826 4.20266 15.3395Z" fill="#121212"/>
</svg>
