<svg width="24" height="24" viewBox="0 0 24 24" fill="none" xmlns="http://www.w3.org/2000/svg">
<path fill-rule="evenodd" clip-rule="evenodd" d="M10.696 3.85138C11.3584 3.74955 12.0277 3.98618 12.4788 4.48167C12.857 4.89702 12.9312 5.45808 12.9638 5.84167C13 6.26752 13 6.8238 13 7.47918V16.5201C13 17.1754 13 17.7317 12.9638 18.1576C12.9312 18.5411 12.857 19.1022 12.4788 19.5176C12.0277 20.0131 11.3584 20.2497 10.696 20.1478C10.1408 20.0625 9.73049 19.6727 9.46404 19.3949C9.16822 19.0864 8.81861 18.6537 8.40672 18.144L6.70249 16.035C6.60809 15.9182 6.56034 15.8596 6.52366 15.8187L6.52078 15.8155L6.51647 15.8152C6.46161 15.8124 6.386 15.8121 6.23581 15.8121H4.81248C4.7666 15.8121 4.72117 15.8122 4.67618 15.8122C4.05722 15.813 3.52212 15.8137 3.05894 15.6607C2.15695 15.3627 1.44938 14.6552 1.1514 13.7532C0.998385 13.29 0.999073 12.7549 0.999869 12.1359C0.999927 12.0909 0.999985 12.0455 0.999985 11.9996C0.999985 11.9537 0.999927 11.9083 0.999869 11.8633C0.999073 11.2444 0.998385 10.7093 1.1514 10.2461C1.44938 9.34408 2.15695 8.63651 3.05894 8.33853C3.52212 8.18551 4.05722 8.1862 4.67618 8.187C4.72117 8.18706 4.7666 8.18711 4.81248 8.18711H6.23581C6.386 8.18711 6.46161 8.18681 6.51647 8.18399L6.52078 8.18376L6.52366 8.18056C6.56034 8.13966 6.60809 8.08104 6.70249 7.96423L8.4067 5.85527C8.8186 5.3455 9.16822 4.91283 9.46404 4.60435C9.73049 4.3265 10.1408 3.93675 10.696 3.85138ZM10.9075 5.98865C10.678 6.22802 10.3821 6.59279 9.93331 7.14816L8.25808 9.22127C8.24609 9.2361 8.23382 9.25138 8.22125 9.26704C8.08517 9.43648 7.91388 9.64978 7.69063 9.81044C7.49723 9.94962 7.28052 10.0531 7.05072 10.1161C6.78544 10.1887 6.51188 10.1879 6.29456 10.1872C6.27448 10.1872 6.25488 10.1871 6.23581 10.1871H4.81248C3.97717 10.1871 3.80057 10.1998 3.6863 10.2376C3.38564 10.3369 3.14978 10.5728 3.05046 10.8734C3.01271 10.9877 2.99998 11.1643 2.99998 11.9996C2.99998 12.8349 3.01271 13.0115 3.05046 13.1258C3.14978 13.4265 3.38564 13.6623 3.6863 13.7616C3.80057 13.7994 3.97717 13.8121 4.81248 13.8121H6.23581C6.25488 13.8121 6.27448 13.8121 6.29456 13.812C6.51189 13.8113 6.78544 13.8105 7.05072 13.8832C7.28053 13.9461 7.49724 14.0496 7.69063 14.1888C7.91388 14.3495 8.08517 14.5627 8.22125 14.7322C8.23382 14.7479 8.24609 14.7631 8.25808 14.778L9.93331 16.8511C10.3821 17.4064 10.678 17.7712 10.9075 18.0106C10.9276 18.0315 10.9462 18.0504 10.9633 18.0673C10.966 18.0434 10.9685 18.0171 10.971 17.9881C10.9991 17.6577 11 17.188 11 16.474V7.52528C11 6.81124 10.9991 6.34155 10.971 6.01108C10.9685 5.98215 10.966 5.95581 10.9633 5.93189C10.9462 5.94884 10.9276 5.96769 10.9075 5.98865ZM19 7.99961C19.5523 7.99961 20 8.44733 20 8.99961V10.9996H22C22.5523 10.9996 23 11.4473 23 11.9996C23 12.5519 22.5523 12.9996 22 12.9996H20V14.9996C20 15.5519 19.5523 15.9996 19 15.9996C18.4477 15.9996 18 15.5519 18 14.9996V12.9996H16C15.4477 12.9996 15 12.5519 15 11.9996C15 11.4473 15.4477 10.9996 16 10.9996H18V8.99961C18 8.44733 18.4477 7.99961 19 7.99961Z" fill="#121212"/>
</svg>
