<svg width="24" height="24" viewBox="0 0 24 24" fill="none" xmlns="http://www.w3.org/2000/svg">
<path fill-rule="evenodd" clip-rule="evenodd" d="M13.8376 3.9793C14.7809 3.59034 15.8658 3.9739 16.3551 4.86932C16.5343 5.19745 16.5676 5.57566 16.583 5.83771C16.6 6.12922 16.6 6.50465 16.6 6.94632V10.4998C16.6 11.052 16.1522 11.4998 15.6 11.4998C15.0477 11.4998 14.6 11.052 14.6 10.4998V6.97735C14.6 6.49619 14.5995 6.18017 14.5864 5.95431C14.5848 5.92694 14.5831 5.90262 14.5813 5.88107C14.5664 5.89673 14.5498 5.91457 14.5313 5.93486C14.3791 6.10224 14.1802 6.34778 13.8778 6.72203L13.2528 7.49546C12.9056 7.92503 12.276 7.99186 11.8464 7.64474C11.4169 7.29761 11.35 6.66799 11.6972 6.23842L12.3417 5.44085C12.6193 5.09731 12.8552 4.8053 13.0517 4.58927C13.2283 4.39507 13.4919 4.12183 13.8376 3.9793ZM4.89285 4.29265C5.28338 3.90212 5.91654 3.90212 6.30707 4.29265L20.3071 18.2926C20.6976 18.6832 20.6976 19.3163 20.3071 19.7069C19.9165 20.0974 19.2834 20.0974 18.8929 19.7069L16.5957 17.4097C16.5913 17.6901 16.5822 17.9408 16.5638 18.1577C16.5312 18.5413 16.457 19.1024 16.0788 19.5177C15.6277 20.0132 14.9583 20.2498 14.296 20.148C13.7408 20.0626 13.3305 19.6729 13.064 19.395C12.7682 19.0865 12.4186 18.6539 12.0067 18.1441L10.3025 16.0351C10.2081 15.9183 10.1603 15.8597 10.1236 15.8188L10.1208 15.8156L10.1164 15.8154C10.0616 15.8126 9.98598 15.8123 9.83579 15.8123H8.41246C8.36658 15.8123 8.32114 15.8123 8.27615 15.8124C7.6572 15.8132 7.1221 15.8139 6.65892 15.6608C5.75692 15.3629 5.04935 14.6553 4.75138 13.7533C4.59836 13.2901 4.59905 12.755 4.59984 12.1361C4.5999 12.0911 4.59996 12.0456 4.59996 11.9998C4.59996 11.9539 4.5999 11.9084 4.59984 11.8634C4.59905 11.2445 4.59836 10.7094 4.75138 10.2462C5.04935 9.34422 5.75692 8.63665 6.65892 8.33867C6.88571 8.26375 7.12974 8.22568 7.39241 8.20642L4.89285 5.70686C4.50233 5.31634 4.50233 4.68317 4.89285 4.29265ZM9.37325 10.1873H8.41246C7.57715 10.1873 7.40055 10.2 7.28628 10.2377C6.98561 10.3371 6.74976 10.5729 6.65043 10.8736C6.61268 10.9878 6.59996 11.1644 6.59996 11.9998C6.59996 12.8351 6.61268 13.0117 6.65043 13.1259C6.74976 13.4266 6.98561 13.6625 7.28628 13.7618C7.40055 13.7995 7.57715 13.8123 8.41246 13.8123H9.83579C9.85486 13.8123 9.87446 13.8122 9.89454 13.8121C10.1119 13.8115 10.3854 13.8106 10.6507 13.8833C10.8805 13.9462 11.0972 14.0497 11.2906 14.1889C11.5139 14.3496 11.6851 14.5629 11.8212 14.7323C11.8338 14.748 11.8461 14.7633 11.8581 14.7781L13.5333 16.8512C13.9821 17.4066 14.278 17.7713 14.5075 18.0107C14.5276 18.0317 14.5462 18.0505 14.5633 18.0675C14.5659 18.0436 14.5685 18.0172 14.571 17.9883C14.5991 17.6578 14.6 17.1881 14.6 16.4741V15.414L9.37325 10.1873Z" fill="#121212"/>
</svg>
