<svg width="24" height="24" viewBox="0 0 24 24" fill="none" xmlns="http://www.w3.org/2000/svg">
<path fill-rule="evenodd" clip-rule="evenodd" d="M11.0959 3.85138C11.7583 3.74955 12.4276 3.98618 12.8787 4.48167C13.2569 4.89702 13.3311 5.45808 13.3637 5.84167C13.3999 6.26752 13.3999 6.8238 13.3999 7.47918V16.5201C13.3999 17.1754 13.3999 17.7317 13.3637 18.1576C13.3311 18.5411 13.2569 19.1022 12.8787 19.5176C12.4276 20.0131 11.7583 20.2497 11.0959 20.1478C10.5408 20.0625 10.1304 19.6727 9.86394 19.3949C9.56813 19.0864 9.21852 18.6537 8.80662 18.144L7.10239 16.035C7.008 15.9182 6.96024 15.8596 6.92357 15.8187L6.92068 15.8155L6.91637 15.8152C6.86151 15.8124 6.7859 15.8121 6.63572 15.8121H5.21239C5.1665 15.8121 5.12107 15.8122 5.07608 15.8122C4.45712 15.813 3.92203 15.8137 3.45884 15.6607C2.55685 15.3627 1.84928 14.6552 1.5513 13.7532C1.39829 13.29 1.39898 12.7549 1.39977 12.1359C1.39983 12.0909 1.39989 12.0455 1.39989 11.9996C1.39989 11.9537 1.39983 11.9083 1.39977 11.8633C1.39898 11.2444 1.39829 10.7093 1.5513 10.2461C1.84928 9.34408 2.55685 8.63651 3.45884 8.33853C3.92203 8.18551 4.45712 8.1862 5.07608 8.187C5.12107 8.18706 5.16651 8.18711 5.21239 8.18711H6.63572C6.7859 8.18711 6.86151 8.18681 6.91637 8.18399L6.92068 8.18376L6.92357 8.18056C6.96024 8.13966 7.008 8.08104 7.10239 7.96423L8.8066 5.85527C9.2185 5.3455 9.56812 4.91283 9.86394 4.60435C10.1304 4.3265 10.5408 3.93675 11.0959 3.85138ZM11.3075 5.98865C11.0779 6.22802 10.782 6.59279 10.3332 7.14816L8.65798 9.22127C8.64599 9.2361 8.63372 9.25138 8.62115 9.26704C8.48507 9.43648 8.31378 9.64978 8.09053 9.81044C7.89714 9.94962 7.68043 10.0531 7.45062 10.1161C7.18534 10.1887 6.91179 10.1879 6.69446 10.1872C6.67438 10.1872 6.65478 10.1871 6.63572 10.1871H5.21239C4.37708 10.1871 4.20047 10.1998 4.08621 10.2376C3.78554 10.3369 3.54969 10.5728 3.45036 10.8734C3.41261 10.9877 3.39989 11.1643 3.39989 11.9996C3.39989 12.8349 3.41261 13.0115 3.45036 13.1258C3.54969 13.4265 3.78554 13.6623 4.08621 13.7616C4.20047 13.7994 4.37708 13.8121 5.21239 13.8121H6.63572C6.65479 13.8121 6.67439 13.8121 6.69447 13.812C6.91179 13.8113 7.18534 13.8105 7.45062 13.8832C7.68043 13.9461 7.89714 14.0496 8.09053 14.1888C8.31378 14.3495 8.48507 14.5627 8.62115 14.7322C8.63372 14.7479 8.64599 14.7631 8.65798 14.778L10.3332 16.8511C10.782 17.4064 11.0779 17.7712 11.3075 18.0106C11.3275 18.0315 11.3461 18.0504 11.3632 18.0673C11.3659 18.0434 11.3684 18.0171 11.3709 17.9881C11.399 17.6577 11.3999 17.188 11.3999 16.474V7.52528C11.3999 6.81124 11.399 6.34155 11.3709 6.01108C11.3684 5.98215 11.3659 5.95581 11.3632 5.93189C11.3461 5.94884 11.3275 5.96769 11.3075 5.98865ZM16.0785 7.66085C16.4552 7.25693 17.088 7.23484 17.4919 7.61149C18.0913 8.1705 18.5699 8.84641 18.8981 9.59752C19.2262 10.3486 19.397 11.159 19.3999 11.9787C19.4027 12.7983 19.2376 13.6099 18.9147 14.3633C18.5918 15.1166 18.118 15.7959 17.5224 16.3591C17.1211 16.7385 16.4882 16.7208 16.1088 16.3196C15.7293 15.9183 15.747 15.2854 16.1482 14.9059C16.5453 14.5305 16.8612 14.0776 17.0764 13.5754C17.2917 13.0731 17.4018 12.5321 17.3999 11.9857C17.398 11.4392 17.2841 10.899 17.0653 10.3982C16.8466 9.89748 16.5275 9.44687 16.1279 9.0742C15.724 8.69754 15.7019 8.06476 16.0785 7.66085Z" fill="#121212"/>
</svg>
