<svg width="24" height="24" viewBox="0 0 24 24" fill="none" xmlns="http://www.w3.org/2000/svg">
<path fill-rule="evenodd" clip-rule="evenodd" d="M11.0961 3.85138C11.7585 3.74955 12.4278 3.98618 12.8789 4.48167C13.2571 4.89702 13.3313 5.45808 13.3639 5.84167C13.4001 6.26752 13.4001 6.8238 13.4001 7.47918V16.5201C13.4001 17.1754 13.4001 17.7317 13.3639 18.1576C13.3313 18.5411 13.2571 19.1022 12.8789 19.5176C12.4278 20.0131 11.7585 20.2497 11.0961 20.1478C10.5409 20.0625 10.1306 19.6727 9.86412 19.3949C9.56831 19.0864 9.2187 18.6537 8.8068 18.144L7.10257 16.035C7.00818 15.9182 6.96042 15.8596 6.92375 15.8187L6.92086 15.8155L6.91656 15.8152C6.8617 15.8124 6.78609 15.8121 6.6359 15.8121H5.21257C5.16669 15.8121 5.12125 15.8122 5.07626 15.8122C4.45731 15.813 3.92221 15.8137 3.45903 15.6607C2.55703 15.3627 1.84946 14.6552 1.55149 13.7532C1.39847 13.29 1.39916 12.7549 1.39995 12.1359C1.40001 12.0909 1.40007 12.0455 1.40007 11.9996C1.40007 11.9537 1.40001 11.9083 1.39995 11.8633C1.39916 11.2444 1.39847 10.7093 1.55149 10.2461C1.84946 9.34408 2.55703 8.63651 3.45903 8.33853C3.92221 8.18551 4.45731 8.1862 5.07626 8.187C5.12125 8.18706 5.16669 8.18711 5.21257 8.18711H6.6359C6.78609 8.18711 6.8617 8.18681 6.91655 8.18399L6.92086 8.18376L6.92375 8.18056C6.96042 8.13966 7.00818 8.08104 7.10257 7.96423L8.80678 5.85527C9.21869 5.3455 9.5683 4.91283 9.86412 4.60435C10.1306 4.3265 10.5409 3.93675 11.0961 3.85138ZM11.3076 5.98865C11.0781 6.22802 10.7822 6.59279 10.3334 7.14816L8.65816 9.22127C8.64618 9.2361 8.6339 9.25138 8.62133 9.26704C8.48525 9.43648 8.31396 9.64978 8.09072 9.81044C7.89732 9.94962 7.68061 10.0531 7.45081 10.1161C7.18553 10.1887 6.91197 10.1879 6.69465 10.1872C6.67457 10.1872 6.65497 10.1871 6.6359 10.1871H5.21257C4.37726 10.1871 4.20066 10.1998 4.08639 10.2376C3.78572 10.3369 3.54987 10.5728 3.45054 10.8734C3.41279 10.9877 3.40007 11.1643 3.40007 11.9996C3.40007 12.8349 3.41279 13.0115 3.45054 13.1258C3.54987 13.4265 3.78572 13.6623 4.08639 13.7616C4.20066 13.7994 4.37726 13.8121 5.21257 13.8121H6.6359C6.65497 13.8121 6.67457 13.8121 6.69465 13.812C6.91197 13.8113 7.18553 13.8105 7.45081 13.8832C7.68061 13.9461 7.89732 14.0496 8.09072 14.1888C8.31396 14.3495 8.48525 14.5627 8.62133 14.7322C8.6339 14.7479 8.64618 14.7631 8.65816 14.778L10.3334 16.8511C10.7822 17.4064 11.0781 17.7712 11.3076 18.0106C11.3277 18.0315 11.3463 18.0504 11.3634 18.0673C11.366 18.0434 11.3686 18.0171 11.3711 17.9881C11.3992 17.6577 11.4001 17.188 11.4001 16.474V7.52528C11.4001 6.81124 11.3992 6.34155 11.3711 6.01108C11.3686 5.98215 11.366 5.95581 11.3634 5.93189C11.3463 5.94884 11.3277 5.96769 11.3076 5.98865ZM15.8645 8.46408C16.2551 8.07356 16.8882 8.07356 17.2788 8.46408L19.4001 10.5854L21.5214 8.46408C21.9119 8.07356 22.5451 8.07356 22.9356 8.46408C23.3261 8.8546 23.3261 9.48777 22.9356 9.87829L20.8143 11.9996L22.9356 14.1209C23.3261 14.5115 23.3261 15.1446 22.9356 15.5351C22.5451 15.9257 21.9119 15.9257 21.5214 15.5351L19.4001 13.4138L17.2788 15.5351C16.8882 15.9257 16.2551 15.9257 15.8645 15.5351C15.474 15.1446 15.474 14.5115 15.8645 14.1209L17.9859 11.9996L15.8645 9.87829C15.474 9.48777 15.474 8.8546 15.8645 8.46408Z" fill="#121212"/>
</svg>
