<svg width="24" height="24" viewBox="0 0 24 24" fill="none" xmlns="http://www.w3.org/2000/svg">
<path fill-rule="evenodd" clip-rule="evenodd" d="M18.2886 4.00453C18.6652 3.60061 19.298 3.57852 19.7019 3.95517C20.8009 4.98002 21.6783 6.21919 22.2799 7.59622C22.8815 8.97326 23.1946 10.459 23.1999 11.9617C23.2051 13.4644 22.9024 14.9522 22.3104 16.3334C21.7184 17.7146 20.8497 18.9599 19.7579 19.9924C19.3566 20.3718 18.7237 20.3542 18.3442 19.9529C17.9648 19.5516 17.9824 18.9187 18.3837 18.5392C19.277 17.6945 19.9878 16.6756 20.4722 15.5455C20.9565 14.4155 21.2042 13.1981 21.1999 11.9686C21.1956 10.7392 20.9394 9.52359 20.4472 8.39692C19.955 7.27026 19.2371 6.2564 18.3379 5.41788C17.934 5.04122 17.9119 4.40844 18.2886 4.00453ZM10.896 3.85183C11.5583 3.74999 12.2276 3.98662 12.6788 4.48212C13.057 4.89747 13.1312 5.45853 13.1638 5.84211C13.2 6.26797 13.2 6.82424 13.1999 7.47963V16.5205C13.2 17.1759 13.2 17.7322 13.1638 18.158C13.1312 18.5416 13.057 19.1027 12.6788 19.518C12.2276 20.0135 11.5583 20.2501 10.896 20.1483C10.3408 20.0629 9.93044 19.6732 9.66399 19.3953C9.36817 19.0869 9.01856 18.6542 8.60667 18.1444L6.90244 16.0355C6.80804 15.9186 6.76029 15.86 6.72362 15.8191L6.72073 15.8159L6.71642 15.8157C6.66156 15.8129 6.58595 15.8126 6.43576 15.8126H5.01244C4.96655 15.8126 4.92112 15.8126 4.87613 15.8127C4.25717 15.8135 3.72208 15.8142 3.25889 15.6611C2.3569 15.3632 1.64933 14.6556 1.35135 13.7536C1.19834 13.2904 1.19902 12.7553 1.19982 12.1364C1.19988 12.0914 1.19994 12.0459 1.19994 12.0001C1.19994 11.9542 1.19988 11.9087 1.19982 11.8638C1.19902 11.2448 1.19834 10.7097 1.35135 10.2465C1.64933 9.34453 2.3569 8.63696 3.25889 8.33898C3.72208 8.18596 4.25717 8.18665 4.87613 8.18745C4.92112 8.1875 4.96655 8.18756 5.01244 8.18756H6.43576C6.58595 8.18756 6.66156 8.18726 6.71642 8.18444L6.72073 8.18421L6.72362 8.181C6.76029 8.14011 6.80804 8.08149 6.90244 7.96468L8.60665 5.85572C9.01855 5.34595 9.36817 4.91328 9.66399 4.6048C9.93044 4.32695 10.3408 3.9372 10.896 3.85183ZM11.1075 5.9891C10.8779 6.22847 10.582 6.59324 10.1333 7.14861L8.45803 9.22172C8.44604 9.23655 8.43377 9.25183 8.4212 9.26748C8.28512 9.43693 8.11383 9.65022 7.89058 9.81089C7.69719 9.95007 7.48048 10.0536 7.25067 10.1165C6.98539 10.1892 6.71183 10.1883 6.49451 10.1877C6.47443 10.1876 6.45483 10.1876 6.43576 10.1876H5.01244C4.17712 10.1876 4.00052 10.2003 3.88625 10.238C3.58559 10.3374 3.34973 10.5732 3.25041 10.8739C3.21266 10.9882 3.19994 11.1648 3.19994 12.0001C3.19994 12.8354 3.21266 13.012 3.25041 13.1262C3.34973 13.4269 3.58559 13.6628 3.88625 13.7621C4.00052 13.7998 4.17712 13.8126 5.01244 13.8126H6.43576C6.45483 13.8126 6.47443 13.8125 6.49452 13.8124C6.71184 13.8118 6.98539 13.811 7.25067 13.8836C7.48048 13.9466 7.69719 14.0501 7.89058 14.1892C8.11383 14.3499 8.28512 14.5632 8.4212 14.7326C8.43377 14.7483 8.44604 14.7636 8.45803 14.7784L10.1333 16.8515C10.582 17.4069 10.8779 17.7717 11.1075 18.011C11.1276 18.032 11.1462 18.0508 11.1633 18.0678C11.1659 18.0439 11.1685 18.0175 11.171 17.9886C11.1991 17.6581 11.1999 17.1884 11.1999 16.4744V7.52573C11.1999 6.81169 11.1991 6.342 11.171 6.01153C11.1685 5.9826 11.1659 5.95626 11.1633 5.93234C11.1462 5.94929 11.1276 5.96814 11.1075 5.9891ZM15.5606 6.92994C15.9372 6.52603 16.57 6.50393 16.9739 6.88059C17.6733 7.53277 18.2316 8.32133 18.6145 9.19762C18.9973 10.0739 19.1966 11.0194 19.1999 11.9756C19.2032 12.9319 19.0106 13.8787 18.6339 14.7577C18.2572 15.6366 17.7044 16.429 17.0096 17.0861C16.6083 17.4656 15.9754 17.4479 15.5959 17.0466C15.2164 16.6453 15.2341 16.0124 15.6354 15.6329C16.1317 15.1636 16.5265 14.5976 16.7956 13.9698C17.0647 13.342 17.2023 12.6657 17.1999 11.9826C17.1975 11.2996 17.0552 10.6242 16.7817 9.99832C16.5083 9.37239 16.1095 8.80914 15.6099 8.3433C15.206 7.96664 15.1839 7.33386 15.5606 6.92994Z" fill="#121212"/>
</svg>
