<svg width="24" height="24" viewBox="0 0 24 24" fill="none" xmlns="http://www.w3.org/2000/svg">
<path fill-rule="evenodd" clip-rule="evenodd" d="M6.16168 3H17.8388C18.3659 2.99998 18.8205 2.99997 19.1949 3.03058C19.5902 3.06289 19.9831 3.13424 20.3614 3.32698C20.9248 3.61405 21.3851 4.07224 21.6732 4.63781C21.8659 5.016 21.9372 5.40906 21.9695 5.80397C22 6.17815 22 6.6323 22 7.15839V16.8416C22 17.3677 22 17.8217 21.9695 18.1957C21.9372 18.5905 21.8659 18.9833 21.6732 19.3614C21.3856 19.9259 20.9259 20.3856 20.3614 20.6732C19.9833 20.8659 19.5905 20.9372 19.1957 20.9695C18.8217 21 18.3677 21 17.8416 21H6.15839C5.6323 21 5.17815 21 4.80397 20.9695C4.40906 20.9372 4.016 20.8659 3.63781 20.6732C3.07224 20.3851 2.61405 19.9248 2.32698 19.3614C2.13425 18.9831 2.06289 18.5902 2.03058 18.1949C1.99997 17.8205 1.99998 17.3659 2 16.8388V7.16168C1.99998 6.63451 1.99997 6.17965 2.03057 5.80499C2.06286 5.40962 2.13416 5.01625 2.32698 4.63781C2.6146 4.07332 3.07332 3.6146 3.63781 3.32698C4.01625 3.13416 4.40962 3.06286 4.80499 3.03057C5.17965 2.99997 5.63451 2.99998 6.16168 3ZM4.9678 5.02393C4.69595 5.04614 4.59517 5.08383 4.54579 5.109C4.35763 5.20487 4.20487 5.35763 4.109 5.54579C4.08383 5.59517 4.04614 5.69595 4.02393 5.9678C4.00078 6.25126 4 6.62365 4 7.2002V16.8002C4 17.3768 4.00078 17.7488 4.02393 18.0319C4.04611 18.3032 4.08375 18.4039 4.109 18.4534C4.20542 18.6427 4.35871 18.7959 4.54579 18.8912C4.59501 18.9163 4.69554 18.9539 4.96686 18.9761C5.2498 18.9992 5.62146 19 6.19691 19H17.8031C18.3786 19 18.75 18.9992 19.0327 18.9761C19.3036 18.954 19.4041 18.9164 19.4534 18.8912C19.6416 18.7953 19.7953 18.6416 19.8912 18.4534C19.9164 18.4041 19.954 18.3036 19.9761 18.0327C19.9992 17.75 20 17.3786 20 16.8031V7.19691C20 6.62146 19.9992 6.2498 19.9761 5.96686C19.9539 5.69554 19.9163 5.59501 19.8912 5.54579C19.7959 5.35871 19.6427 5.20542 19.4534 5.109C19.4039 5.08375 19.3032 5.04611 19.0319 5.02393C18.7488 5.00078 18.3768 5 17.8002 5H6.2002C5.62365 5 5.25126 5.00078 4.9678 5.02393Z" fill="#121212"/>
<path d="M3 5H21V7H3V5Z" fill="#121212"/>
</svg>
