<svg width="24" height="24" viewBox="0 0 24 24" fill="none" xmlns="http://www.w3.org/2000/svg">
<path fill-rule="evenodd" clip-rule="evenodd" d="M3.90691 3.29289C4.29744 2.90237 4.9306 2.90237 5.32112 3.29289L19.4633 17.435C19.8538 17.8256 19.8538 18.4587 19.4633 18.8492C19.0727 19.2398 18.4396 19.2398 18.049 18.8492L13.3531 14.1533C13.3008 14.1484 13.2483 14.1393 13.1958 14.1258C12.5 13.9469 11.7682 13.9592 11.0776 14.161C10.3874 14.3627 9.76443 14.7466 9.27408 15.2725C8.89743 15.6764 8.26465 15.6985 7.86073 15.3218C7.45681 14.9452 7.43472 14.3124 7.81137 13.9085C8.5469 13.1197 9.48142 12.5438 10.5166 12.2413C10.7654 12.1686 11.0178 12.1123 11.2723 12.0725L9.6721 10.4723C8.68898 10.8531 7.80252 11.4518 7.08072 12.2258C6.70407 12.6298 6.07129 12.6519 5.66737 12.2752C5.26346 11.8985 5.24136 11.2658 5.61802 10.8618C6.34798 10.0791 7.20892 9.4357 8.1583 8.9585L6.68318 7.48337C5.74639 8.02641 4.89432 8.70514 4.15494 9.49804C3.77828 9.90195 3.1455 9.92405 2.74159 9.54739C2.33767 9.17073 2.31558 8.53795 2.69223 8.13404C3.44547 7.32629 4.29767 6.61879 5.22765 6.02784L3.90691 4.70711C3.51639 4.31658 3.51639 3.68342 3.90691 3.29289ZM11.4287 4.02287C13.3391 3.90938 15.2507 4.21929 17.0274 4.92991C18.8041 5.64057 20.4021 6.73472 21.7072 8.13425C22.0839 8.53817 22.0618 9.17094 21.6578 9.5476C21.2539 9.92426 20.6211 9.90216 20.2445 9.49825C19.1402 8.31403 17.7881 7.38821 16.2846 6.78688C14.7811 6.18552 13.1636 5.92333 11.5473 6.01935C10.996 6.05211 10.5226 5.63173 10.4898 5.08042C10.457 4.52911 10.8774 4.05563 11.4287 4.02287ZM14.2422 9.2009C14.4473 8.68811 15.0292 8.43868 15.542 8.64378C16.7721 9.13577 17.8784 9.89326 18.7819 10.8622C19.1586 11.2661 19.1365 11.8989 18.7325 12.2755C18.3286 12.6522 17.6958 12.6301 17.3192 12.2262C16.6165 11.4726 15.756 10.8834 14.7993 10.5008C14.2865 10.2957 14.0371 9.71369 14.2422 9.2009ZM10.2 18C10.2 16.8954 11.0954 16 12.2 16C13.3045 16 14.2 16.8954 14.2 18C14.2 19.1046 13.3045 20 12.2 20C11.0954 20 10.2 19.1046 10.2 18Z" fill="#121212"/>
</svg>
