<svg width="24" height="24" viewBox="0 0 24 24" fill="none" xmlns="http://www.w3.org/2000/svg">
<path fill-rule="evenodd" clip-rule="evenodd" d="M16.5336 6.88966C15.1524 6.29769 13.6634 5.99482 12.1607 6.00007C10.6582 6.00531 9.17321 6.31865 7.79599 6.92034C6.41896 7.52195 5.17979 8.39933 4.15494 9.49835C3.77828 9.90226 3.1455 9.92436 2.74159 9.5477C2.33767 9.17105 2.31558 8.53827 2.69223 8.13435C3.90342 6.83551 5.36789 5.79861 6.99529 5.08762C8.62251 4.3767 10.3776 4.00628 12.1537 4.00008C13.9296 3.99388 15.6891 4.35175 17.3215 5.05139C18.9539 5.75105 20.4259 6.77833 21.646 8.06859C22.0255 8.46986 22.0078 9.10278 21.6065 9.48225C21.2052 9.86172 20.5723 9.84404 20.1929 9.44276C19.1603 8.35083 17.9147 7.48159 16.5336 6.88966ZM14.9571 10.5662C14.078 10.1894 13.1317 9.99673 12.1756 10.0001C11.2193 10.0034 10.274 10.2026 9.39775 10.5854C8.52146 10.9682 7.7329 11.5266 7.08072 12.2259C6.70407 12.6298 6.07129 12.6519 5.66737 12.2753C5.26346 11.8986 5.24136 11.2658 5.61802 10.8619C6.45653 9.96274 7.47039 9.24488 8.59706 8.75266C9.72376 8.26041 10.9392 8.00437 12.1686 8.00008C13.3982 7.99579 14.615 8.2436 15.745 8.7279C16.8749 9.21219 17.8943 9.92296 18.7392 10.8164C19.1187 11.2177 19.101 11.8506 18.6997 12.2301C18.2984 12.6095 17.6655 12.5918 17.286 12.1906C16.6291 11.4959 15.8362 10.943 14.9571 10.5662ZM13.7757 14.3236C13.2734 14.1083 12.7324 13.9982 12.186 14.0001C11.6393 14.002 11.0986 14.1158 10.5981 14.3344C10.0974 14.5532 9.64676 14.8722 9.27408 15.2719C8.89742 15.6758 8.26465 15.6979 7.86073 15.3212C7.45681 14.9446 7.43472 14.3118 7.81137 13.9079C8.37038 13.3084 9.04629 12.8298 9.7974 12.5017C10.5488 12.1734 11.3597 12.0029 12.1791 12.0001C12.9988 11.9972 13.8103 12.1624 14.5636 12.4853C15.3168 12.8081 15.9963 13.2818 16.5596 13.8775C16.939 14.2788 16.9214 14.9117 16.5201 15.2912C16.1188 15.6706 15.4859 15.6529 15.1064 15.2517C14.7311 14.8548 14.2781 14.5389 13.7757 14.3236ZM10.2 18.0001C10.2 16.8955 11.0954 16.0001 12.2 16.0001C13.3045 16.0001 14.2 16.8955 14.2 18.0001C14.2 19.1046 13.3045 20.0001 12.2 20.0001C11.0954 20.0001 10.2 19.1046 10.2 18.0001Z" fill="#121212"/>
</svg>
