<svg width="24" height="24" viewBox="0 0 24 24" fill="none" xmlns="http://www.w3.org/2000/svg">
<path d="M17.9932 9.70508C17.9593 9.01791 17.8068 8.34108 17.543 7.7041C17.2414 6.97615 16.7993 6.31496 16.2422 5.75781C15.685 5.20066 15.0239 4.75856 14.2959 4.45703C13.6589 4.19319 12.9821 4.04065 12.2949 4.00684L12 4C11.2121 4 10.432 4.15552 9.7041 4.45703C8.97615 4.75856 8.31496 5.20066 7.75781 5.75781C7.20066 6.31496 6.75856 6.97615 6.45703 7.7041C6.15552 8.43204 6 9.21209 6 10L6.00684 10.2949C6.04065 10.9821 6.19319 11.6589 6.45703 12.2959C6.75856 13.0239 7.20066 13.685 7.75781 14.2422C8.31496 14.7993 8.97615 15.2414 9.7041 15.543C10.432 15.8445 11.2121 16 12 16C12.7879 16 13.568 15.8445 14.2959 15.543C15.0239 15.2414 15.685 14.7993 16.2422 14.2422C16.7993 13.685 17.2414 13.0239 17.543 12.2959C17.8445 11.568 18 10.7879 18 10L17.9932 9.70508ZM15.5371 17.1729C15.3809 17.2499 15.2229 17.3238 15.0615 17.3906C14.0909 17.7927 13.0506 18 12 18C10.9494 18 9.90908 17.7927 8.93848 17.3906C8.77683 17.3237 8.6184 17.25 8.46191 17.1729L6.7666 20H17.2334L15.5371 17.1729ZM14 10C14 9.46957 13.7891 8.96101 13.4141 8.58594C13.039 8.21087 12.5304 8 12 8C11.4696 8 10.961 8.21087 10.5859 8.58594C10.2109 8.96101 10 9.46957 10 10C10 10.5304 10.2109 11.039 10.5859 11.4141C10.961 11.7891 11.4696 12 12 12C12.5304 12 13.039 11.7891 13.4141 11.4141C13.7891 11.039 14 10.5304 14 10ZM16 10C16 11.0609 15.5783 12.078 14.8281 12.8281C14.078 13.5783 13.0609 14 12 14C10.9391 14 9.92202 13.5783 9.17188 12.8281C8.42173 12.078 8 11.0609 8 10C8 8.93913 8.42173 7.92202 9.17188 7.17188C9.92202 6.42173 10.9391 6 12 6C13.0609 6 14.078 6.42173 14.8281 7.17188C15.5783 7.92202 16 8.93913 16 10ZM19.9902 10.3936C19.9451 11.3097 19.7424 12.2123 19.3906 13.0615C18.9886 14.0321 18.4 14.9144 17.6572 15.6572C17.5131 15.8014 17.3613 15.937 17.207 16.0693L18.9482 18.9717H18.9492C19.131 19.2751 19.229 19.6219 19.2334 19.9756C19.2377 20.3291 19.1478 20.6777 18.9736 20.9854C18.7994 21.2931 18.5466 21.5493 18.2412 21.7275C17.974 21.8835 17.6747 21.9745 17.3672 21.9951L17.2344 22H6.76562C6.41197 21.9997 6.06424 21.9058 5.75879 21.7275C5.45335 21.5493 5.2006 21.2931 5.02637 20.9854C4.85219 20.6777 4.76229 20.3291 4.7666 19.9756C4.77098 19.6219 4.86898 19.2751 5.05078 18.9717H5.05176L6.79199 16.0693C6.63794 15.9371 6.48675 15.8012 6.34277 15.6572C5.59995 14.9144 5.01141 14.0321 4.60938 13.0615C4.25762 12.2123 4.05489 11.3097 4.00977 10.3936L4 10C4 8.94943 4.20734 7.90908 4.60938 6.93848C5.01141 5.96795 5.59995 5.08559 6.34277 4.34277C7.08559 3.59995 7.96795 3.01141 8.93848 2.60938C9.90908 2.20734 10.9494 2 12 2L12.3936 2.00977C13.3097 2.05489 14.2123 2.25762 15.0615 2.60938C16.0321 3.01141 16.9144 3.59995 17.6572 4.34277C18.4 5.08559 18.9886 5.96795 19.3906 6.93848C19.7927 7.90908 20 8.94943 20 10L19.9902 10.3936Z" fill="#121212"/>
</svg>
