<svg width="24" height="24" viewBox="0 0 24 24" fill="none" xmlns="http://www.w3.org/2000/svg">
<path fill-rule="evenodd" clip-rule="evenodd" d="M14.9571 10.5662C14.078 10.1894 13.1317 9.99671 12.1756 10C11.2193 10.0034 10.274 10.2025 9.39775 10.5854C8.52146 10.9682 7.7329 11.5265 7.08072 12.2259C6.70407 12.6298 6.07129 12.6519 5.66737 12.2753C5.26346 11.8986 5.24136 11.2658 5.61802 10.8619C6.45653 9.96271 7.47039 9.24486 8.59706 8.75263C9.72376 8.26039 10.9392 8.00435 12.1686 8.00005C13.3982 7.99576 14.615 8.24358 15.745 8.72788C16.8749 9.21217 17.8943 9.92294 18.7392 10.8164C19.1187 11.2176 19.101 11.8506 18.6997 12.23C18.2984 12.6095 17.6655 12.5918 17.286 12.1905C16.6291 11.4959 15.8362 10.9429 14.9571 10.5662ZM13.7757 14.3235C13.2734 14.1082 12.7324 13.9981 12.186 14C11.6393 14.002 11.0986 14.1157 10.5981 14.3344C10.0974 14.5531 9.64676 14.8722 9.27408 15.2718C8.89742 15.6758 8.26465 15.6979 7.86073 15.3212C7.45681 14.9445 7.43472 14.3118 7.81137 13.9078C8.37038 13.3084 9.04629 12.8298 9.7974 12.5017C10.5488 12.1734 11.3597 12.0029 12.1791 12.0001C12.9988 11.9972 13.8103 12.1624 14.5636 12.4853C15.3168 12.8081 15.9963 13.2818 16.5596 13.8775C16.939 14.2787 16.9214 14.9117 16.5201 15.2911C16.1188 15.6706 15.4859 15.6529 15.1064 15.2516C14.7311 14.8547 14.2781 14.5389 13.7757 14.3235ZM10.2 18C10.2 16.8955 11.0954 16 12.2 16C13.3045 16 14.2 16.8955 14.2 18C14.2 19.1046 13.3045 20.0001 12.2 20.0001C11.0954 20.0001 10.2 19.1046 10.2 18Z" fill="#121212"/>
</svg>
