<svg width="24" height="24" viewBox="0 0 24 24" fill="none" xmlns="http://www.w3.org/2000/svg">
<path fill-rule="evenodd" clip-rule="evenodd" d="M13.7757 14.3236C13.2734 14.1083 12.7324 13.9982 12.186 14.0001C11.6393 14.002 11.0986 14.1158 10.5981 14.3344C10.0974 14.5532 9.64676 14.8722 9.27408 15.2719C8.89742 15.6758 8.26465 15.6979 7.86073 15.3212C7.45681 14.9446 7.43472 14.3118 7.81137 13.9079C8.37038 13.3084 9.04629 12.8298 9.7974 12.5017C10.5488 12.1734 11.3597 12.003 12.1791 12.0001C12.9988 11.9972 13.8103 12.1624 14.5636 12.4853C15.3168 12.8081 15.9963 13.2818 16.5596 13.8775C16.939 14.2788 16.9214 14.9117 16.5201 15.2912C16.1188 15.6706 15.4859 15.653 15.1064 15.2517C14.7311 14.8548 14.2781 14.5389 13.7757 14.3236ZM10.2 18.0001C10.2 16.8955 11.0954 16.0001 12.2 16.0001C13.3045 16.0001 14.2 16.8955 14.2 18.0001C14.2 19.1047 13.3045 20.0001 12.2 20.0001C11.0954 20.0001 10.2 19.1047 10.2 18.0001Z" fill="#121212"/>
</svg>
