<svg width="24" height="24" viewBox="0 0 24 24" fill="none" xmlns="http://www.w3.org/2000/svg">
<path fill-rule="evenodd" clip-rule="evenodd" d="M13.3593 4.9966C13.3612 5.54888 12.915 5.99812 12.3627 5.99999C10.86 6.00511 9.37391 6.31859 7.99651 6.92029C6.6193 7.5219 5.37998 8.39935 4.35501 9.49849C3.97836 9.90241 3.34558 9.9245 2.94166 9.54785C2.53775 9.17119 2.51565 8.53841 2.89231 8.13449C4.10363 6.83551 5.56828 5.79853 7.1959 5.08753C8.82333 4.37661 10.5796 4.00605 12.3559 4.00001C12.9082 3.99813 13.3574 4.44432 13.3593 4.9966ZM15.6929 4.29289C16.0834 3.90237 16.7166 3.90237 17.1071 4.29289L18.4 5.58577L19.6929 4.29289C20.0834 3.90237 20.7166 3.90237 21.1071 4.29289C21.4976 4.68342 21.4976 5.31658 21.1071 5.70711L19.8142 6.99998L21.1071 8.29286C21.4976 8.68338 21.4976 9.31655 21.1071 9.70707C20.7166 10.0976 20.0834 10.0976 19.6929 9.70707L18.4 8.4142L17.1071 9.70707C16.7166 10.0976 16.0834 10.0976 15.6929 9.70707C15.3024 9.31655 15.3024 8.68338 15.6929 8.29286L16.9858 6.99998L15.6929 5.70711C15.3024 5.31658 15.3024 4.68342 15.6929 4.29289ZM13.3583 8.99473C13.3612 9.547 12.9158 9.99707 12.3636 9.99999C11.4094 10.005 10.4661 10.2051 9.59211 10.5879C8.71808 10.9707 7.93154 11.5281 7.2808 12.2259C6.90414 12.6298 6.27136 12.6519 5.86744 12.2753C5.46353 11.8986 5.44143 11.2658 5.81809 10.8619C6.65476 9.96471 7.66603 9.24802 8.78977 8.75587C9.91353 8.26372 11.1262 8.00648 12.353 8.00001C12.9053 7.9971 13.3554 8.44245 13.3583 8.99473ZM13.9758 14.3235C13.4734 14.1082 12.9325 13.9981 12.3861 14C11.8394 14.0019 11.2987 14.1157 10.7982 14.3343C10.2974 14.5531 9.84683 14.8721 9.47416 15.2718C9.0975 15.6757 8.46472 15.6978 8.0608 15.3211C7.65689 14.9445 7.63479 14.3117 8.01145 13.9078C8.57046 13.3083 9.24637 12.8298 9.99748 12.5016C10.7488 12.1733 11.5598 12.0029 12.3791 12C13.1989 11.9971 14.0103 12.1623 14.7636 12.4852C15.5169 12.808 16.1963 13.2817 16.7596 13.8774C17.1391 14.2787 17.1214 14.9116 16.7201 15.2911C16.3189 15.6706 15.686 15.6529 15.3065 15.2516C14.9312 14.8547 14.4782 14.5388 13.9758 14.3235ZM10.4 18C10.4 16.8954 11.2955 16 12.4 16C13.5046 16 14.4 16.8954 14.4 18C14.4 19.1046 13.5046 20 12.4 20C11.2955 20 10.4 19.1046 10.4 18Z" fill="#121212"/>
</svg>
