<svg width="24" height="24" viewBox="0 0 24 24" fill="none" xmlns="http://www.w3.org/2000/svg">
<path fill-rule="evenodd" clip-rule="evenodd" d="M6.36163 3H18.0387C18.5658 2.99998 19.0204 2.99997 19.3948 3.03058C19.7901 3.06289 20.1831 3.13424 20.5613 3.32698C21.1247 3.61405 21.585 4.07224 21.8732 4.63781C22.0659 5.016 22.1371 5.40906 22.1694 5.80397C22.2 6.17815 22.2 6.6323 22.2 7.15839V16.8416C22.2 17.3677 22.2 17.8217 22.1694 18.1957C22.1371 18.5905 22.0658 18.9833 21.8732 19.3614C21.5856 19.9259 21.1258 20.3856 20.5613 20.6732C20.1833 20.8659 19.7905 20.9372 19.3956 20.9695C19.0216 21 18.5676 21 18.0416 21H6.35834C5.83225 21 5.3781 21 5.00392 20.9695C4.60901 20.9372 4.21595 20.8659 3.83776 20.6732C3.27219 20.3851 2.814 19.9248 2.52693 19.3614C2.3342 18.9831 2.26284 18.5902 2.23053 18.1949C2.19992 17.8205 2.19993 17.3659 2.19995 16.8388V7.16168C2.19993 6.63451 2.19992 6.17965 2.23052 5.80499C2.26281 5.40962 2.33411 5.01625 2.52693 4.63781C2.81455 4.07332 3.27327 3.6146 3.83776 3.32698C4.2162 3.13416 4.60957 3.06286 5.00494 3.03057C5.3796 2.99997 5.83446 2.99998 6.36163 3ZM5.16775 5.02393C4.8959 5.04614 4.79513 5.08383 4.74574 5.109C4.55758 5.20487 4.40482 5.35763 4.30895 5.54579C4.28378 5.59517 4.24609 5.69595 4.22388 5.9678C4.20073 6.25126 4.19995 6.62365 4.19995 7.2002V16.8002C4.19995 17.3768 4.20073 17.7488 4.22388 18.0319C4.24606 18.3032 4.2837 18.4039 4.30895 18.4534C4.40537 18.6427 4.55866 18.7959 4.74574 18.8912C4.79496 18.9163 4.89549 18.9539 5.16681 18.9761C5.44975 18.9992 5.82141 19 6.39686 19H18.003C18.5785 19 18.9499 18.9992 19.2326 18.9761C19.5036 18.954 19.604 18.9164 19.6534 18.8912C19.8415 18.7953 19.9953 18.6416 20.0912 18.4534C20.1163 18.4041 20.1539 18.3036 20.1761 18.0327C20.1992 17.75 20.2 17.3786 20.2 16.8031V7.19691C20.2 6.62146 20.1992 6.2498 20.1761 5.96686C20.1539 5.69554 20.1162 5.59501 20.0912 5.54579C19.9958 5.35871 19.8426 5.20542 19.6534 5.109C19.6038 5.08375 19.5032 5.04611 19.2319 5.02393C18.9488 5.00078 18.5767 5 18.0001 5H6.40015C5.8236 5 5.45121 5.00078 5.16775 5.02393Z" fill="#121212"/>
<path d="M3.19995 5H21.2V7H3.19995V5Z" fill="#121212"/>
<path fill-rule="evenodd" clip-rule="evenodd" d="M10.9071 10.2929C11.2976 10.6834 11.2976 11.3166 10.9071 11.7071L9.61416 13L10.9071 14.2929C11.2976 14.6834 11.2976 15.3166 10.9071 15.7071C10.5165 16.0976 9.88337 16.0976 9.49284 15.7071L7.49284 13.7071C7.30531 13.5196 7.19995 13.2652 7.19995 13C7.19995 12.7348 7.30531 12.4804 7.49284 12.2929L9.49285 10.2929C9.88337 9.90237 10.5165 9.90237 10.9071 10.2929ZM13.4928 10.2929C13.8834 9.90237 14.5165 9.90237 14.9071 10.2929L16.9071 12.2929C17.2976 12.6834 17.2976 13.3166 16.9071 13.7071L14.9071 15.7071C14.5165 16.0976 13.8834 16.0976 13.4928 15.7071C13.1023 15.3166 13.1023 14.6834 13.4928 14.2929L14.7857 13L13.4928 11.7071C13.1023 11.3166 13.1023 10.6834 13.4928 10.2929Z" fill="#121212"/>
</svg>
